<svg width="758" height="1062" fill="none" xmlns="http://www.w3.org/2000/svg"><path d="M570.621 865.162c60.671 0 109.855-46.781 109.855-104.49 0-57.707-49.184-104.489-109.855-104.489-60.671 0-109.856 46.782-109.856 104.489 0 57.709 49.185 104.49 109.856 104.49Z" fill="#4592AF"/><path opacity=".2" d="M489.507 690.881c-10.248 22.8-11.637 48.32-3.922 72.004 7.715 23.685 24.033 43.987 46.038 57.282 22.004 13.294 48.262 18.712 74.08 15.286 25.818-3.425 49.516-15.471 66.857-33.983-6.26 13.929-15.629 26.397-27.458 36.539-11.828 10.145-25.835 17.722-41.046 22.204a115.285 115.285 0 0 1-47.055 3.763c-15.787-2.004-30.927-7.247-44.371-15.368-13.444-8.124-24.869-18.928-33.486-31.666-8.618-12.74-14.221-27.11-16.421-42.112a99.642 99.642 0 0 1 3.68-44.777c4.627-14.496 12.51-27.861 23.104-39.172Z" fill="#000"/><path d="M570.98 762.685h.3l5.434 296.245h-11.47l5.736-296.245Z" fill="#33313B"/><path d="M236.452 642.114c130.589 0 236.45-101.767 236.45-227.301 0-125.535-105.861-227.299-236.45-227.299S0 289.278 0 414.813c0 125.534 105.863 227.301 236.452 227.301Z" fill="#4592AF"/><path opacity=".2" d="M61.863 262.995c-22.055 49.594-25.047 105.113-8.441 156.634 16.606 51.519 51.729 95.686 99.09 124.604 47.363 28.919 103.88 40.707 159.45 33.257 55.572-7.451 106.575-33.654 143.898-73.927-13.472 30.3-33.638 57.423-59.097 79.487-25.46 22.065-55.607 38.546-88.35 48.3-32.743 9.755-67.299 12.548-101.279 8.188-33.976-4.36-66.563-15.77-95.499-33.437-28.936-17.669-53.53-41.171-72.078-68.883-18.549-27.713-30.608-58.97-35.342-91.606-4.734-32.636-2.031-65.873 7.923-97.407 9.955-31.531 26.921-60.607 49.725-85.21Z" fill="#000"/><path d="M237.151 417.567h.651L249.495 1062h-24.686l12.342-644.433Z" fill="#33313B"/><g><path d="m748.75 334.38-35.445 20.586 21.472-35.837c-6.079-4.452-13.603-6.918-21.381-7.008h-.57a42.674 42.674 0 0 1-7.339-.502l-11.99 6.987 5.129-8.577c-8.494-2.736-15.833-7.861-20.971-14.644l-21.45 12.552 13.54-22.636C657.208 271.473 640.295 263 621.672 263c-22.316 0-42.193 12.176-55.026 31.171-3.806 5.689-9.186 10.35-15.591 13.511-6.408 3.16-13.611 4.706-20.88 4.481h-1.185c-24.641 0-44.609 25.627-44.609 57.259 0 31.631 19.968 57.259 44.609 57.259 5.414-.017 10.743-1.245 15.523-3.578 8.39-3.734 17.563-5.755 26.884-5.922 9.322-.165 18.575 1.527 27.116 4.96 7.214 2.975 15.033 4.521 22.942 4.54 7.91.019 15.735-1.494 22.966-4.435 8.47-3.371 17.631-5.03 26.86-4.866 9.23.161 18.313 2.142 26.638 5.807 4.75 2.276 10.027 3.473 15.386 3.494 24.641 0 44.609-25.628 44.609-57.259.196-12.201-2.954-24.251-9.164-35.042Z" fill="#F2F2F2"/><path opacity=".03" d="M637.536 417.789c-12.872-2.234-26.177-.91-38.226 3.808-7.217 2.966-15.035 4.498-22.943 4.498-7.907 0-15.726-1.532-22.942-4.498-8.539-3.444-17.791-5.141-27.116-4.975-9.323.167-18.498 2.192-26.884 5.937-4.791 2.326-10.125 3.554-15.546 3.577-21.882 0-40.095-20.251-43.879-46.945 4.379-2.918 8.094-6.592 10.941-10.816 12.833-18.975 32.71-31.15 55.026-31.15 22.316 0 41.987 11.924 54.798 30.753 3.834 5.69 9.206 10.372 15.6 13.588 6.392 3.215 13.583 4.855 20.871 4.759h.569c17.301-.042 32.391 12.761 39.731 31.464Z" fill="#000"/></g><g><path d="m383.945 95.516-46.854 27.546 28.384-47.954c-8.036-5.958-17.983-9.257-28.263-9.378h-.754a55.742 55.742 0 0 1-9.702-.672l-15.849 9.35 6.78-11.477c-11.228-3.662-20.928-10.519-27.721-19.596l-28.353 16.797 17.898-30.29C262.939 11.338 240.582 0 215.965 0c-29.499 0-55.773 16.293-72.737 41.711-5.03 7.612-12.141 13.85-20.61 18.079-8.468 4.229-17.991 6.298-27.6 5.996h-1.566c-32.572 0-58.966 34.293-58.966 76.62 0 42.328 26.394 76.62 58.966 76.62 7.157-.021 14.2-1.664 20.519-4.787 11.09-4.998 23.215-7.702 35.538-7.924 12.324-.222 24.552 2.042 35.843 6.637 9.547 3.958 19.886 6.004 30.341 6.004 10.456 0 20.794-2.046 30.342-6.004 11.197-4.509 23.305-6.73 35.506-6.512 12.201.217 24.209 2.867 35.212 7.771 6.28 3.045 13.254 4.649 20.338 4.675 32.572 0 58.967-34.292 58.967-76.62.235-16.279-3.929-32.353-12.113-46.75Z" fill="#F2F2F2"/><path opacity=".03" d="M295.812 207.633c-17.014-2.991-34.601-1.218-50.529 5.095-9.54 3.968-19.875 6.02-30.327 6.02-10.452 0-20.787-2.052-30.327-6.02-11.287-4.608-23.517-6.879-35.843-6.657-12.325.223-24.452 2.933-35.537 7.945-6.334 3.113-13.384 4.755-20.55 4.786-28.925 0-53-27.098-58.002-62.819 5.788-3.904 10.7-8.821 14.463-14.473 16.964-25.39 43.238-41.683 72.736-41.683 29.499 0 55.501 15.957 72.435 41.152 5.067 7.614 12.171 13.878 20.621 18.181 8.449 4.303 17.955 6.497 27.589 6.369h.753c22.869-.056 42.816 17.077 52.518 42.104Z" fill="#000"/></g></svg>