<svg id="cloud" viewBox="0 0 56 35" fill="none">
<path d="M46.1638 35H12.782C9.37222 34.9423 6.12165 33.5473 3.73074 31.1156C1.33983 28.6839 0 25.4102 0 22C0 18.5898 1.33983 15.3161 3.73074 12.8844C6.12165 10.4527 9.37222 9.05768 12.782 9H15.3349C16.6013 6.31805 18.6012 4.04948 21.1032 2.45676C23.6052 0.864037 26.507 0.0122738 29.4729 0C33.5057 0.0369556 37.3731 1.6083 40.2889 4.39459C43.2047 7.18089 44.9499 10.973 45.1699 15H46.1638C48.7874 15.0433 51.2889 16.1159 53.1289 17.9865C54.969 19.8572 56.0002 22.376 56.0002 25C56.0002 27.624 54.969 30.1428 53.1289 32.0135C51.2889 33.8841 48.7874 34.9567 46.1638 35V35ZM12.782 11C9.90275 11.0577 7.16094 12.242 5.14514 14.2986C3.12934 16.3552 2.00024 19.1202 2.00024 22C2.00024 24.8798 3.12934 27.6448 5.14514 29.7014C7.16094 31.758 9.90275 32.9423 12.782 33H46.1638C48.2569 32.9567 50.2496 32.0949 51.7146 30.5993C53.1796 29.1037 54.0001 27.0935 54.0001 25C54.0001 22.9065 53.1796 20.8963 51.7146 19.4007C50.2496 17.9051 48.2569 17.0433 46.1638 17H44.2002C43.9349 17 43.6806 16.8946 43.493 16.7071C43.3055 16.5196 43.2002 16.2652 43.2002 16C43.2318 12.3245 41.8044 8.78642 39.231 6.1619C36.6576 3.53737 33.1483 2.04063 29.4729 2C26.7852 2.01425 24.1608 2.81734 21.9254 4.30963C19.69 5.80193 17.9419 7.91774 16.8982 10.3945C16.821 10.5743 16.6928 10.7274 16.5294 10.835C16.3661 10.9426 16.1748 11 15.9792 11H12.782Z" fill="#4592AF"/>
</svg>
