<svg id="cloud_sun" viewBox="0 0 56 42" fill="none">
<g>
<path id="Vector" d="M44.6716 23.0566L43.8923 21.2148C45.4051 20.5753 46.7372 19.5732 47.7708 18.2968C48.8045 17.0205 49.508 15.5092 49.8191 13.8966C50.1302 12.2839 50.0394 10.6194 49.5547 9.05017C49.07 7.48091 48.2063 6.05517 47.0399 4.89886C45.8735 3.74255 44.4403 2.89126 42.8669 2.42019C41.2935 1.94912 39.6283 1.87278 38.0184 2.19787C36.4085 2.52296 34.9034 3.2395 33.6361 4.28421C32.3688 5.32891 31.3782 6.66961 30.7519 8.18792L28.9033 7.42523C29.6548 5.60336 30.8434 3.99458 32.3641 2.74099C33.8848 1.48741 35.6908 0.627595 37.6226 0.237483C39.5543 -0.152629 41.5525 -0.0610171 43.4405 0.504207C45.3285 1.06943 47.0482 2.09086 48.4478 3.47833C49.8475 4.86579 50.8839 6.57657 51.4655 8.45956C52.0472 10.3425 52.1563 12.3398 51.783 14.2749C51.4098 16.21 50.5657 18.0235 49.3255 19.555C48.0852 21.0866 46.4868 22.2892 44.6716 23.0566V23.0566Z" fill="#4592AF"/>
<path id="Vector_2" d="M46.1638 41.9999H12.782C9.37222 41.9423 6.12165 40.5473 3.73074 38.1156C1.33983 35.6839 0 32.4102 0 28.9999C0 25.5897 1.33983 22.316 3.73074 19.8843C6.12165 17.4526 9.37222 16.0576 12.782 15.9999H15.3349C16.6013 13.318 18.6012 11.0494 21.1032 9.4567C23.6052 7.86398 26.507 7.01221 29.4729 6.99994C33.5057 7.03689 37.3731 8.60824 40.2889 11.3945C43.2047 14.1808 44.9499 17.9729 45.1699 21.9999H46.1638C48.7874 22.0432 51.2889 23.1158 53.1289 24.9865C54.969 26.8571 56.0002 29.376 56.0002 31.9999C56.0002 34.6239 54.969 37.1428 53.1289 39.0134C51.2889 40.8841 48.7874 41.9567 46.1638 41.9999V41.9999ZM12.782 17.9999C9.90275 18.0577 7.16094 19.2419 5.14514 21.2986C3.12934 23.3552 2.00024 26.1202 2.00024 28.9999C2.00024 31.8797 3.12934 34.6447 5.14514 36.7013C7.16094 38.7579 9.90275 39.9422 12.782 39.9999H46.1638C48.2569 39.9567 50.2496 39.0948 51.7146 37.5992C53.1796 36.1036 54.0001 34.0935 54.0001 31.9999C54.0001 29.9064 53.1796 27.8962 51.7146 26.4007C50.2496 24.9051 48.2569 24.0432 46.1638 23.9999H44.2002C43.9349 23.9999 43.6806 23.8946 43.493 23.707C43.3055 23.5195 43.2002 23.2652 43.2002 22.9999C43.2318 19.3244 41.8044 15.7864 39.231 13.1618C36.6576 10.5373 33.1483 9.04057 29.4729 8.99994C26.7852 9.01418 24.1608 9.81728 21.9254 11.3096C19.69 12.8019 17.9419 14.9177 16.8982 17.3945C16.821 17.5742 16.6928 17.7273 16.5294 17.8349C16.3661 17.9425 16.1748 17.9999 15.9792 17.9999H12.782Z" fill="#4592AF"/>
</g>
</svg>
