<svg width="1433" height="956" fill="none" xmlns="http://www.w3.org/2000/svg">
  <g id="cloudy">
    <g id="small_tree">
      <path id="Vector" d="M454.5 791.468c48.325 0 87.5-39.728 87.5-88.735C542 653.727 502.825 614 454.5 614S367 653.727 367 702.733c0 49.007 39.175 88.735 87.5 88.735Z" fill="#4592AF"/>
      <path id="Vector_2" opacity=".2" d="M389.893 643.465a89.906 89.906 0 0 0-3.124 61.147c6.145 20.113 19.142 37.355 36.669 48.645 17.527 11.289 38.441 15.891 59.005 12.981 20.564-2.909 39.44-13.138 53.252-28.859a88.733 88.733 0 0 1-21.87 31.03 87.193 87.193 0 0 1-32.694 18.856 86.359 86.359 0 0 1-37.48 3.195 86.746 86.746 0 0 1-35.341-13.051 88.155 88.155 0 0 1-26.672-26.891 89.562 89.562 0 0 1-13.079-35.762 89.949 89.949 0 0 1 2.932-38.025 89.109 89.109 0 0 1 18.402-33.266Z" fill="#000"/>
      <path id="Vector_3" d="M454.786 704.442h.239l4.328 251.575h-9.135l4.568-251.575Z" fill="#33313B"/>
    </g>
    <g id="big_tree">
      <path id="Vector_4" d="M188.334 602.052c104.014 0 188.333-86.422 188.333-193.027C376.667 302.419 292.348 216 188.334 216S0 302.419 0 409.025C0 515.63 84.32 602.052 188.334 602.052Z" fill="#4592AF"/>
      <path id="Vector_5" opacity=".2" d="M49.274 280.1c-17.567 42.116-19.95 89.262-6.723 133.015 13.227 43.751 41.202 81.258 78.925 105.815 37.724 24.559 82.74 34.57 127.002 28.242 44.263-6.327 84.887-28.578 114.615-62.779-10.731 25.731-26.793 48.764-47.071 67.502-20.278 18.737-44.291 32.733-70.37 41.016a183.95 183.95 0 0 1-80.669 6.953c-27.062-3.702-53.018-13.391-76.066-28.394-23.047-15.005-42.636-34.964-57.41-58.497-14.774-23.534-24.379-50.078-28.15-77.793a197.66 197.66 0 0 1 6.311-82.719c7.929-26.777 21.443-51.468 39.606-72.361Z" fill="#000"/>
      <path id="Vector_6" d="M188.891 411.364h.518l9.314 547.261h-19.662l9.83-547.261Z" fill="#33313B"/>
    </g>
    <g id="big_tree_2">
      <path id="Vector_4_2" d="M1244.33 599.052c104.02 0 188.34-86.422 188.34-193.027 0-106.606-84.32-193.025-188.34-193.025-104.01 0-188.33 86.419-188.33 193.025 0 106.605 84.32 193.027 188.33 193.027Z" fill="#4592AF"/>
      <path id="Vector_5_2" opacity=".2" d="M1105.27 277.1c-17.56 42.116-19.95 89.262-6.72 133.015 13.23 43.751 41.2 81.258 78.93 105.815 37.72 24.559 82.74 34.57 127 28.242 44.26-6.327 84.89-28.578 114.61-62.779-10.73 25.731-26.79 48.764-47.07 67.502-20.28 18.737-44.29 32.733-70.37 41.016a183.946 183.946 0 0 1-80.67 6.953c-27.06-3.702-53.02-13.391-76.06-28.394-23.05-15.005-42.64-34.964-57.41-58.497-14.78-23.534-24.38-50.078-28.15-77.793a197.653 197.653 0 0 1 6.31-82.719c7.93-26.777 21.44-51.468 39.6-72.361Z" fill="#000"/>
      <path id="Vector_6_2" d="M1244.89 408.364h.52l9.31 547.261h-19.66l9.83-547.261Z" fill="#33313B"/>
    </g>
    <g id="grass_2">
      <path id="Path 438_3" d="M1360.04 888.943c-47.04 13.842-47.59-54.286-55.08-84.943 26.59 18.553 71.41 45.006 54.91 84.114" fill="#4592AF"/>
      <path id="Path 439_3" d="M1357.44 941.8c6.18-35.815 6.57-81.179-27.72-102.346-1.64-1.061-3.14 1.603-1.51 2.659 33.1 20.52 32.12 64.344 26.33 98.868-.09.388-.02.797.17 1.14.2.345.52.596.9.703.37.105.78.058 1.12-.133.34-.191.6-.512.71-.893v.002Z" fill="#33313B"/>
      <path id="Path 442_2" d="M1342.22 916.464c-21.52 29.611-51.5-10.039-69.22-24.572 23.64-1.29 61.41-6.285 68.76 24.165" fill="#4592AF"/>
      <path id="Path 443_2" d="M1363.42 950.878c-12.16-23.871-31.6-50.868-61.21-47.459-1.93.169-1.45 3.21.47 3.04 28.14-2.984 46.44 22.948 58 45.673.94 1.71 3.69.476 2.74-1.254Z" fill="#33313B"/>
    </g>
    <g id="grass">
      <path id="Path 438" d="M523.053 919.728c26.982 7.941 27.302-31.141 31.596-48.728-15.252 10.643-40.966 25.817-31.496 48.252" fill="#4592AF"/>
      <path id="Path 439" d="M524.541 950.05c-3.544-20.546-3.767-46.568 15.903-58.713.939-.608 1.806.919.87 1.526-18.991 11.772-18.429 36.911-15.109 56.716a.906.906 0 0 1-.096.655.864.864 0 0 1-.514.401.841.841 0 0 1-.642-.075.874.874 0 0 1-.41-.512l-.002.002Z" fill="#33313B"/>
      <path id="Path 442" d="M533.273 935.515c12.349 16.987 29.542-5.759 39.71-14.096-13.563-.739-35.228-3.604-39.442 13.863" fill="#4592AF"/>
      <path id="Path 443" d="M521.113 955.258c6.98-13.694 18.125-29.181 35.117-27.227 1.104.099.828 1.841-.274 1.744-16.139-1.712-26.64 13.167-33.269 26.203-.539.979-2.12.272-1.574-.72Z" fill="#33313B"/>
    </g>
    <g id="grass_3">
      <path id="Path 448" d="M272.053 919.728c26.982 7.941 27.302-31.141 31.596-48.728-15.252 10.643-40.966 25.817-31.496 48.252" fill="#4592AF"/>
      <path id="Path 449" d="M273.541 950.05c-3.544-20.546-3.767-46.568 15.903-58.713.939-.608 1.806.919.87 1.526-18.991 11.772-18.429 36.911-15.109 56.716a.906.906 0 0 1-.096.655.864.864 0 0 1-.514.401.841.841 0 0 1-.642-.075.874.874 0 0 1-.41-.512l-.002.002Z" fill="#33313B"/>
      <path id="Path 450" d="M282.273 935.515c12.349 16.987 29.542-5.759 39.71-14.096-13.563-.739-35.228-3.604-39.442 13.863" fill="#4592AF"/>
      <path id="Path 451" d="M270.113 955.258c6.98-13.694 18.125-29.181 35.117-27.227 1.104.099.828 1.841-.274 1.744-16.139-1.712-26.64 13.167-33.269 26.203-.539.979-2.12.272-1.574-.72Z" fill="#33313B"/>
    </g>
    <g id="cloud_4">
      <path id="Vector_21" d="m868.57 198.617-28.232 17.482 17.103-30.433c-4.842-3.781-10.836-5.875-17.03-5.952h-.454a31.866 31.866 0 0 1-5.846-.426l-9.55 5.934 4.085-7.284c-6.765-2.324-12.611-6.676-16.704-12.436l-17.084 10.659 10.784-19.223C795.657 145.195 782.185 138 767.352 138c-17.774 0-33.606 10.34-43.828 26.471a32.513 32.513 0 0 1-12.418 11.473 33.382 33.382 0 0 1-16.631 3.806h-.944c-19.627 0-35.531 21.763-35.531 48.625S673.904 277 693.531 277a26.989 26.989 0 0 0 12.364-3.038 52.32 52.32 0 0 1 21.413-5.03 52.342 52.342 0 0 1 21.598 4.213A45.712 45.712 0 0 0 767.179 277a45.691 45.691 0 0 0 18.292-3.767 52.295 52.295 0 0 1 21.395-4.132 52.232 52.232 0 0 1 21.217 4.932A27.202 27.202 0 0 0 840.338 277c19.626 0 35.531-21.763 35.531-48.625a60.698 60.698 0 0 0-7.299-29.758Z" fill="#F2F2F2"/>
      <path id="Vector_22" opacity=".03" d="M815.465 269.769a53.728 53.728 0 0 0-30.447 3.233 45.527 45.527 0 0 1-18.274 3.82c-6.298 0-12.526-1.3-18.274-3.82a52.191 52.191 0 0 0-21.598-4.224 52.14 52.14 0 0 0-21.413 5.042 27.226 27.226 0 0 1-12.382 3.038c-17.43 0-31.936-17.198-34.95-39.867a32.728 32.728 0 0 0 8.715-9.185c10.222-16.114 26.053-26.453 43.828-26.453 17.774 0 33.443 10.126 43.646 26.115a33.28 33.28 0 0 0 12.426 11.539 34.162 34.162 0 0 0 16.623 4.042h.454c13.781-.035 25.8 10.837 31.646 26.72Z" fill="#000"/>
    </g>
    <g id="cloud_3">
      <path id="Vector_21_2" d="m1289.9 87.655-42.89 25.279 25.98-44.007c-7.35-5.468-16.46-8.496-25.87-8.607h-.69c-2.97.055-5.95-.152-8.88-.616l-14.51 8.58 6.21-10.533c-10.28-3.36-19.16-9.652-25.38-17.983l-25.95 15.414 16.38-27.796C1179.13 10.404 1158.66 0 1136.13 0c-27 0-51.06 14.952-66.58 38.278-4.61 6.986-11.12 12.71-18.87 16.591-7.75 3.88-16.47 5.78-25.27 5.503h-1.43c-29.818 0-53.98 31.47-53.98 70.314 0 38.843 24.162 70.314 53.98 70.314 6.55-.021 13-1.529 18.78-4.393 10.16-4.586 21.25-7.068 32.53-7.273 11.28-.203 22.48 1.875 32.82 6.091 8.73 3.653 18.19 5.552 27.76 5.575 9.57.023 19.04-1.835 27.79-5.447 10.25-4.138 21.33-6.175 32.5-5.975 11.17.198 22.16 2.631 32.23 7.132 5.75 2.795 12.14 4.264 18.62 4.29 29.82 0 53.98-31.471 53.98-70.314.24-14.983-3.58-29.781-11.09-43.031Z" fill="#F2F2F2"/>
      <path id="Vector_22_2" opacity=".03" d="M1209.22 190.544c-15.57-2.744-31.67-1.118-46.25 4.675-8.74 3.643-18.2 5.524-27.76 5.524-9.57 0-19.03-1.881-27.77-5.524-10.33-4.228-21.52-6.312-32.81-6.109-11.28.206-22.38 2.692-32.53 7.291-5.8 2.857-12.25 4.365-18.81 4.393-26.48 0-48.518-24.868-53.097-57.649 5.299-3.583 9.795-8.095 13.24-13.281 15.529-23.302 39.577-38.253 66.587-38.253 27 0 50.8 14.643 66.31 37.764 4.63 6.988 11.14 12.738 18.87 16.686 7.74 3.949 16.44 5.963 25.26 5.845h.69c20.93-.052 39.19 15.671 48.07 38.638Z" fill="#000"/>
    </g>
    <g id="cloud_1">
      <path id="Vector_23" d="m436.345 96.114-37.319 23.392 22.607-40.723a37.055 37.055 0 0 0-22.511-7.964h-.6c-2.589.05-5.176-.14-7.728-.57l-12.624 7.94 5.4-9.747A45.025 45.025 0 0 1 361.491 51.8l-22.584 14.263 14.256-25.722C339.963 24.628 322.156 15 302.548 15c-23.495 0-44.423 13.836-57.934 35.422a43.179 43.179 0 0 1-16.416 15.352 43.68 43.68 0 0 1-21.983 5.093h-1.248c-25.944 0-46.967 29.121-46.967 65.066C158 171.878 179.023 201 204.967 201a35.303 35.303 0 0 0 16.343-4.065 68.4 68.4 0 0 1 28.306-6.73 68.441 68.441 0 0 1 28.549 5.636 59.779 59.779 0 0 0 24.167 5.1 59.783 59.783 0 0 0 24.168-5.1 68.408 68.408 0 0 1 28.28-5.53 68.375 68.375 0 0 1 28.046 6.6 35.596 35.596 0 0 0 16.2 3.97c25.943 0 46.966-29.122 46.966-65.067a82.005 82.005 0 0 0-9.647-39.7Z" fill="#F2F2F2"/>
      <path id="Vector_24" opacity=".03" d="M366.147 191.324a70.207 70.207 0 0 0-40.247 4.327 59.59 59.59 0 0 1-24.155 5.112 59.592 59.592 0 0 1-24.156-5.112 68.253 68.253 0 0 0-28.549-5.653 68.22 68.22 0 0 0-28.305 6.747 35.63 35.63 0 0 1-16.368 4.065c-23.039 0-42.215-23.013-46.199-53.347a43.57 43.57 0 0 0 11.52-12.291c13.512-21.562 34.439-35.398 57.934-35.398 23.496 0 44.207 13.551 57.695 34.947a44.22 44.22 0 0 0 16.424 15.44 44.743 44.743 0 0 0 21.975 5.409h.6c18.215-.048 34.103 14.501 41.831 35.754Z" fill="#000"/>
    </g>
  </g>
</svg>
