<svg width="1488" height="1062" fill="none">
  <g id="cloudy">

    <g id="small_tree">
      <path d="M475.587 799.87c52.143 0 94.413-41.007 94.413-91.593 0-50.584-42.27-91.591-94.413-91.591-52.142 0-94.413 41.007-94.413 91.591 0 50.586 42.271 91.593 94.413 91.593Z" fill="#4592AF"/>
      <path opacity=".2" d="M405.876 647.101c-8.807 19.986-10.001 42.355-3.371 63.116 6.631 20.761 20.655 38.558 39.566 50.211 18.911 11.653 41.478 16.403 63.667 13.4 22.188-3.003 42.556-13.562 57.458-29.789-5.379 12.209-13.432 23.139-23.597 32.029-10.166 8.892-22.204 15.534-35.277 19.463a97.226 97.226 0 0 1-40.441 3.299c-13.567-1.757-26.579-6.353-38.133-13.472-11.554-7.121-21.373-16.591-28.779-27.757-7.406-11.167-12.221-23.764-14.112-36.913a88.996 88.996 0 0 1 3.163-39.251c3.976-12.707 10.751-24.421 19.856-34.336Z" fill="#000"/>
      <path d="M476.001 710h.262L481 1062h-10l5.001-352Z" fill="#33313B"/>
    </g>

    <g id="small_tree_2">
      <path d="M703.5 862.054c40.04 0 72.5-30.943 72.5-69.114 0-38.169-32.46-69.112-72.5-69.112S631 754.771 631 792.94c0 38.171 32.46 69.114 72.5 69.114Z" fill="#4592AF"/>
      <path opacity=".2" d="M649.968 746.778c-6.763 15.081-7.679 31.961-2.588 47.626 5.092 15.666 15.861 29.095 30.383 37.888 14.522 8.793 31.851 12.377 48.89 10.111s32.679-10.233 44.123-22.477c-4.131 9.212-10.315 17.459-18.121 24.168-7.806 6.71-17.05 11.721-27.089 14.686a75.918 75.918 0 0 1-31.055 2.489c-10.418-1.326-20.41-4.793-29.282-10.165-8.873-5.374-16.413-12.52-22.1-20.945-5.687-8.427-9.385-17.932-10.837-27.854a66.036 66.036 0 0 1 2.429-29.617c3.054-9.589 8.256-18.428 15.247-25.91Z" fill="#000"/>
      <path d="M704.001 795h.209l3.79 267h-8l4.001-267Z" fill="#33313B"/>
    </g>
    <g id="small_tree_3">
      <path d="M833.5 965.322c20.158 0 36.5-15.66 36.5-34.979 0-19.317-16.342-34.978-36.5-34.978S797 911.026 797 930.343c0 19.319 16.342 34.979 36.5 34.979Z" fill="#4592AF"/>
      <path opacity=".2" d="M806.55 906.98a33.621 33.621 0 0 0-1.303 24.104c2.563 7.928 7.985 14.725 15.296 19.175 7.311 4.451 16.035 6.264 24.613 5.118 8.578-1.147 16.452-5.18 22.214-11.376-2.08 4.662-5.193 8.836-9.123 12.231-3.93 3.396-8.584 5.932-13.638 7.433a38.02 38.02 0 0 1-15.634 1.26 37.517 37.517 0 0 1-14.743-5.145c-4.466-2.72-8.262-6.336-11.126-10.6a34.121 34.121 0 0 1-5.456-14.097 33.607 33.607 0 0 1 1.223-14.99c1.538-4.853 4.157-9.326 7.677-13.113Z" fill="#000"/>
      <path d="M833.68 931.164h.094L835.487 1062h-3.615l1.808-130.836Z" fill="#33313B"/>
    </g>
    <g id="big_tree_2">
      <path d="M195.608 604.686c108.031 0 195.607-86.8 195.607-193.872 0-107.071-87.576-193.869-195.607-193.869C87.576 216.945 0 303.743 0 410.814c0 107.072 87.576 193.872 195.608 193.872Z" fill="#4592AF"/>
      <path opacity=".2" d="M51.177 281.325a192.28 192.28 0 0 0-6.983 133.597c13.738 43.943 42.793 81.614 81.974 106.278 39.181 24.667 85.936 34.721 131.907 28.366 45.973-6.355 88.166-28.704 119.042-63.054-11.146 25.843-27.828 48.978-48.89 67.797-21.061 18.819-46.001 32.876-73.088 41.196a197.276 197.276 0 0 1-83.784 6.983 196.747 196.747 0 0 1-79.003-28.518c-23.938-15.071-44.284-35.117-59.628-58.753a192.828 192.828 0 0 1-29.237-78.133 192.24 192.24 0 0 1 6.555-83.081c8.234-26.894 22.27-51.694 41.135-72.678Z" fill="#000"/>
      <path d="M196.499 413h.554L207 1062h-21l10.499-649Z" fill="#33313B"/>
    </g>
    <g id="big_tree_1">
      <path d="M1292.39 601.672c108.03 0 195.61-86.799 195.61-193.871s-87.58-193.869-195.61-193.869c-108.03 0-195.6 86.797-195.6 193.869s87.57 193.871 195.6 193.871Z" fill="#4592AF"/>
      <path opacity=".2" d="M1147.96 278.312c-18.24 42.3-20.72 89.653-6.98 133.597 13.74 43.942 42.79 81.614 81.97 106.278 39.18 24.666 85.94 34.721 131.91 28.366 45.97-6.355 88.17-28.704 119.04-63.055-11.14 25.844-27.83 48.978-48.89 67.798-21.06 18.819-46 32.876-73.09 41.196a197.247 197.247 0 0 1-83.78 6.983c-28.11-3.718-55.07-13.45-79-28.518-23.94-15.071-44.29-35.117-59.63-58.753a192.81 192.81 0 0 1-29.24-78.133 192.265 192.265 0 0 1 6.56-83.081c8.23-26.894 22.27-51.694 41.13-72.678Z" fill="#000"/>
      <path d="M1294.5 410h.61l10.89 652h-23l11.5-652Z" fill="#33313B"/>
    </g>
    <g id="cloud_4">
      <path d="m902.116 199.486-29.322 17.558 17.763-30.566c-5.029-3.798-11.254-5.901-17.688-5.978h-.471a34.253 34.253 0 0 1-6.072-.428l-9.919 5.96 4.243-7.316c-7.026-2.334-13.098-6.705-17.349-12.491l-17.744 10.706 11.201-19.306c-10.371-11.795-24.363-19.021-39.769-19.021-18.461 0-34.904 10.384-45.521 26.586-3.149 4.852-7.599 8.828-12.898 11.524-5.301 2.695-11.26 4.014-17.273 3.822h-.981c-20.384 0-36.903 21.858-36.903 48.838 0 26.979 16.519 48.837 36.903 48.837a28.798 28.798 0 0 0 12.842-3.051 55.84 55.84 0 0 1 22.24-5.051 55.983 55.983 0 0 1 22.432 4.23 48.847 48.847 0 0 0 18.98 3.872 48.867 48.867 0 0 0 18.998-3.782 55.915 55.915 0 0 1 22.221-4.151 55.777 55.777 0 0 1 22.036 4.954 29.025 29.025 0 0 0 12.729 2.979c20.384 0 36.903-21.858 36.903-48.837.162-10.407-2.444-20.685-7.581-29.888Z" fill="#F2F2F2"/>
      <path opacity=".03" d="M846.96 270.949c-10.649-1.906-21.655-.776-31.623 3.248a48.684 48.684 0 0 1-18.98 3.836 48.682 48.682 0 0 1-18.979-3.836 55.828 55.828 0 0 0-22.432-4.244c-7.713.143-15.303 1.87-22.24 5.064a29.043 29.043 0 0 1-12.861 3.052c-18.102 0-33.169-17.273-36.299-40.041a33.378 33.378 0 0 0 9.051-9.225c10.616-16.185 27.06-26.57 45.521-26.57 18.461 0 34.734 10.171 45.332 26.231 3.172 4.853 7.616 8.846 12.905 11.589 5.288 2.743 11.237 4.141 17.266 4.059h.471c14.313-.035 26.796 10.885 32.868 26.837Z" fill="#000"/>
    </g>
    <g id="cloud_4_2">
      <path d="m904.434 617.944-21.51 12.071 13.03-21.014c-3.689-2.611-8.255-4.057-12.975-4.11h-.346a26.736 26.736 0 0 1-4.454-.294l-7.276 4.097 3.112-5.029c-5.154-1.605-9.608-4.61-12.726-8.587l-13.017 7.36 8.217-13.273c-7.608-8.109-17.872-13.077-29.173-13.077-13.543 0-25.605 7.139-33.393 18.278-2.31 3.336-5.575 6.069-9.462 7.922-3.888 1.853-8.259 2.76-12.671 2.628h-.719c-14.953 0-27.071 15.028-27.071 33.576 0 18.548 12.118 33.576 27.071 33.576 3.285-.01 6.519-.73 9.42-2.098 5.092-2.19 10.658-3.375 16.315-3.473 5.657-.097 11.272.895 16.455 2.909 4.378 1.744 9.123 2.651 13.923 2.662a37.93 37.93 0 0 0 13.937-2.601c5.14-1.976 10.7-2.949 16.3-2.854 5.601.095 11.114 1.257 16.166 3.406 2.882 1.335 6.085 2.036 9.337 2.049 14.953 0 27.071-15.028 27.071-33.576.119-7.155-1.793-14.221-5.561-20.548Z" fill="#F2F2F2"/>
      <path opacity=".03" d="M863.973 667.075c-7.811-1.31-15.886-.534-23.198 2.232-4.379 1.74-9.124 2.638-13.923 2.638-4.798 0-9.543-.898-13.922-2.638-5.182-2.019-10.797-3.014-16.456-2.917-5.658.098-11.225 1.286-16.314 3.482-2.908 1.364-6.145 2.084-9.435 2.097-13.279 0-24.332-11.874-26.628-27.528 2.657-1.711 4.912-3.865 6.64-6.342 7.788-11.126 19.85-18.266 33.393-18.266 13.542 0 25.48 6.992 33.254 18.033 2.327 3.337 5.587 6.082 9.467 7.968 3.879 1.885 8.243 2.847 12.665 2.791h.346c10.499-.025 19.657 7.483 24.111 18.45Z" fill="#000"/>
    </g>
    <g id="cloud_4_3">
      <path d="m759.568 406.111-20.992 13.318 12.717-23.185a20.698 20.698 0 0 0-12.663-4.534h-.337a23.178 23.178 0 0 1-4.347-.324l-7.101 4.52 3.037-5.549a25.366 25.366 0 0 1-12.419-9.474l-12.703 8.12 8.019-14.644c-7.425-8.947-17.442-14.428-28.471-14.428-13.216 0-24.988 7.877-32.588 20.167a24.404 24.404 0 0 1-9.234 8.74 24.32 24.32 0 0 1-12.365 2.899h-.702c-14.593 0-26.419 16.58-26.419 37.045 0 20.464 11.826 37.044 26.419 37.044a19.688 19.688 0 0 0 9.193-2.314 38.116 38.116 0 0 1 15.921-3.832 38.105 38.105 0 0 1 16.059 3.209 33.287 33.287 0 0 0 27.189.068 38.07 38.07 0 0 1 31.683.609 19.816 19.816 0 0 0 9.112 2.26c14.593 0 26.419-16.58 26.419-37.044a47.162 47.162 0 0 0-5.427-22.671Z" fill="#F2F2F2"/>
      <path opacity=".03" d="M720.082 460.318a39.056 39.056 0 0 0-22.639 2.463 33.169 33.169 0 0 1-27.174 0 38.004 38.004 0 0 0-16.059-3.219 38.04 38.04 0 0 0-15.922 3.841 19.847 19.847 0 0 1-9.207 2.315c-12.959 0-23.745-13.102-25.986-30.372a24.716 24.716 0 0 0 6.48-6.997c7.6-12.276 19.371-20.154 32.587-20.154 13.217 0 24.867 7.715 32.453 19.896a24.996 24.996 0 0 0 9.24 8.791 24.9 24.9 0 0 0 12.36 3.079h.337c10.246-.027 19.183 8.257 23.53 20.357Z" fill="#000"/>
    </g>
    <g id="cloud_3">
      <path d="m1339.72 88.038-44.55 25.39 26.99-44.2c-7.64-5.491-17.1-8.533-26.87-8.644h-.72c-3.09.055-6.18-.153-9.22-.619l-15.07 8.618 6.44-10.579c-10.67-3.375-19.9-9.695-26.35-18.062l-26.96 15.482 17.02-27.918C1224.67 10.45 1203.41 0 1180.01 0c-28.05 0-53.03 15.017-69.16 38.446-4.78 7.016-11.54 12.765-19.59 16.663-8.05 3.898-17.11 5.805-26.24 5.527h-1.49c-30.97 0-56.07 31.608-56.07 70.621 0 39.014 25.1 70.622 56.07 70.622 6.8-.021 13.5-1.535 19.51-4.412 10.54-4.606 22.07-7.098 33.78-7.305 11.72-.204 23.35 1.884 34.08 6.118 9.07 3.669 18.9 5.576 28.84 5.599 9.94.023 19.77-1.842 28.86-5.47 10.64-4.157 22.16-6.203 33.76-6.002 11.6.199 23.01 2.642 33.48 7.163 5.97 2.807 12.6 4.283 19.33 4.309 30.97 0 56.07-31.608 56.07-70.622.24-15.048-3.72-29.91-11.52-43.219Z" fill="#F2F2F2"/>
      <path opacity=".03" d="M1255.93 191.377c-16.18-2.756-32.9-1.123-48.05 4.696-9.07 3.659-18.89 5.547-28.83 5.547-9.94 0-19.76-1.888-28.83-5.547-10.74-4.247-22.36-6.34-34.08-6.136-11.72.206-23.25 2.704-33.79 7.323-6.02 2.869-12.73 4.384-19.54 4.412-27.5 0-50.39-24.977-55.15-57.901 5.51-3.599 10.18-8.13 13.75-13.34 16.13-23.403 41.11-38.42 69.16-38.42 28.05 0 52.77 14.707 68.87 37.93 4.82 7.018 11.57 12.793 19.61 16.759 8.03 3.966 17.07 5.988 26.23 5.87h.71c21.75-.052 40.71 15.739 49.94 38.807Z" fill="#000"/>
    </g>
    <g id="cloud_1">
      <path d="m453.197 96.534-38.76 23.495 23.481-40.901c-6.648-5.082-14.876-7.897-23.381-8h-.623a44.758 44.758 0 0 1-8.027-.572l-13.111 7.975 5.608-9.79c-9.288-3.123-17.313-8.971-22.932-16.714l-23.455 14.326 14.806-25.834c-13.71-15.783-32.205-25.453-52.57-25.453-24.403 0-46.138 13.896-60.172 35.576-4.161 6.493-10.044 11.813-17.05 15.42-7.005 3.607-14.883 5.372-22.832 5.115h-1.296c-26.945 0-48.781 29.249-48.781 65.351 0 36.102 21.836 65.351 48.781 65.351a37.664 37.664 0 0 0 16.975-4.083c9.174-4.263 19.204-6.569 29.399-6.759a73.184 73.184 0 0 1 29.651 5.661 63.915 63.915 0 0 0 25.101 5.122c8.65 0 17.202-1.746 25.101-5.122a73.152 73.152 0 0 1 29.373-5.554 73.023 73.023 0 0 1 29.129 6.628 37.98 37.98 0 0 0 16.825 3.988c26.945 0 48.781-29.249 48.781-65.351.194-13.886-3.251-27.595-10.021-39.875Z" fill="#F2F2F2"/>
      <path opacity=".03" d="M380.288 192.161c-14.075-2.551-28.624-1.038-41.801 4.346a63.704 63.704 0 0 1-25.088 5.134 63.71 63.71 0 0 1-25.089-5.134 73.002 73.002 0 0 0-29.651-5.678c-10.197.19-20.228 2.502-29.399 6.776a38.01 38.01 0 0 1-17 4.083c-23.929 0-43.845-23.113-47.983-53.58 4.788-3.331 8.852-7.524 11.965-12.344 14.033-21.657 35.769-35.553 60.172-35.553s45.914 13.61 59.922 35.099c4.192 6.494 10.069 11.837 17.059 15.507s14.854 5.542 22.823 5.433h.624c18.919-.048 35.42 14.565 43.446 35.911Z" fill="#000"/>
    </g>
  </g>
</svg>
