<svg viewBox="0 0 3550 4028" fill="none">
<g id="mist" clip-path="url(#clip0_26_1212)">
<g id="tree">
<path id="Vector" opacity="0.8" d="M2455.24 2765.56C2442.11 2765.61 2429.17 2762.09 2417.55 2755.32C2405.93 2748.55 2395.98 2738.72 2388.57 2726.71C2380.42 2713.71 2375.49 2698.56 2374.28 2682.79C2373.07 2667.01 2375.62 2651.16 2381.68 2636.82C2427.21 2527.22 2443.73 2405.18 2430.78 2274.08C2398.94 1951.86 2108.58 1448.94 2105.65 1443.9L1972.34 1255.93C1941.99 1213.12 1956.9 1167.18 1983.6 1142.61C2009.87 1118.43 2052.69 1110.78 2084.63 1151.12C2093.86 1161.93 2101 1174.73 2105.58 1188.73C2114.59 1123.11 2149.73 826.608 2087.62 582.501C2068.19 506.132 2111.37 453.321 2159.7 436.572C2207.16 420.132 2268.65 436.047 2291.56 509.834C2304.82 552.56 2309.05 600.929 2304.14 653.593C2291.52 788.755 2281.99 914.732 2275.81 1028.02C2275.1 1040.97 2278.13 1053.83 2284.46 1064.74C2290.79 1075.65 2300.09 1084.04 2311.02 1088.7C2321.94 1093.36 2333.92 1094.05 2345.22 1090.66C2356.52 1087.28 2366.55 1079.99 2373.86 1069.86L2478.15 925.496C2540.89 838.649 2635.26 835.237 2700.95 870.384C2760.48 902.233 2821.72 979.622 2798.37 1092.9C2792.78 1120.03 2782.72 1141.65 2768.46 1157.16C2765.48 1160.4 2762.45 1163.64 2759.39 1166.89C2689.95 1240.36 2642.77 1335.86 2624.34 1440.26C2605.9 1544.66 2617.12 1652.83 2656.45 1749.88C2749.65 1977.91 2811.32 2173.51 2839.76 2331.24C2878.82 2547.92 2853.05 2686.2 2763.15 2742.23L2762.33 2742.51L2460.98 2765.34L2460.85 2763.17L2460.98 2765.34C2459.06 2765.49 2457.14 2765.56 2455.24 2765.56Z" fill="#E3C4A8"/>
<path id="Vector_2" d="M1872.08 1488.55C1871.06 1488.55 1870.05 1488.54 1869.03 1488.52C1815.65 1487.65 1764.23 1466.07 1723.72 1427.54C1683.22 1389 1656.18 1335.94 1647.32 1277.6C1638.46 1219.26 1648.34 1159.32 1675.24 1108.22C1702.13 1057.11 1744.35 1018.07 1794.53 997.89C1801.2 995.277 1806.97 990.417 1811.03 983.991C1815.09 977.565 1817.23 969.894 1817.16 962.051L1817.15 961.152C1817.15 940.951 1819.33 920.821 1823.64 901.193C1825.11 894.878 1825.03 888.246 1823.43 881.973C1821.83 875.699 1818.76 870.008 1814.52 865.479C1776.24 825.584 1745.87 777.295 1725.35 723.686C1704.83 670.076 1694.6 612.32 1695.31 554.091C1698.29 326.77 1867.69 141.832 2072.93 141.832L2074.77 141.837C2125.81 141.904 2176.3 153.537 2223.14 176.02C2269.97 198.504 2312.16 231.364 2347.11 272.58C2364.68 293.125 2385.82 309.507 2409.27 320.735C2432.71 331.963 2457.97 337.803 2483.51 337.901L2484.23 340.29L2484.23 337.899L2485.73 337.894C2557.2 338.128 2627.17 360.723 2687.57 403.079C2747.97 445.434 2796.35 505.828 2827.15 577.31C2828.82 581.253 2831.45 584.595 2834.75 586.955C2838.06 589.314 2841.89 590.595 2845.82 590.65L2848.42 590.709C2915.89 592.478 2981.7 614.253 3039 653.767C3096.31 693.281 3143 749.091 3174.24 815.388C3205.48 881.685 3220.11 956.047 3216.61 1030.74C3213.12 1105.42 3191.63 1177.71 3154.37 1240.07C3117.12 1302.44 3065.46 1352.6 3004.78 1385.33C2944.1 1418.07 2876.61 1432.19 2809.34 1426.21C2742.06 1420.24 2677.46 1394.4 2622.25 1351.38C2567.05 1308.36 2523.25 1249.73 2495.43 1181.59C2494.58 1179.56 2493.23 1177.85 2491.53 1176.66C2489.82 1175.46 2487.85 1174.83 2485.83 1174.85C2459.88 1174.86 2433.99 1171.93 2408.57 1166.1C2316.15 1144.6 2220.02 1154.6 2132.81 1194.76C2129.88 1196.11 2126.91 1197.39 2123.92 1198.61C2117.13 1201.33 2111.26 1206.3 2107.1 1212.83C2102.93 1219.36 2100.67 1227.14 2100.62 1235.14V1235.63C2100.62 1302.7 2076.58 1367.03 2033.78 1414.46C1990.99 1461.89 1932.95 1488.54 1872.42 1488.55H1872.08V1488.55Z" fill="#CCCCCC"/>
<path id="Vector_3" d="M2036.91 1519.71C2035.9 1519.71 2034.89 1519.7 2033.88 1519.69C1980.49 1518.82 1929.08 1497.24 1888.57 1458.7C1848.06 1420.17 1821.02 1367.11 1812.16 1308.77C1803.31 1250.43 1813.18 1190.49 1840.08 1139.39C1866.98 1088.28 1909.19 1049.24 1959.38 1029.06C1966.05 1026.44 1971.82 1021.59 1975.87 1015.16C1979.93 1008.73 1982.07 1001.06 1982 993.22L1982 992.321C1981.99 972.12 1984.17 951.991 1988.49 932.364C1989.95 926.049 1989.88 919.416 1988.28 913.142C1986.67 906.868 1983.6 901.176 1979.37 896.647C1941.09 856.751 1910.72 808.463 1890.19 754.853C1869.67 701.244 1859.44 643.487 1860.16 585.258C1863.14 357.938 2032.54 173 2237.78 173L2239.62 173.005C2290.66 173.072 2341.15 184.705 2387.98 207.189C2434.81 229.672 2477 262.532 2511.96 303.748C2529.52 324.293 2550.67 340.675 2574.11 351.903C2597.55 363.131 2622.81 368.97 2648.35 369.069L2649.08 371.458L2649.07 369.067L2650.57 369.062C2722.05 369.298 2792.02 391.893 2852.42 434.248C2912.82 476.603 2961.2 536.997 2991.99 608.478C2993.66 612.42 2996.3 615.763 2999.6 618.122C3002.9 620.481 3006.73 621.762 3010.66 621.818L3013.26 621.877C3080.74 623.647 3146.55 645.421 3203.85 684.935C3261.15 724.449 3307.85 780.259 3339.08 846.556C3370.32 912.853 3384.95 987.215 3381.46 1061.9C3377.96 1136.59 3356.47 1208.88 3319.22 1271.24C3281.96 1333.6 3230.31 1383.76 3169.62 1416.5C3108.94 1449.24 3041.45 1463.35 2974.18 1457.38C2906.9 1451.41 2842.3 1425.57 2787.1 1382.55C2731.89 1339.53 2688.1 1280.9 2660.27 1212.76C2659.43 1210.73 2658.07 1209.02 2656.37 1207.82C2654.67 1206.63 2652.69 1206 2650.67 1206.02C2624.72 1206.03 2598.83 1203.1 2573.41 1197.27C2480.99 1175.77 2384.86 1185.76 2297.66 1225.93C2294.72 1227.28 2291.76 1228.56 2288.76 1229.78C2281.98 1232.5 2276.11 1237.46 2271.94 1244C2267.78 1250.53 2265.52 1258.31 2265.46 1266.31V1266.8C2265.46 1333.87 2241.42 1398.2 2198.63 1445.63C2155.83 1493.05 2097.79 1519.7 2037.26 1519.71H2036.91V1519.71Z" fill="#CCCCCC"/>
<path id="Vector_4" d="M2533.06 1958.99C2582.02 1947.4 2606.35 1858.42 2587.42 1760.26C2568.48 1662.09 2513.45 1591.91 2464.5 1603.51C2415.54 1615.1 2391.21 1704.08 2410.14 1802.25C2429.07 1900.41 2484.11 1970.59 2533.06 1958.99Z" fill="#CCCCCC"/>
<path id="Vector_5" d="M2580.79 1867.35C2580.79 1906.97 2577.7 1986.92 2541.94 1986.92C2506.18 1986.92 2451.3 1906.97 2451.3 1867.35C2451.3 1848.32 2458.12 1830.07 2470.26 1816.61C2482.4 1803.16 2498.87 1795.6 2516.04 1795.6C2533.21 1795.6 2549.68 1803.16 2561.82 1816.61C2573.97 1830.07 2580.79 1848.32 2580.79 1867.35Z" fill="#E6E6E6"/>
<path id="Vector_6" d="M2530.51 1904.82C2528.59 1905.96 2526.34 1906.21 2524.25 1905.51C2522.16 1904.82 2520.41 1903.23 2519.38 1901.1C2519.23 1900.8 2519.2 1900.44 2519.29 1900.11C2519.38 1899.78 2519.59 1899.51 2519.86 1899.35C2520.13 1899.18 2520.45 1899.15 2520.75 1899.25C2521.05 1899.34 2521.3 1899.57 2521.45 1899.87C2522.18 1901.39 2523.44 1902.53 2524.93 1903.02C2526.42 1903.52 2528.03 1903.34 2529.4 1902.53C2530.77 1901.71 2531.8 1900.32 2532.25 1898.67C2532.7 1897.02 2532.54 1895.23 2531.8 1893.71C2531.66 1893.41 2531.63 1893.05 2531.72 1892.72C2531.81 1892.4 2532.01 1892.12 2532.28 1891.96C2532.56 1891.79 2532.88 1891.76 2533.18 1891.86C2533.47 1891.95 2533.72 1892.18 2533.87 1892.48C2534.9 1894.61 2535.13 1897.11 2534.5 1899.42C2533.87 1901.73 2532.43 1903.68 2530.51 1904.82Z" fill="white"/>
<path id="Vector_7" d="M2521.9 1885.67C2526.48 1882.95 2529.42 1879.16 2528.48 1877.21C2527.53 1875.26 2523.06 1875.89 2518.49 1878.61C2513.91 1881.33 2510.97 1885.12 2511.91 1887.07C2512.86 1889.02 2517.33 1888.39 2521.9 1885.67Z" fill="white"/>
<path id="Vector_8" d="M2473.28 1888.97C2473.9 1885.65 2475.17 1882.51 2477 1879.79C2478.83 1877.07 2481.18 1874.83 2483.88 1873.23C2486.57 1871.62 2489.56 1870.69 2492.62 1870.5C2495.68 1870.32 2498.73 1870.88 2501.58 1872.14C2503.01 1867.3 2503.11 1862.09 2501.87 1857.19C2500.63 1852.28 2498.1 1847.89 2494.61 1844.57C2491.12 1841.25 2486.82 1839.16 2482.25 1838.55C2477.68 1837.94 2473.06 1838.84 2468.95 1841.15C2464.85 1843.45 2461.46 1847.06 2459.2 1851.5C2456.95 1855.94 2455.93 1861.02 2456.29 1866.11C2456.64 1871.19 2458.34 1876.04 2461.18 1880.05C2464.02 1884.06 2467.87 1887.04 2472.24 1888.63V1888.63C2472.59 1888.75 2472.93 1888.87 2473.28 1888.97Z" fill="white"/>
<path id="Vector_9" d="M2480.22 1879.62C2484.64 1879.62 2488.22 1875.65 2488.22 1870.75C2488.22 1865.86 2484.64 1861.89 2480.22 1861.89C2475.81 1861.89 2472.22 1865.86 2472.22 1870.75C2472.22 1875.65 2475.81 1879.62 2480.22 1879.62Z" fill="#3F3D56"/>
<path id="Vector_10" d="M2528.65 1857.07C2529.27 1853.75 2530.54 1850.61 2532.37 1847.89C2534.2 1845.17 2536.55 1842.93 2539.25 1841.32C2541.95 1839.72 2544.93 1838.79 2547.99 1838.6C2551.05 1838.42 2554.11 1838.98 2556.95 1840.24C2558.38 1835.4 2558.48 1830.19 2557.24 1825.28C2556 1820.38 2553.48 1815.99 2549.98 1812.67C2546.49 1809.35 2542.19 1807.25 2537.62 1806.65C2533.06 1806.04 2528.43 1806.94 2524.33 1809.25C2520.23 1811.55 2516.83 1815.15 2514.58 1819.6C2512.32 1824.04 2511.31 1829.12 2511.66 1834.2C2512.01 1839.29 2513.72 1844.14 2516.56 1848.15C2519.4 1852.16 2523.25 1855.14 2527.62 1856.73V1856.73C2527.96 1856.85 2528.3 1856.96 2528.65 1857.07Z" fill="white"/>
<path id="Vector_11" d="M2538.54 1847.22C2542.95 1847.22 2546.54 1843.25 2546.54 1838.36C2546.54 1833.46 2542.95 1829.49 2538.54 1829.49C2534.12 1829.49 2530.54 1833.46 2530.54 1838.36C2530.54 1843.25 2534.12 1847.22 2538.54 1847.22Z" fill="#3F3D56"/>
<path id="Vector_12" d="M2578.68 1837.74L2551.37 1868.59L2554.12 1871.58L2581.44 1840.74L2578.68 1837.74Z" fill="white"/>
<path id="Vector_13" d="M2587.36 1852.67L2554.36 1875.69L2556.42 1879.31L2589.42 1856.29L2587.36 1852.67Z" fill="white"/>
<path id="Vector_14" d="M2492.77 1903.43L2454.48 1911.6L2455.21 1915.8L2493.5 1907.63L2492.77 1903.43Z" fill="white"/>
<path id="Vector_15" d="M2496.46 1910.12L2460.9 1927.87L2462.49 1931.77L2498.04 1914.02L2496.46 1910.12Z" fill="white"/>
<path id="Vector_16" d="M2575.8 1937.01C2586.3 1937.01 2594.82 1927.57 2594.82 1915.93C2594.82 1904.29 2586.3 1894.85 2575.8 1894.85C2565.29 1894.85 2556.78 1904.29 2556.78 1915.93C2556.78 1927.57 2565.29 1937.01 2575.8 1937.01Z" fill="#CCCCCC"/>
<path id="Vector_17" d="M2519.16 1974.67C2529.67 1974.67 2538.18 1965.23 2538.18 1953.59C2538.18 1941.95 2529.67 1932.51 2519.16 1932.51C2508.66 1932.51 2500.14 1941.95 2500.14 1953.59C2500.14 1965.23 2508.66 1974.67 2519.16 1974.67Z" fill="#CCCCCC"/>
<path id="Vector_18" d="M2516.04 1771.68C2507.41 1766.9 2502.73 1802.49 2502.73 1802.49H2523.08C2523.08 1802.49 2524.68 1776.47 2516.04 1771.68Z" fill="#E6E6E6"/>
<path id="Vector_19" d="M2447.36 1804.1C2438.89 1809.23 2462.59 1833.79 2462.59 1833.79L2474.2 1815.28C2474.2 1815.28 2455.83 1798.97 2447.36 1804.1Z" fill="#E6E6E6"/>
</g>
<g id="woman">
<path id="Vector_20" d="M828.117 2279.09C822.148 2266.16 818.706 2251.87 818.033 2237.24C817.36 2222.6 819.473 2207.97 824.221 2194.38C828.97 2180.79 836.24 2168.57 845.518 2158.57C854.797 2148.58 865.859 2141.06 877.925 2136.54L884.282 1780.34L1016.19 1885.43L989.926 2207.58C995.151 2231.5 992.6 2256.81 982.755 2278.71C972.91 2300.61 956.456 2317.57 936.511 2326.39C916.566 2335.2 894.515 2335.26 874.537 2326.54C854.559 2317.83 838.043 2300.94 828.116 2279.09H828.117Z" fill="#A0616A"/>
<path id="Vector_21" d="M973.968 907.504L844.856 2029.28L1000.29 2036.05L1130.18 858.467L1099.01 837.212C1087.15 829.126 1073.74 824.559 1059.98 823.921C1046.22 823.282 1032.53 826.592 1020.15 833.553C1007.77 840.515 997.069 850.912 989.01 863.816C980.951 876.72 975.783 891.729 973.968 907.504V907.504Z" fill="#4592AF"/>
<path id="Vector_22" d="M1386.04 3913.69L1491.81 3913.68L1542.14 3442.22L1386.02 3442.23L1386.04 3913.69Z" fill="#A0616A"/>
<path id="Vector_23" d="M1695.81 4027.17L1363.38 4027.19L1363.37 3878.77L1567.37 3878.76C1601.43 3878.76 1634.1 3894.39 1658.19 3922.22C1682.28 3950.06 1695.81 3987.81 1695.81 4027.17V4027.17Z" fill="#2F2E41"/>
<path id="Vector_24" d="M505.987 3767.61L601.971 3818.96L819.046 3415.56L677.378 3339.77L505.987 3767.61Z" fill="#A0616A"/>
<path id="Vector_25" d="M745.828 4020.99L444.152 3859.61L498.111 3724.92L683.23 3823.95C714.142 3840.49 738.104 3870.54 749.844 3907.49C761.583 3944.44 760.139 3985.27 745.828 4020.99V4020.99V4020.99Z" fill="#2F2E41"/>
<path id="Vector_26" d="M1496.93 3814.07C1495.38 3814.07 1493.83 3813.97 1492.3 3813.76L1408.61 3802.38C1399.81 3801.14 1391.64 3796.47 1385.43 3789.15C1379.23 3781.82 1375.38 3772.28 1374.5 3762.08L1274.04 2544.32C1273.78 2541.14 1272.64 2538.14 1270.8 2535.76C1268.95 2533.38 1266.49 2531.74 1263.79 2531.1C1261.08 2530.45 1258.26 2530.82 1255.75 2532.15C1253.24 2533.49 1251.16 2535.72 1249.83 2538.52L690.913 3708.67C686.71 3717.53 680.035 3724.48 671.976 3728.39C663.916 3732.31 654.947 3732.95 646.53 3730.22L552.52 3700.04C547.445 3698.41 542.71 3695.61 538.602 3691.81C534.494 3688 531.1 3683.26 528.626 3677.89C526.153 3672.52 524.651 3666.62 524.213 3660.56C523.775 3654.49 524.41 3648.39 526.079 3642.62C607.953 3359.53 1018.15 1940.72 1053.22 1810.13C1095.13 1654.1 1407.95 1592.61 1434.9 1587.6L1450.39 1569.7L1453.37 1574.34C1591.44 1789.13 1658.26 2073.6 1641.5 2375.35L1641.49 2375.46L1535.51 3773.12C1534.66 3784.27 1530.23 3794.66 1523.09 3802.24C1515.96 3809.82 1506.62 3814.04 1496.93 3814.07V3814.07Z" fill="#2F2E41"/>
<path id="Vector_27" d="M1056.06 652.041C1173.09 652.041 1267.96 542.406 1267.96 407.164C1267.96 271.922 1173.09 162.288 1056.06 162.288C939.022 162.288 844.148 271.922 844.148 407.164C844.148 542.406 939.022 652.041 1056.06 652.041Z" fill="#A0616A"/>
<path id="Vector_28" d="M1066.87 1772.61L941.129 1015.26C930.608 951.286 941.523 885.079 971.663 830.054C1001.8 775.029 1048.91 735.298 1103.45 718.91C1137.16 708.781 1172.62 709.464 1206.02 720.887C1239.41 732.309 1269.48 754.038 1292.99 783.735C1357.17 864.698 1438.69 982.519 1462.61 1084.07C1482.86 1170.28 1539.84 1493.3 1540.41 1496.55L1540.86 1499.12L1539.29 1501.01C1538.99 1501.37 1508.46 1537.83 1460.94 1583.34C1433.06 1610.04 1404.56 1634.83 1376.23 1657.01C1296.7 1719.07 1080.3 1769.51 1071.13 1771.63L1066.87 1772.61Z" fill="#4592AF"/>
<path id="Vector_29" opacity="0.2" d="M1373.81 1652.89C1405.38 1628.16 1434.03 1602.64 1458.19 1579.5C1449.48 1430.55 1259.58 1118.69 1182.62 1118.69C1182.62 1118.69 1164.41 1599.34 1373.81 1652.89Z" fill="black"/>
<path id="Vector_30" d="M1764.68 2044.08C1752.76 2039.09 1741.93 2031.13 1732.95 2020.78C1723.98 2010.42 1717.08 1997.91 1712.73 1984.14C1708.39 1970.37 1706.72 1955.67 1707.83 1941.07C1708.94 1926.47 1712.8 1912.32 1719.15 1899.64L1517.62 1630.01L1676.49 1606.11L1843.52 1865.82C1861.25 1879.56 1874.01 1900.34 1879.38 1924.23C1884.74 1948.11 1882.34 1973.44 1872.62 1995.41C1862.9 2017.39 1846.55 2034.48 1826.65 2043.45C1806.76 2052.42 1784.71 2052.65 1764.68 2044.08H1764.68Z" fill="#A0616A"/>
<path id="Vector_31" d="M1201.24 735.084C1210.01 735.293 1218.76 736.45 1227.35 738.539C1244.74 743.133 1260.87 752.642 1274.3 766.214C1287.73 779.787 1298.03 796.998 1304.29 816.305L1553.44 1417.79L1820.9 1746.8L1687.17 1871.43L1264.41 1432.74L1095.51 901.521C1090.12 882.338 1088.75 861.946 1091.53 842.032C1094.3 822.117 1101.13 803.25 1111.46 786.99C1121.79 770.73 1135.32 757.543 1150.93 748.517C1166.54 739.492 1183.78 734.887 1201.24 735.084V735.084Z" fill="#4592AF"/>
<path id="Vector_32" d="M1043.51 649.786C1013.35 597.619 989.552 525.284 1022.76 475.649C1055.53 426.654 1120.18 433.872 1170.38 412.192C1240.3 381.996 1280.85 287.074 1268.21 202.066C1255.56 117.057 1196.51 46.5874 1126.16 17.7538C1055.81 -11.0798 976.48 -1.70264 907.59 31.5014C822.785 72.3759 750.037 151.445 719.532 251.604C689.026 351.764 705.334 472.025 768.617 549.009C836.465 631.545 942.946 653.541 1041.45 652.207" fill="#2F2E41"/>
<path id="Vector_33" d="M710.75 361.054C702.117 416.797 649.2 448.457 600.567 455.416C551.934 462.374 501.625 453.452 454.281 468.068C370.814 493.835 315.764 586.594 285.463 680.087C255.162 773.58 241.725 874.487 202.356 963.354C162.987 1052.22 86.6528 1130.57 0.559326 1122.26C17.4253 1171.32 46.9815 1213.18 85.1952 1242.13C123.409 1271.07 168.419 1285.68 214.084 1283.97C259.749 1282.26 303.846 1264.31 340.357 1232.56C376.867 1200.82 404.015 1156.84 418.094 1106.61C449.722 993.778 413.416 859.221 468.726 759.314C499.332 704.029 552.182 671.51 603.141 642.535C654.1 613.56 707.586 583.818 741.752 531.392C775.918 478.965 782.745 396.168 740.641 352.122" fill="#2F2E41"/>
</g>
<g id="mist_2" opacity="0.6">
<g id="cloud_3">
<path id="Vector_34" d="M380.1 1507.55C389.664 1403.57 468.996 1305.64 601.733 1233.95C734.47 1162.27 910.49 1122.31 1093.49 1122.31C1115.2 1122.31 1136.64 1122.95 1157.86 1124.03C1241.31 1042.34 1360.97 974.537 1504.88 927.393C1648.8 880.248 1811.93 855.413 1977.99 855.369C2144.05 855.324 2307.23 880.071 2451.22 927.138C2595.21 974.205 2714.98 1041.94 2798.57 1123.59C2816.47 1122.83 2834.49 1122.31 2852.74 1122.31C3035.73 1122.31 3211.75 1162.27 3344.49 1233.95C3477.23 1305.64 3556.56 1403.57 3566.12 1507.55" fill="#F2F2F2"/>
<path id="Vector_35" d="M523.976 1478.19C533.54 1374.2 612.872 1276.27 745.609 1204.59C878.346 1132.91 1054.37 1092.94 1237.37 1092.94C1259.08 1092.94 1280.52 1093.59 1301.73 1094.66C1385.19 1012.97 1504.84 945.168 1648.76 898.024C1792.67 850.879 1955.81 826.045 2121.87 826C2287.93 825.955 2451.1 850.702 2595.09 897.769C2739.09 944.836 2858.86 1012.58 2942.45 1094.22C2960.35 1093.46 2978.37 1092.94 2996.61 1092.94C3179.61 1092.94 3355.63 1132.91 3488.37 1204.59C3621.1 1276.27 3700.44 1374.2 3710 1478.19" stroke="#3F3D56" stroke-miterlimit="10"/>
</g>
<g id="cloud_2">
<path id="Vector_36" d="M235.801 3953.07C254.648 3705.23 557.506 3508.2 928.369 3508.2C949.447 3508.2 970.26 3508.95 990.859 3510.19C1071.87 3415.86 1188.04 3337.56 1327.75 3283.12C1467.47 3228.67 1625.84 3200 1787.05 3199.94C1948.27 3199.89 2106.68 3228.47 2246.47 3282.82C2386.26 3337.17 2502.54 3415.4 2583.68 3509.68C2601.06 3508.8 2618.56 3508.2 2636.27 3508.2C3007.13 3508.2 3309.99 3705.23 3328.84 3953.07" fill="#F2F2F2"/>
<path id="Vector_37" d="M380.401 3917.13C399.248 3669.29 702.107 3472.26 1072.97 3472.26C1094.05 3472.26 1114.86 3473 1135.46 3474.25C1216.47 3379.91 1332.64 3301.61 1472.35 3247.17C1612.07 3192.73 1770.44 3164.05 1931.66 3164C2092.87 3163.95 2251.28 3192.53 2391.07 3246.88C2530.86 3301.23 2647.14 3379.45 2728.28 3473.74C2745.66 3472.85 2763.16 3472.26 2780.87 3472.26C3151.73 3472.26 3454.59 3669.29 3473.44 3917.13" stroke="#3F3D56" stroke-miterlimit="10"/>
</g>
<g id="cloud_1">
<path id="Vector_38" d="M201 2574.15C205.193 2513.99 239.974 2457.34 298.17 2415.87C356.365 2374.41 433.537 2351.29 513.768 2351.29C523.287 2351.29 532.687 2351.66 541.989 2352.28C578.576 2305.03 631.038 2265.8 694.133 2238.53C757.229 2211.26 828.751 2196.89 901.556 2196.86C974.362 2196.84 1045.9 2211.15 1109.03 2238.38C1172.16 2265.61 1224.67 2304.8 1261.32 2352.03C1269.17 2351.59 1277.07 2351.29 1285.07 2351.29C1365.3 2351.29 1442.47 2374.41 1500.67 2415.87C1558.86 2457.34 1593.64 2513.99 1597.84 2574.15" fill="#F2F2F2"/>
<path id="Vector_39" d="M264.867 2617.11C269.051 2547.1 303.758 2481.16 361.829 2432.9C419.901 2384.64 496.909 2357.73 576.969 2357.73C586.468 2357.73 595.848 2358.16 605.13 2358.89C641.64 2303.89 693.989 2258.23 756.951 2226.49C819.913 2194.75 891.282 2178.03 963.933 2178C1036.58 2177.97 1107.97 2194.63 1170.97 2226.32C1233.96 2258.01 1286.36 2303.62 1322.93 2358.59C1330.76 2358.08 1338.65 2357.73 1346.63 2357.73C1426.69 2357.73 1503.7 2384.64 1561.77 2432.9C1619.84 2481.16 1654.55 2547.1 1658.73 2617.11" stroke="#3F3D56" stroke-miterlimit="10"/>
</g>
</g>
</g>
<defs>
<clipPath id="clip0_26_1212">
<rect width="3550" height="4028" fill="white"/>
</clipPath>
</defs>
</svg>
