<svg width="860" height="633" viewBox="0 0 860 633" fill="none" xmlns="http://www.w3.org/2000/svg">
<g id="Frame" clip-path="url(#clip0_1_2)">
<path id="Path 449" d="M797.498 630.205C786.905 629.765 777.254 625.49 772.888 618.867C772.684 618.557 772.492 618.243 772.311 617.924C770.717 615.102 770.219 611.858 771.962 609.077C773.705 606.296 778.062 604.184 782.43 604.623C786.798 605.062 790.215 608.549 788.406 611.309C788.006 605.731 787.671 599.87 792.168 595.015C794.644 592.478 797.873 590.809 801.375 590.257C810.437 588.663 816.453 593.787 817.658 598.957C818.547 602.776 817.319 606.657 816.096 610.436C819.865 605.979 828.828 603.996 835.696 606.101C842.564 608.206 846.369 614.101 844.024 619.001C841.261 624.765 832.05 627.744 823.494 629.319C816.427 630.62 805.833 630.551 797.498 630.205Z" fill="#F2F2F2"/>
<path id="Path 538" d="M62.5089 630.205C73.1019 629.765 82.753 625.49 87.118 618.867C87.3227 618.557 87.515 618.243 87.6949 617.924C89.2889 615.102 89.7869 611.858 88.0439 609.077C86.3009 606.296 81.9439 604.184 77.5759 604.623C73.2079 605.062 69.7899 608.549 71.5999 611.309C71.9999 605.731 72.3349 599.87 67.8379 595.015C65.3626 592.478 62.1333 590.809 58.6319 590.257C49.5699 588.663 43.5539 593.787 42.3489 598.957C41.4599 602.776 42.6879 606.657 43.9109 610.436C40.1419 605.979 31.1789 603.996 24.3109 606.101C17.4429 608.206 13.6369 614.101 15.9829 619.001C18.7459 624.765 27.9569 627.744 36.5129 629.319C43.58 630.62 54.173 630.551 62.5089 630.205Z" fill="#F2F2F2"/>
<path id="Path 525" d="M346.402 108.211C346.368 108.904 346.389 109.599 346.464 110.288L298.852 150.246L284.652 145.105L274.093 165.519L305.136 180.295L357.188 121.884C359.816 122.361 362.527 122.026 364.961 120.925C367.394 119.823 369.435 118.007 370.811 115.717C372.187 113.428 372.833 110.773 372.664 108.107C372.495 105.442 371.518 102.89 369.864 100.793C368.209 98.696 365.956 97.1521 363.402 96.3669C360.849 95.5818 358.117 95.5925 355.57 96.3976C353.023 97.2028 350.782 98.7643 349.144 100.874C347.506 102.985 346.549 105.543 346.401 108.21L346.402 108.211Z" fill="#E3C4A8"/>
<path id="Path 526" d="M282.545 175.312L236.567 158.712C234.477 157.958 232.556 156.799 230.914 155.303C229.271 153.806 227.94 152 226.996 149.989C226.051 147.978 225.512 145.8 225.409 143.58C225.306 141.361 225.642 139.143 226.396 137.052C227.15 134.962 228.309 133.041 229.806 131.399C231.303 129.757 233.108 128.425 235.119 127.481C239.182 125.574 243.835 125.358 248.056 126.881L294.034 143.481C295.441 143.989 296.588 145.035 297.224 146.388C297.86 147.742 297.932 149.293 297.424 150.7L297.424 150.7L289.765 171.921C289.255 173.327 288.209 174.473 286.856 175.109C285.502 175.744 283.952 175.817 282.545 175.311L282.545 175.312Z" fill="#CCCCCC"/>
<path id="Path 527" d="M248.872 336.987H264.238L271.548 277.717H248.87L248.872 336.987Z" fill="#E3C4A8"/>
<path id="Path 528" d="M293.871 351.256L245.578 351.259L245.577 332.6L275.211 332.598C277.661 332.598 280.088 333.081 282.352 334.018C284.615 334.956 286.672 336.33 288.405 338.063C290.138 339.795 291.512 341.852 292.45 344.116C293.388 346.38 293.871 348.806 293.871 351.256V351.256Z" fill="#2F2E41"/>
<path id="Path 529" d="M210.896 317.136L223.466 325.974L263.537 281.695L244.986 268.652L210.896 317.136Z" fill="#E3C4A8"/>
<path id="Path 530" d="M237.986 351.66L198.482 323.891L209.21 308.628L233.452 325.669C235.456 327.077 237.163 328.867 238.476 330.936C239.789 333.005 240.681 335.312 241.102 337.725C241.523 340.139 241.465 342.612 240.93 345.003C240.395 347.394 239.395 349.656 237.986 351.661V351.66Z" fill="#2F2E41"/>
<path id="Path 531" d="M282.495 230.221C282.495 230.221 320.842 225.697 313.959 250.58C307.076 275.463 230.382 296.954 230.382 296.954L282.495 230.221Z" fill="#E3C4A8"/>
<path id="Ellipse 71" d="M256.101 103.25C273.103 103.25 286.885 89.468 286.885 72.4664C286.885 55.4649 273.103 41.6824 256.101 41.6824C239.099 41.6824 225.317 55.4649 225.317 72.4664C225.317 89.468 239.099 103.25 256.101 103.25Z" fill="#E3C4A8"/>
<path id="Path 532" d="M157.928 291.859C140.411 271.459 134.282 240.159 162.216 214.123C169.115 207.851 176.927 202.663 185.384 198.737L207.896 135.774C210.234 129.199 214.522 123.493 220.188 119.418C225.854 115.342 232.627 113.092 239.605 112.966C246.379 112.674 253.078 114.486 258.781 118.154C264.484 121.822 268.912 127.165 271.456 133.45C274.205 139.845 274.52 147.024 272.34 153.634C265.638 174.504 256.836 194.641 246.071 213.734L247.235 223.047L304.142 228.105L303.611 228.968C303.334 229.418 275.483 271.853 239.853 300.02C227.67 309.65 215.073 313.642 203.183 313.641C185.154 313.645 168.756 304.466 157.928 291.859Z" fill="#CCCCCC"/>
<path id="Path 533" d="M152.558 82.1254C158.004 75.6354 160.34 67.1474 162.22 58.8854C165.193 45.8144 167.494 32.2985 174.1 20.6335C180.706 8.96845 192.845 -0.696559 206.23 0.0394411C219.539 0.771441 230.298 11.4784 236.009 23.6604C237.392 23.1238 238.872 22.8834 240.353 22.9549C241.835 23.0264 243.284 23.4081 244.609 24.0754C248.725 26.3294 250.264 32.7364 246.838 35.9444C250.442 34.2286 254.366 33.2904 258.356 33.191C262.346 33.0916 266.312 33.8332 269.997 35.3674C274.735 37.3846 278.825 40.6696 281.817 44.861C284.808 49.0525 286.586 53.988 286.954 59.1244C287.097 61.2091 286.811 63.301 286.113 65.2706C285.415 67.2401 284.32 69.0454 282.896 70.5744C276.99 76.6544 268.636 74.5575 261.208 73.0085C254.192 71.5455 245.647 71.1504 241.694 77.8354C240.137 80.6209 239.7 83.8956 240.475 86.9914C241.989 93.6644 246.93 98.3124 251.723 102.761L252.507 104.217C235.583 107.517 217.107 95.9594 212.663 79.2984C208.219 62.6374 218.503 43.4164 234.825 37.8584C233.738 37.8934 232.662 37.6373 231.708 37.1166C230.753 36.596 229.955 35.8297 229.396 34.8971C228.837 33.9645 228.538 32.8994 228.529 31.8123C228.52 30.7251 228.802 29.6552 229.345 28.7134C224.828 26.1815 219.717 24.9044 214.54 25.0144C206.109 25.5674 198.813 31.5684 194.425 38.7894C190.037 46.0104 188.05 54.3894 186.038 62.5964C184.026 70.8034 181.848 79.1654 177.156 86.1964C173.907 91.0634 169.564 95.1035 164.476 97.9944C159.388 100.885 153.695 102.547 147.85 102.847C142.006 103.147 136.173 102.076 130.815 99.7211C125.458 97.366 120.725 93.7914 116.995 89.2824C122.89 92.141 129.56 92.989 135.982 91.6964C142.405 90.4038 148.228 87.0419 152.558 82.1254V82.1254Z" fill="#33313B"/>
<path id="Vector" d="M390.029 165.866C382.354 165.866 374.851 163.59 368.469 159.326C362.088 155.062 357.114 149.001 354.177 141.91C351.239 134.819 350.471 127.017 351.968 119.489C353.466 111.961 357.162 105.047 362.589 99.6194C368.016 94.1922 374.931 90.4962 382.458 88.9989C389.986 87.5015 397.789 88.27 404.88 91.2072C411.971 94.1443 418.032 99.1183 422.296 105.5C426.56 111.882 428.836 119.385 428.836 127.06C428.824 137.348 424.732 147.212 417.457 154.487C410.181 161.762 400.318 165.855 390.029 165.866ZM390.029 94.721C383.633 94.721 377.381 96.6176 372.063 100.171C366.745 103.724 362.6 108.775 360.152 114.684C357.704 120.593 357.064 127.096 358.312 133.369C359.56 139.642 362.639 145.404 367.162 149.927C371.685 154.449 377.447 157.529 383.72 158.777C389.993 160.025 396.496 159.385 402.405 156.937C408.314 154.489 413.364 150.344 416.918 145.026C420.471 139.708 422.368 133.456 422.368 127.06C422.358 118.486 418.948 110.266 412.885 104.203C406.823 98.1409 398.603 94.7306 390.029 94.721Z" fill="#4592AF"/>
<path id="Vector_2" d="M388.756 78.5516C387.898 78.5516 387.075 78.2108 386.469 77.6044C385.863 76.9979 385.522 76.1754 385.522 75.3177V38.1281C385.522 37.2704 385.862 36.4479 386.469 35.8414C387.075 35.2349 387.898 34.8942 388.756 34.8942C389.613 34.8942 390.436 35.2349 391.042 35.8414C391.649 36.4479 391.99 37.2704 391.99 38.1281V75.3177C391.989 76.1754 391.649 76.9979 391.042 77.6044C390.436 78.2108 389.613 78.5516 388.756 78.5516Z" fill="#4592AF"/>
<path id="Vector_3" d="M338.287 129.021H301.097C300.24 129.021 299.417 128.68 298.811 128.074C298.204 127.467 297.864 126.645 297.864 125.787C297.864 124.929 298.204 124.107 298.811 123.5C299.417 122.894 300.24 122.553 301.097 122.553H338.287C339.145 122.553 339.967 122.894 340.574 123.5C341.18 124.107 341.521 124.929 341.521 125.787C341.521 126.645 341.18 127.467 340.574 128.074C339.967 128.68 339.145 129.021 338.287 129.021H338.287Z" fill="#4592AF"/>
<path id="Vector_4" d="M474.11 129.021H436.92C436.063 129.021 435.24 128.68 434.634 128.074C434.027 127.467 433.686 126.645 433.686 125.787C433.686 124.929 434.027 124.107 434.634 123.5C435.24 122.894 436.063 122.553 436.92 122.553H474.11C474.968 122.553 475.79 122.894 476.397 123.5C477.003 124.107 477.344 124.929 477.344 125.787C477.344 126.645 477.003 127.467 476.397 128.074C475.79 128.68 474.968 129.021 474.11 129.021Z" fill="#4592AF"/>
<path id="Vector_5" d="M435.899 93.6614C435.255 93.6615 434.626 93.4693 434.092 93.1096C433.558 92.7499 433.144 92.239 432.902 91.6424C432.66 91.0458 432.602 90.3905 432.734 89.7606C432.867 89.1306 433.185 88.5546 433.647 88.1064L449.221 72.9965C449.526 72.7 449.886 72.4664 450.281 72.3092C450.676 72.152 451.098 72.0742 451.523 72.0803C451.948 72.0864 452.368 72.1762 452.758 72.3447C453.149 72.5132 453.502 72.757 453.798 73.0621C454.094 73.3673 454.327 73.7278 454.483 74.1231C454.64 74.5184 454.717 74.9407 454.71 75.3657C454.703 75.7908 454.613 76.2104 454.444 76.6005C454.275 76.9905 454.03 77.3434 453.725 77.6389L438.15 92.7487C437.548 93.3352 436.74 93.6627 435.899 93.6614V93.6614Z" fill="#4592AF"/>
<path id="Vector_6" d="M340.926 93.6614C340.085 93.6626 339.277 93.3351 338.674 92.7488L323.1 77.6389C322.794 77.3434 322.55 76.9905 322.381 76.6005C322.211 76.2104 322.121 75.7908 322.114 75.3657C322.107 74.9407 322.184 74.5184 322.341 74.1231C322.497 73.7278 322.73 73.3673 323.026 73.0621C323.322 72.757 323.676 72.5132 324.066 72.3447C324.456 72.1762 324.876 72.0864 325.301 72.0803C325.726 72.0742 326.148 72.152 326.543 72.3092C326.938 72.4664 327.299 72.7 327.603 72.9965L343.177 88.1064C343.639 88.5546 343.957 89.1306 344.09 89.7606C344.223 90.3905 344.165 91.0458 343.923 91.6424C343.681 92.239 343.266 92.7499 342.733 93.1096C342.199 93.4693 341.569 93.6615 340.926 93.6614V93.6614Z" fill="#4592AF"/>
<path id="Vector_7" d="M328.585 182.036C327.95 182.036 327.329 181.848 326.799 181.497C326.269 181.146 325.855 180.646 325.607 180.061C325.36 179.476 325.29 178.83 325.407 178.206C325.524 177.581 325.822 177.005 326.265 176.549L341.839 160.51C342.437 159.896 343.254 159.544 344.112 159.531C344.969 159.519 345.796 159.848 346.411 160.445C347.026 161.042 347.379 161.859 347.392 162.717C347.405 163.574 347.077 164.401 346.48 165.017L330.906 181.055C330.605 181.366 330.244 181.613 329.845 181.781C329.447 181.949 329.018 182.036 328.585 182.036V182.036Z" fill="#4592AF"/>
<path id="Vector_8" d="M454.707 185.27C454.275 185.27 453.848 185.184 453.451 185.017C453.053 184.849 452.693 184.603 452.393 184.294L433.585 165.022C433.287 164.718 433.053 164.358 432.895 163.964C432.736 163.57 432.657 163.148 432.662 162.723C432.667 162.298 432.756 161.878 432.923 161.487C433.091 161.097 433.333 160.743 433.637 160.446C433.942 160.149 434.301 159.915 434.696 159.758C435.091 159.6 435.512 159.522 435.937 159.527C436.362 159.533 436.782 159.622 437.172 159.79C437.563 159.958 437.916 160.201 438.213 160.505L457.021 179.778C457.465 180.233 457.766 180.809 457.884 181.434C458.003 182.059 457.934 182.706 457.687 183.292C457.44 183.878 457.025 184.379 456.495 184.73C455.965 185.082 455.343 185.27 454.707 185.27V185.27Z" fill="#4592AF"/>
<path id="Vector_9" d="M388.756 217.608C387.898 217.608 387.075 217.268 386.469 216.661C385.863 216.055 385.522 215.232 385.522 214.375V177.185C385.522 176.76 385.605 176.34 385.768 175.947C385.93 175.555 386.169 175.199 386.469 174.898C386.769 174.598 387.126 174.36 387.518 174.197C387.91 174.035 388.331 173.951 388.756 173.951C389.18 173.951 389.601 174.035 389.993 174.197C390.386 174.36 390.742 174.598 391.042 174.898C391.343 175.199 391.581 175.555 391.743 175.947C391.906 176.34 391.99 176.76 391.99 177.185V214.375C391.99 215.232 391.649 216.055 391.042 216.661C390.436 217.268 389.613 217.608 388.756 217.608V217.608Z" fill="#4592AF"/>
<path id="Path 536" d="M347.945 151.202C347.62 151.815 347.344 152.452 347.119 153.108L287.036 169.041L276.369 158.352L258.134 172.341L279.953 198.911L351.896 168.163C354.073 169.712 356.669 170.562 359.34 170.599C362.011 170.636 364.63 169.859 366.849 168.371C369.067 166.884 370.781 164.756 371.76 162.271C372.74 159.786 372.941 157.062 372.335 154.46C371.728 151.858 370.345 149.503 368.367 147.707C366.39 145.911 363.913 144.76 361.265 144.406C358.617 144.052 355.924 144.513 353.545 145.727C351.165 146.941 349.212 148.85 347.944 151.201L347.945 151.202Z" fill="#E3C4A8"/>
<path id="Path 537" d="M261.621 184.798L227.058 150.23C225.486 148.66 224.238 146.794 223.387 144.741C222.536 142.688 222.097 140.487 222.097 138.264C222.096 136.042 222.533 133.841 223.384 131.787C224.234 129.733 225.481 127.868 227.052 126.296C228.624 124.724 230.49 123.478 232.544 122.627C234.597 121.777 236.798 121.34 239.021 121.34C241.244 121.341 243.444 121.779 245.498 122.63C247.551 123.482 249.416 124.729 250.987 126.301V126.301L285.552 160.866C286.61 161.924 287.204 163.358 287.204 164.854C287.204 166.349 286.611 167.784 285.553 168.841L285.552 168.842L269.599 184.796C268.54 185.852 267.106 186.445 265.611 186.445C264.115 186.445 262.681 185.852 261.622 184.796L261.621 184.798Z" fill="#CCCCCC"/>
<path id="Vector_10" d="M627.927 632.155H269.844C192.593 632.155 129.744 568.248 129.744 489.697C129.744 411.146 192.593 347.24 269.844 347.24H295.319C309.334 318.664 330.931 294.488 357.751 277.351C384.964 259.952 416.586 250.702 448.886 250.692C538.478 250.692 613.154 321.144 620.104 411.605H627.927C687.785 411.605 736.484 461.074 736.484 521.88C736.484 582.685 687.785 632.155 627.927 632.155ZM269.844 353.24C195.901 353.24 135.744 414.454 135.744 489.697C135.744 564.94 195.901 626.155 269.844 626.155H627.927C684.477 626.155 730.484 579.377 730.484 521.88C730.484 464.382 684.477 417.605 627.927 417.605H614.482L614.31 414.787C608.904 326.136 536.241 256.692 448.886 256.692C385.982 256.692 327.503 293.921 299.903 351.536L299.087 353.24H269.844Z" fill="#33313B"/>
</g>
<defs>
<clipPath id="clip0_1_2">
<rect width="859.113" height="632.68" fill="white"/>
</clipPath>
</defs>
</svg>
