<svg width="1488" height="1062" fill="none" xmlns="http://www.w3.org/2000/svg">
  <g id="NIGHT" clip-path="url(#clip0_67_2358)">
    <path fill="#fff" d="M0 0h1488v1062H0z"/>
    <path id="night_sky" fill="#33313B" d="M0 0h1488v1062H0z"/>
    <g id="small_tree">
      <path id="Vector" d="M705.5 862.054c40.04 0 72.5-30.943 72.5-69.114 0-38.169-32.46-69.112-72.5-69.112S633 754.771 633 792.94c0 38.171 32.46 69.114 72.5 69.114Z" fill="#4592AF"/>
      <path id="Vector_2" opacity=".2" d="M651.969 746.778c-6.763 15.081-7.68 31.961-2.588 47.626 5.091 15.666 15.86 29.095 30.382 37.888 14.522 8.793 31.851 12.377 48.89 10.111s32.679-10.233 44.123-22.477c-4.131 9.212-10.315 17.459-18.121 24.168-7.806 6.71-17.05 11.721-27.089 14.686a75.913 75.913 0 0 1-31.054 2.489c-10.419-1.326-20.411-4.793-29.283-10.165-8.872-5.374-16.413-12.52-22.1-20.945-5.687-8.427-9.385-17.932-10.837-27.854a66.05 66.05 0 0 1 2.429-29.617c3.054-9.589 8.256-18.428 15.248-25.91Z" fill="#000"/>
      <path id="Vector_3" d="M706.001 795h.209l3.79 267h-8l4.001-267Z" fill="#4592AF"/>
    </g>
    <g id="middle_tree">
      <path id="Vector_4" d="M477.587 799.87c52.143 0 94.413-41.007 94.413-91.593 0-50.584-42.27-91.591-94.413-91.591-52.142 0-94.413 41.007-94.413 91.591 0 50.586 42.271 91.593 94.413 91.593Z" fill="#4592AF"/>
      <path id="Vector_2_2" opacity=".2" d="M407.876 647.101c-8.807 19.986-10.001 42.355-3.371 63.116 6.631 20.761 20.655 38.558 39.566 50.211 18.911 11.653 41.478 16.403 63.667 13.4 22.188-3.003 42.556-13.562 57.458-29.789-5.379 12.209-13.432 23.139-23.597 32.029-10.166 8.892-22.204 15.534-35.277 19.463a97.226 97.226 0 0 1-40.441 3.299c-13.567-1.757-26.579-6.353-38.133-13.472-11.554-7.121-21.373-16.591-28.779-27.757-7.406-11.167-12.221-23.764-14.112-36.913a88.996 88.996 0 0 1 3.163-39.251c3.976-12.707 10.751-24.421 19.856-34.336Z" fill="#000"/>
      <path id="Vector_3_2" d="M478.001 710h.262L483 1062h-10l5.001-352Z" fill="#4592AF"/>
    </g>
    <g id="big_tree">
      <path id="Vector_4_2" d="M197.608 604.686c108.031 0 195.607-86.8 195.607-193.872 0-107.071-87.576-193.869-195.607-193.869C89.576 216.945 2 303.743 2 410.814c0 107.072 87.576 193.872 195.608 193.872Z" fill="#4592AF"/>
      <path id="Vector_5" opacity=".2" d="M53.178 281.325a192.283 192.283 0 0 0-6.984 133.598c13.738 43.942 42.793 81.613 81.974 106.277 39.181 24.667 85.936 34.721 131.907 28.366 45.973-6.355 88.166-28.704 119.042-63.054-11.146 25.844-27.828 48.978-48.889 67.797-21.062 18.82-46.002 32.877-73.089 41.196a197.29 197.29 0 0 1-83.784 6.984 196.761 196.761 0 0 1-79.003-28.519c-23.938-15.071-44.284-35.117-59.628-58.752a192.832 192.832 0 0 1-29.237-78.134 192.241 192.241 0 0 1 6.555-83.081c8.234-26.894 22.27-51.693 41.136-72.678Z" fill="#000"/>
      <path id="Vector_6" d="M198.499 413h.554L209 1062h-21l10.499-649Z" fill="#4592AF"/>
    </g>
    <g id="stars" fill="#F6F5F5">
      <path id="Vector_7" d="M932.212 89a5 5 0 1 0 0-10 5 5 0 0 0 0 10Z"/>
      <path id="Vector_8" d="M848 210.544a2 2 0 1 0 .001-3.999 2 2 0 0 0-.001 3.999Z"/>
      <path id="Vector_9" d="M1143 304.544c1.1 0 2-.895 2-2s-.9-2-2-2-2 .895-2 2 .9 2 2 2Z"/>
      <path id="Vector_10" d="M747 293a2 2 0 1 0 .001-3.999A2 2 0 0 0 747 293Z"/>
      <path id="Vector_11" d="M1402 208.544c1.1 0 2-.895 2-2s-.9-2-2-2-2 .895-2 2 .9 2 2 2Z"/>
      <path id="Vector_12" d="M792 251a2 2 0 1 0 .001-3.999A2 2 0 0 0 792 251Z"/>
      <path id="Vector_13" d="M1088 189.544c1.1 0 2-.895 2-2s-.9-2-2-2-2 .895-2 2 .9 2 2 2Z"/>
      <path id="Vector_14" d="M1069.21 89c1.11 0 2-.895 2-2s-.89-2-2-2c-1.1 0-2 .895-2 2s.9 2 2 2Z"/>
      <path id="Vector_15" d="M983.212 690a5 5 0 1 0 0-10 5 5 0 0 0 0 10Z"/>
      <path id="Vector_16" d="M899 811.544a2 2 0 1 0 .001-3.999 2 2 0 0 0-.001 3.999Z"/>
      <path id="Vector_17" d="M1194 905.544c1.1 0 2-.895 2-2s-.9-2-2-2-2 .895-2 2 .9 2 2 2Z"/>
      <path id="Vector_18" d="M593 982a2 2 0 1 0 .001-3.999A2 2 0 0 0 593 982Z"/>
      <path id="Vector_19" d="M636 303a2 2 0 1 0 .001-3.999A2 2 0 0 0 636 303Z"/>
      <path id="Vector_20" d="M297 670a2 2 0 1 0 .001-3.999A2 2 0 0 0 297 670Z"/>
      <path id="Vector_21" d="M1139 790.544c1.1 0 2-.895 2-2s-.9-2-2-2-2 .895-2 2 .9 2 2 2Z"/>
      <path id="Vector_22" d="M285 791a2 2 0 1 0 .001-3.999A2 2 0 0 0 285 791Z"/>
      <path id="Vector_23" d="M483 179a5 5 0 1 1 .001-10.001A5 5 0 0 1 483 179Z"/>
      <path id="Vector_24" d="M1091 476.544c-1.1 0-2-.895-2-2s.9-2 2-2 2 .895 2 2-.9 2-2 2Z"/>
      <path id="Vector_25" d="M796 570.544a2 2 0 1 1-.001-3.999 2 2 0 0 1 .001 3.999Z"/>
      <path id="Vector_26" d="M1317 545.544c-1.1 0-2-.895-2-2s.9-2 2-2 2 .895 2 2-.9 2-2 2Z"/>
      <path id="Vector_27" d="M537 474.544a2 2 0 1 1-.001-3.999 2 2 0 0 1 .001 3.999Z"/>
      <path id="Vector_28" d="M1335 93c-1.1 0-2-.895-2-2s.9-2 2-2 2 .895 2 2-.9 2-2 2Z"/>
      <path id="Vector_29" d="M223 79a2 2 0 1 1 0-4 2 2 0 0 1 0 4Z"/>
      <path id="Vector_30" d="M869.788 355a2 2 0 1 1-.001-3.999 2 2 0 0 1 .001 3.999Z"/>
    </g>
    <g id="right_element_night">
      <path id="Vector_31" opacity=".1" d="M1361.81 1005.11c2.7 0 5.29-1.17 7.2-3.26 1.92-2.089 2.99-4.921 2.99-7.874 0-2.954-1.07-5.786-2.99-7.874-1.91-2.088-4.5-3.262-7.2-3.262H1278c2.7 5.907 3.15 12.745 1.24 19.01-1.92 6.26-6.03 11.44-11.43 14.4 0 2.95 1.07 5.78 2.98 7.87s4.51 3.26 7.21 3.26h83.81c2.7 0 5.29-1.17 7.2-3.26 1.92-2.09 2.99-4.92 2.99-7.87 0-2.96-1.07-5.79-2.99-7.88-1.91-2.09-4.5-3.26-7.2-3.26Z" fill="#F6F5F5"/>
      <path id="Vector_32" d="M1162.62 982.135c1.43 60.725-32.2 45.245-72.96 45.245-40.76 0-74.38 7.74-74.66-45.245-.13-26.092 33.29-31.767 74.05-31.767s72.95 5.683 73.57 31.767Z" fill="#3F3D56"/>
      <path id="Vector_33" d="M1257.98 1006.13c-.66-.38-1.38-.63-2.12-.74-3.69-.64-7.36-1.5-10.97-2.56-3.64-1.08-6.97-3.106-9.72-5.909a25.086 25.086 0 0 0-3.42-3.581 3.95 3.95 0 0 0-2.19-.896 3.848 3.848 0 0 0-2.28.546c-.14.123-.27.26-.39.41-.51-.366-1.01-.73-1.52-1.095-2.7-1.94-5.41-3.858-8.13-5.754l-.11-.077c.08-.467.08-.946.01-1.414-.48-1.538-1.44-2.842-2.72-3.676 3.52-.037 7.05-.388 10.54-.791 3.33.062 6.55-1.311 8.95-3.821.36-.436.58-.992.63-1.579 0-1.203-1.14-1.989-2.15-2.444a20.4 20.4 0 0 0-4.21-1.355c-1-.155-2-.382-2.98-.68-.87-.346-1.71-.78-2.51-1.295l-5.19-3.123a7.881 7.881 0 0 1-2.01-1.523c-.88-1.02-1.27-2.461-2.17-3.463-.83-.923-4.18-2.139-4.66-.247-.19.747.54 1.574.62 2.409a35 35 0 0 0-3.59-2.157c.07-.167.15-.319.21-.492-5.74-5.032-10.31-11.489-13.31-18.835.51.013 1.02.049 1.54.044.88.088 1.75-.146 2.49-.666.31-.303.55-.678.7-1.097.15-.419.22-.87.19-1.32a8.896 8.896 0 0 0-.6-2.605 20.298 20.298 0 0 0-3.45-6.757 20.625 20.625 0 0 0-5.05-3.92l-.3-.184c-.12-.418-.24-.84-.39-1.248a67.615 67.615 0 0 0-3.79-7.363 51.014 51.014 0 0 1-4.33-12.603 17.113 17.113 0 0 0-2.73-7.413c-2.71-3.254-7.34-3.172-11.34-2.68-2.28.281-4.55.656-6.82 1.041-.02-.062-.02-.131-.04-.192a5.307 5.307 0 0 1-.53-1.879c.06-.537.17-1.067.32-1.58.13-.638.1-1.298-.07-1.921a4.007 4.007 0 0 0-.92-1.645c-.09-.098-.18-.21-.28-.318.25-.643.48-1.293.69-1.947.19-.242.33-.523.41-.826.09-.303.12-.622.09-.938.41-1.585.63-3.224.64-4.872a58.536 58.536 0 0 1-.35-10.994 6.459 6.459 0 0 0-.89-2.541c-.08-.122-.22-.178-.31-.287.69-1 1.48-1.905 2.37-2.695a35.42 35.42 0 0 1 5.58-3.862c.47-.283 1.13-.484 1.58-.808.68.127 1.38.204 2.08.23 2.6.017 5.16-.661 7.46-1.974s4.27-3.221 5.74-5.558a18.289 18.289 0 0 0 2.69-7.85c.3-2.818-.04-5.672-.98-8.313a5.473 5.473 0 0 0 1.99-1.017 6.052 6.052 0 0 0 1.48-1.782 12.313 12.313 0 0 0 1.36-4.82c.12-.651.13-1.324.01-1.977a5.149 5.149 0 0 0-.68-1.833 7.692 7.692 0 0 0-2.03-1.55 8.17 8.17 0 0 1-2.52-2.795c-.45-.808-.77-1.691-1.18-2.526a9.14 9.14 0 0 0-3.01-3.812 8.117 8.117 0 0 0-4.39-1.551c-1.49.206-2.96.527-4.41.959-4.96.95-10.35-1.916-14.95.319a14.112 14.112 0 0 0-3.13 2.279 57.64 57.64 0 0 0-3.73 3.688c-1.04.966-1.82 2.215-2.28 3.619-.62 2.564.86 5.429-.08 7.873-.33.699-.71 1.362-1.16 1.978-1.04 1.673.09 8.201-.02 10.221-.13.989.1 1.996.64 2.8.14.152.29.283.47.388a197.728 197.728 0 0 0-22.6 10.492c-8.81 4.654-16.12 12.114-20.97 21.397-1.24 2.652-2.19 5.458-3.32 8.174-1.5 3.621-3.32 7.075-5.13 10.521-2.22 4.204-4.43 8.415-6.99 12.378a72.275 72.275 0 0 0-4.05 6.553c-.03.331-.04.663-.03.994.05.313.02.635-.08.931a1.32 1.32 0 0 1-.42.421c-.17.104-.36.167-.55.185l-.06.17a62.175 62.175 0 0 0-1.43 6.197c-.76 3.324-1.96 6.532-2.43 9.92a2.844 2.844 0 0 0-.06 2.904c.25.438.61.786 1.04 1 .43.215.91.286 1.38.207 2.65 1.289 5.21 2.799 7.76 4.321-.04.205-.1.401-.12.61-.09 2.155.39 4.292 1.37 6.164.98 1.872 2.43 3.402 4.17 4.414 3.52 1.962 7.37 3.106 11.31 3.358 1.53.2 3.06.293 4.59.464a30.085 30.085 0 0 0 7.08 3.134c.54.171 1.1.266 1.66.283a4.772 4.772 0 0 0 2.14-.696 5.253 5.253 0 0 0 1.65-1.635c13.17.795 26.38.501 39.51-.881 3.63-.924 7.45-.277 10.66 1.806 2.85 2.529 3.42 7.011 5.54 10.287 1.54 2.02 3.26 3.86 5.15 5.491a83.254 83.254 0 0 1 9.89 14.204c2.86 5.156 6.99 9.323 11.92 12.024.89-1.551 2.18-2.775 3.7-3.52.4-.257.77-.556 1.16-.831.52.923 1.13 1.787 1.81 2.576.5.599 1.01 1.235 1.48 1.885-.01 0-.02-.01-.04 0-.69.11-.92 1.06-1 1.81-.3 2.9-.61 5.81-.91 8.71-.11.57-.07 1.16.11 1.72.32.6.83 1.05 1.43 1.3 2.46 1.29 5.13 2.06 7.86 2.26 1.37.1 2.75.06 4.12.19 2.25.32 4.47.81 6.66 1.45a57.304 57.304 0 0 0 18.16 1.56c1.26-.04 2.5-.29 3.68-.76 1.4-.74 2.64-1.78 3.64-3.08 1.27-1.32 2.21-2.96 2.74-4.79.24-.91.22-1.89-.06-2.79-.28-.9-.81-1.69-1.51-2.26Z" fill="#3F3D56"/>
      <path id="Vector_34" d="M1159.99 811.743c.58-.113 1.16-.288 1.74-.451a11.746 11.746 0 0 0-5.54.585c1.27.126 2.54.081 3.8-.134Z" fill="#FF6584"/>
      <path id="Vector_35" d="M1171.8 816.147c.4.835.72 1.718 1.17 2.526a8.197 8.197 0 0 0 2.53 2.795c.75.395 1.43.919 2.03 1.55.33.556.56 1.179.68 1.833.11.653.11 1.326-.02 1.977a12.147 12.147 0 0 1-1.36 4.82 5.887 5.887 0 0 1-1.48 1.781c-.59.481-1.27.827-1.99 1.018a18.456 18.456 0 0 1 1.09 8.933c-.38 3.031-1.49 5.896-3.23 8.294-1.73 2.399-4.03 4.244-6.64 5.341a14.391 14.391 0 0 1-8.21.897c-.45.324-1.11.525-1.58.808a35.397 35.397 0 0 0-5.57 3.861 15.01 15.01 0 0 0-2.38 2.696c.09.109.23.165.32.287.46.764.76 1.632.88 2.541-.23 3.668-.11 7.353.36 10.994a20.466 20.466 0 0 1-.65 4.872c.03.316 0 .635-.08.938-.09.303-.23.584-.42.826a44.38 44.38 0 0 1-.68 1.947c.09.108.18.22.28.318.42.456.74 1.021.91 1.644.17.623.2 1.284.08 1.922a7.716 7.716 0 0 0-.32 1.58c.06.657.24 1.296.52 1.879.02.061.02.13.05.192 2.26-.385 4.53-.76 6.81-1.041 1.13-.143 2.26-.224 3.39-.242a2.644 2.644 0 0 1-.15-.788c.06-.537.17-1.067.33-1.58.12-.638.09-1.299-.08-1.922a4.003 4.003 0 0 0-.92-1.644c-.09-.098-.18-.21-.28-.318.25-.643.48-1.293.69-1.947.19-.242.33-.523.41-.826.09-.303.12-.622.09-.938.41-1.585.63-3.224.65-4.872a57.707 57.707 0 0 1-.36-10.994 6.459 6.459 0 0 0-.89-2.541c-.08-.122-.22-.178-.31-.287.69-1 1.48-1.905 2.37-2.696a35.95 35.95 0 0 1 5.58-3.861c.47-.283 1.13-.484 1.58-.808.69.127 1.38.204 2.08.23 2.6.017 5.16-.661 7.46-1.974s4.27-3.221 5.74-5.558a18.289 18.289 0 0 0 2.69-7.85c.3-2.818-.04-5.672-.98-8.313a5.382 5.382 0 0 0 1.99-1.018c.6-.48 1.1-1.086 1.48-1.781a12.147 12.147 0 0 0 1.36-4.82c.12-.651.13-1.324.01-1.978a5.144 5.144 0 0 0-.68-1.832 7.692 7.692 0 0 0-2.03-1.55 8.17 8.17 0 0 1-2.52-2.795c-.45-.808-.77-1.691-1.17-2.526-.67-1.548-1.72-2.867-3.02-3.812a8.109 8.109 0 0 0-4.39-1.551c-1.49.206-2.96.527-4.41.959-.81.141-1.63.201-2.45.177 1.54 1.02 2.8 2.481 3.64 4.227Z" fill="#FF6584"/>
      <path id="Vector_36" d="M1257.98 1006.13c-.66-.38-1.38-.63-2.12-.74-3.69-.64-7.36-1.5-10.97-2.56-3.63-1.08-6.97-3.106-9.72-5.909a25.086 25.086 0 0 0-3.42-3.581 3.965 3.965 0 0 0-2.19-.896 3.848 3.848 0 0 0-2.28.546c-.14.123-.27.26-.39.41-.51-.365-1.01-.73-1.52-1.095a696.55 696.55 0 0 0-8.13-5.753l-.11-.077c.08-.468.08-.946.01-1.415-.48-1.538-1.44-2.842-2.72-3.676 3.52-.037 7.05-.388 10.54-.791 3.33.062 6.55-1.311 8.95-3.821.36-.436.58-.992.63-1.579 0-1.202-1.14-1.989-2.15-2.444a20.4 20.4 0 0 0-4.21-1.355c-1-.154-2-.381-2.98-.68-.87-.346-1.71-.78-2.51-1.295l-5.19-3.123a7.858 7.858 0 0 1-2.01-1.523c-.88-1.02-1.27-2.461-2.17-3.463-.83-.923-4.18-2.138-4.66-.247-.19.747.54 1.574.62 2.41a34.832 34.832 0 0 0-3.59-2.158c.07-.167.15-.319.21-.491-5.74-5.033-10.31-11.49-13.31-18.836.51.013 1.03.049 1.54.044.88.088 1.75-.146 2.49-.666.31-.303.55-.678.7-1.097.15-.419.22-.87.19-1.32a8.882 8.882 0 0 0-.6-2.604 20.294 20.294 0 0 0-3.45-6.758 20.625 20.625 0 0 0-5.05-3.92l-.3-.184c-.12-.418-.24-.839-.39-1.248a67.615 67.615 0 0 0-3.79-7.363 51.428 51.428 0 0 1-4.33-12.603 17.104 17.104 0 0 0-2.73-7.412c-2.71-3.255-7.34-3.173-11.34-2.681-.89.11-1.78.274-2.67.408a7.482 7.482 0 0 1 3.38 2.273 17.104 17.104 0 0 1 2.73 7.412c.9 4.402 2.36 8.644 4.34 12.603a69.366 69.366 0 0 1 3.78 7.363c.16.409.27.831.4 1.248l.3.184a21.008 21.008 0 0 1 5.05 3.92 20.673 20.673 0 0 1 3.45 6.758c.32.826.53 1.706.59 2.604.03.45-.03.901-.18 1.32-.16.419-.4.794-.7 1.097-.74.52-1.62.754-2.5.666-.51.005-1.03-.031-1.54-.044 3 7.346 7.57 13.803 13.32 18.836-.06.172-.15.324-.22.491 1.24.642 2.44 1.362 3.6 2.158-.09-.836-.81-1.663-.62-2.41.48-1.891 3.82-.676 4.65.247.9 1.002 1.29 2.443 2.17 3.463.6.618 1.27 1.132 2.01 1.523 1.73 1.041 3.46 2.082 5.2 3.123.79.515 1.63.949 2.51 1.295.97.299 1.97.526 2.98.68 1.44.295 2.84.749 4.2 1.355 1.02.455 2.15 1.242 2.15 2.444a2.783 2.783 0 0 1-.62 1.579c-2.41 2.51-5.63 3.883-8.95 3.821-3.5.403-7.03.754-10.54.791 1.27.834 2.23 2.138 2.71 3.676.07.469.07.947-.01 1.415l.11.077c2.73 1.895 5.44 3.813 8.13 5.753.51.364 1.02.729 1.52 1.095.12-.15.25-.287.4-.41a3.813 3.813 0 0 1 2.28-.546c.79.063 1.55.374 2.18.896a24.028 24.028 0 0 1 3.42 3.581c2.75 2.803 6.09 4.829 9.72 5.909 3.61 1.06 7.28 1.92 10.98 2.56.74.11 1.45.36 2.11.74.7.57 1.23 1.36 1.51 2.26.28.9.3 1.88.06 2.79-.53 1.83-1.47 3.48-2.74 4.79-1 1.3-2.23 2.34-3.63 3.08-.87.35-1.78.57-2.7.64 3.21.31 6.43.35 9.64.12 1.26-.03 2.5-.29 3.68-.76 1.4-.74 2.64-1.78 3.64-3.08 1.27-1.31 2.21-2.96 2.74-4.79.24-.91.22-1.89-.06-2.79-.28-.9-.81-1.69-1.51-2.26Z" fill="#FF6584"/>
      <path id="Vector_37" d="M1199.05 996.445c.17.175.35.357.53.526-.14-.208-.28-.408-.4-.622l-.13.096Z" fill="#FF6584"/>
      <path id="Vector_38" d="M1357.28 964.282c0 40.998-16.74 29.694-37.38 29.694-20.64 0-37.37 11.304-37.37-29.694 0-40.999 37.37-118.776 37.37-118.776s37.38 77.777 37.38 118.776Z" fill="#FF6584"/>
      <path id="Vector_39" opacity=".1" d="M1336.89 979.969c0 18.636-7.6 13.498-16.99 13.498-9.38 0-16.98 5.138-16.98-13.498 0-18.635 16.98-53.989 16.98-53.989s16.99 35.354 16.99 53.989Z" fill="#000"/>
      <path id="Vector_40" d="M1287.18 781.239s-3.24-11.714-10.22-15.8Z" fill="#FF6584"/>
      <path id="Vector_41" d="M1301.35 835.414s-3.24-11.713-10.23-15.799Z" fill="#FF6584"/>
      <path id="Vector_42" d="M1290.72 645.8s-3.24-11.714-10.22-15.8Z" fill="#FF6584"/>
      <path id="Vector_43" d="M1269.47 715.454s-3.24-11.714-10.22-15.8Z" fill="#FF6584"/>
      <path id="Vector_44" d="M1359.67 974.693s7.76-8.821 7.6-17.472Z" fill="#FF6584"/>
      <path id="Vector_45" d="m1276.84 897.845-85.02 30.958 1.13 3.673 85.01-30.957-1.12-3.674Z" fill="#FF6584"/>
      <path id="Vector_46" d="M1270.66 901.538c3.19 13.623-2.16 10.369-7.05 11.473-4.89 1.105-3.92 6.02-10.64-7.473-4.65-9.331 2.17-10.369 7.05-11.473 4.89-1.105 8.47-1.83 10.64 7.473Z" fill="#FF6584"/>
    </g>
    <g id="moon" fill="#F6F5F5">
      <path id="Vector_47" opacity=".1" d="m887.191 519.723-.001-.002-22.761-48.441-.205.118-9.114-19.179-.44-.297.475-.417L764.5 245.5 688.5 64l-71.598 40.563L605 119.5 764.5 647l122.003 415H1142L887.191 519.723Z"/>
      <path id="Vector_48" d="M645 139c27.614 0 50-22.386 50-50s-22.386-50-50-50-50 22.386-50 50 22.386 50 50 50Z"/>
    </g>
  </g>
  <defs>
    <clipPath id="clip0_67_2358">
      <path fill="#fff" d="M0 0h1488v1062H0z"/>
    </clipPath>
  </defs>
</svg>
