<svg viewBox="0 0 464 781" fill="none">
<g id="rain">
<path id="Vector" d="M401.678 736.84C400.081 741.323 397.466 745.374 394.039 748.675C388.878 753.753 382.395 757.258 375.851 760.359C338.616 777.925 297.125 784.448 256.297 779.156C245.08 777.681 233.67 775.186 224.257 768.908C221.244 766.898 218.527 764.477 216.184 761.715C226.563 754.053 239.833 749.911 252.831 748.456C271.465 746.37 290.275 748.895 309.025 748.991C331.104 749.101 353.072 745.846 374.171 739.338C381.49 737.078 389.018 734.395 396.614 735.401C398.361 735.64 400.066 736.125 401.678 736.84Z" fill="#F2F2F2"/>
<path id="Vector_2" d="M254.784 554.869L226.567 542.42V531.717L236.623 531.661C238.184 531.652 239.702 531.155 240.966 530.239C242.229 529.323 243.174 528.034 243.667 526.554L250.732 505.361C251.106 504.238 251.208 503.042 251.029 501.872C250.851 500.702 250.397 499.592 249.705 498.631C249.013 497.671 248.103 496.889 247.049 496.35C245.996 495.811 244.829 495.53 243.646 495.53H226.567V485.571H248.007C249.697 485.571 251.338 484.997 252.66 483.945C253.982 482.892 254.908 481.422 255.287 479.775L260.152 458.612C260.403 457.517 260.405 456.38 260.156 455.285C259.908 454.19 259.415 453.165 258.716 452.286C258.016 451.407 257.127 450.698 256.116 450.21C255.104 449.723 253.995 449.469 252.872 449.469H226.567V446.979C226.567 445.659 226.042 444.392 225.109 443.458C224.175 442.525 222.908 442 221.588 442C220.267 442 219 442.525 218.067 443.458C217.133 444.392 216.608 445.659 216.608 446.979V449.469H40.2509V446.979C40.2509 445.659 39.7263 444.392 38.7924 443.458C37.8586 442.525 36.592 442 35.2714 442C33.9507 442 32.6842 442.525 31.7504 443.458C30.8165 444.392 30.2919 445.659 30.2919 446.979V449.469H9.3811C8.25801 449.469 7.14938 449.722 6.1377 450.21C5.12601 450.698 4.23733 451.407 3.53778 452.286C2.83823 453.165 2.3458 454.19 2.09717 455.285C1.84854 456.38 1.85012 457.517 2.10175 458.612L6.96674 479.775C7.34539 481.422 8.27143 482.892 9.59363 483.945C10.9158 484.997 12.556 485.571 14.2461 485.571H30.2919V495.53H18.6075C17.4304 495.53 16.2698 495.808 15.2206 496.342C14.1714 496.875 13.2633 497.65 12.5702 498.601C11.8771 499.553 11.4187 500.655 11.2324 501.817C11.0461 502.979 11.1373 504.169 11.4983 505.29L18.7087 527.667C19.1956 529.178 20.1514 530.495 21.4373 531.426C22.7232 532.357 24.2723 532.854 25.8599 532.845L30.2919 532.82V542.42L7.46924 554.869C6.48836 554.869 5.51711 555.062 4.6109 555.437C3.70469 555.812 2.88127 556.363 2.18768 557.056C1.4941 557.75 0.943907 558.573 0.568542 559.479C0.193178 560.386 0 561.357 0 562.338C0 564.319 0.786929 566.219 2.18768 567.619C3.58844 569.02 5.48827 569.807 7.46924 569.807H30.2919V624.581C30.2919 625.902 30.8165 627.169 31.7504 628.103C32.6842 629.036 33.9507 629.561 35.2714 629.561C36.592 629.561 37.8586 629.036 38.7924 628.103C39.7263 627.169 40.2509 625.902 40.2509 624.581V569.807H216.608V624.581C216.608 625.902 217.133 627.169 218.067 628.103C219 629.036 220.267 629.561 221.588 629.561C222.908 629.561 224.175 629.036 225.109 628.103C226.042 627.169 226.567 625.902 226.567 624.581V569.807H254.784C256.765 569.807 258.665 569.02 260.066 567.619C261.466 566.219 262.253 564.319 262.253 562.338C262.253 561.357 262.06 560.386 261.685 559.479C261.31 558.573 260.759 557.75 260.066 557.056C259.372 556.363 258.549 555.812 257.643 555.437C256.736 555.062 255.765 554.869 254.784 554.869V554.869ZM40.2509 485.571H216.608V495.53H40.2509L40.2509 485.571ZM40.2509 542.42V532.764L216.608 531.773V542.42H40.2509Z" fill="#F2F2F2"/>
<path id="Vector_3" d="M238.717 634.905C231.088 632.51 224.28 626.27 223.098 618.362C230.596 622.764 239.41 624.371 247.98 622.899C251.282 622.319 254.896 621.331 257.818 622.976C259.605 624.098 260.893 625.863 261.416 627.908C261.925 629.934 262.171 632.017 262.15 634.106L262.405 634.56C254.632 636.433 246.346 637.299 238.717 634.905Z" fill="#CCCCCC"/>
<path id="Vector_4" d="M252.717 653.905C245.088 651.51 238.28 645.27 237.098 637.362C244.596 641.764 253.41 643.371 261.98 641.899C265.282 641.319 268.896 640.331 271.818 641.976C273.605 643.098 274.893 644.863 275.416 646.908C275.925 648.934 276.171 651.017 276.15 653.106L276.405 653.56C268.632 655.433 260.346 656.299 252.717 653.905Z" fill="#CCCCCC"/>
<path id="Vector_5" d="M208.717 643.905C201.088 641.51 194.28 635.27 193.098 627.362C200.596 631.764 209.41 633.371 217.98 631.899C221.282 631.319 224.896 630.331 227.818 631.976C229.605 633.098 230.893 634.863 231.416 636.908C231.925 638.934 232.171 641.017 232.15 643.106L232.405 643.56C224.632 645.433 216.346 646.299 208.717 643.905Z" fill="#CCCCCC"/>
<path id="Vector_6" d="M242.717 621.905C235.088 619.51 228.28 613.27 227.098 605.362C234.596 609.764 243.41 611.371 251.98 609.899C255.282 609.319 258.896 608.331 261.818 609.976C263.605 611.098 264.893 612.863 265.416 614.908C265.925 616.934 266.171 619.017 266.15 621.106L266.405 621.56C258.632 623.433 250.346 624.299 242.717 621.905Z" fill="#CCCCCC"/>
<path id="Vector_7" d="M307.838 298.634C293.704 298.634 271.579 336.672 271.352 337.066C250.967 363.084 230.001 428.967 219.315 465.928C218.1 470.123 217.769 474.525 218.344 478.854C218.918 483.184 220.386 487.347 222.653 491.08C224.92 494.813 227.938 498.035 231.515 500.541C235.092 503.047 239.15 504.783 243.433 505.639C265.77 510.099 284.761 516.438 299.877 524.481C335.661 543.521 378.097 525.52 382.394 523.601L368.31 450.826C352.67 398.882 320.129 300.277 308.866 298.705C308.525 298.658 308.182 298.634 307.838 298.634V298.634Z" fill="#2F2E41"/>
<path id="Vector_8" opacity="0.1" d="M368.796 450.706C368.796 450.706 323.494 300.243 308.935 298.209C294.377 296.176 276.877 337.229 276.877 337.229C267.695 375.18 244.777 427.376 228.137 462.625C226.087 466.965 225.039 471.711 225.07 476.51C225.1 481.31 226.209 486.041 228.314 490.355C230.42 494.668 233.467 498.453 237.232 501.43C240.997 504.408 245.383 506.501 250.066 507.555C265.902 511.105 283.956 516.576 299.642 524.922C337.859 545.255 382.96 523.892 382.96 523.892L368.796 450.706Z" fill="black"/>
<path id="Vector_9" d="M339.95 460.799L266.95 451.799L281.95 385.799L339.95 387.799V460.799Z" fill="#9E616A"/>
<path id="Path 3128" d="M299.311 742.396L284.681 740.023L286.875 682.465L308.467 685.965L299.311 742.396Z" fill="#9E616A"/>
<path id="Path 3130" d="M372.225 711.882L358.993 718.558L323.945 667.698L343.474 657.845L372.225 711.882Z" fill="#9E616A"/>
<path id="Path 3132" d="M330.462 693.389L269.533 538.025C247.727 478.46 267.21 437.407 267.41 437L267.51 436.8L267.718 436.724C270.22 446.462 326.95 445.799 339.95 430.799C347.538 437.173 357.637 452.181 359.801 470.115C362.061 489.354 360.347 508.854 354.763 527.404L330.763 608.764L360.456 675.655L330.462 693.389Z" fill="#2F2E41"/>
<path id="Path 3133" d="M301.08 597.019L279.08 708.575L308.38 714.1L326.815 617.538L301.08 597.019Z" fill="#2F2E41"/>
<path id="Vector_10" d="M304.15 723.719L302.36 723.609L285.35 722.589L282.95 722.449V731.539L262.79 745.459C261.794 746.146 261.044 747.134 260.649 748.278C260.255 749.423 260.237 750.663 260.598 751.818C260.958 752.973 261.679 753.983 262.655 754.699C263.63 755.415 264.809 755.801 266.02 755.799H291.26L295.61 746.819L297.31 755.799H306.82L304.15 723.719Z" fill="#2F2E41"/>
<path id="Vector_11" d="M391.15 733.529L371.5 708.029L370.49 708.599L357.27 716.059L353.01 718.459L357.93 726.089L348.55 748.719C348.088 749.836 347.995 751.072 348.285 752.246C348.575 753.42 349.232 754.471 350.16 755.245C351.089 756.02 352.24 756.478 353.447 756.552C354.654 756.626 355.853 756.313 356.87 755.659L378.08 741.969L376.86 732.059L383.16 738.689L391.15 733.529Z" fill="#2F2E41"/>
<path id="Vector_12" d="M335.206 284.772C355.294 284.772 371.578 268.488 371.578 248.4C371.578 228.313 355.294 212.029 335.206 212.029C315.119 212.029 298.835 228.313 298.835 248.4C298.835 268.488 315.119 284.772 335.206 284.772Z" fill="#2F2E41"/>
<path id="Vector_13" d="M151.109 401.219C147.753 399.85 145.017 397.298 143.417 394.046C141.818 390.794 141.467 387.068 142.431 383.575C143.395 380.081 145.607 377.063 148.648 375.091C151.689 373.12 155.347 372.333 158.93 372.878L205.594 363.905L223.103 384.707L171.136 390.797C170.672 392.899 169.753 394.874 168.443 396.582C167.133 398.29 165.465 399.69 163.556 400.684C161.646 401.678 159.542 402.24 157.392 402.333C155.241 402.425 153.096 402.045 151.109 401.219H151.109Z" fill="#9E616A"/>
<path id="Vector_14" d="M296.116 354.726L238.2 390.252L185.95 391.799L170.274 369.002L227.229 358.529L305.665 298.659L296.116 354.726Z" fill="#2F2E41"/>
<path id="Vector_15" d="M285.953 332.56C271.809 346.704 284.943 361.859 284.943 361.859L268.778 398.23L332.428 415.405L354.671 316.012L339.517 299.847C336.292 299.74 337.411 289.637 334.836 289.538C325.443 289.179 320.126 288.881 317.117 288.659C313.195 288.369 309.191 298.209 309.191 298.209C303.88 303.406 285.953 332.56 285.953 332.56Z" fill="#4592AF"/>
<path id="Vector_16" d="M398.2 485.649C394.814 482.837 391.7 479.713 388.9 476.319C383.741 470.147 379.124 463.543 375.1 456.579C369.652 447.223 365.096 437.377 361.49 427.169C361.48 427.149 361.48 427.129 361.47 427.109C360.34 423.919 359.293 420.635 358.33 417.259C358.321 417.221 358.307 417.184 358.29 417.149C356.664 411.444 355.349 405.656 354.35 399.809C350.31 376.139 358.15 354.579 365.44 340.659C366.062 339.484 366.594 338.264 367.03 337.009C369.017 331.511 369.172 325.517 367.471 319.924C365.769 314.33 362.303 309.438 357.59 305.979L357.24 305.719C354.357 303.588 351.082 302.05 347.602 301.192C344.122 300.334 340.507 300.174 336.965 300.721C333.422 301.267 330.024 302.51 326.964 304.377C323.905 306.244 321.245 308.699 319.14 311.599C319.113 311.626 319.09 311.656 319.07 311.689C306.61 329.049 294.87 354.709 299.94 386.419C301.149 393.886 303.147 401.203 305.9 408.249C306.74 410.419 307.66 412.609 308.66 414.819C312.75 423.819 316.763 432.265 320.7 440.159C324.15 447.089 327.523 453.592 330.82 459.669C341.49 479.369 351.25 494.579 359.53 505.229C369.11 517.529 376.71 523.739 381.46 523.739C381.945 523.744 382.428 523.669 382.89 523.519C382.91 523.509 382.92 523.509 382.94 523.499C386.64 522.249 391.19 518.399 394.98 513.509C398.49 508.959 401.34 503.509 402.24 498.399C402.91 494.589 402.75 489.289 398.2 485.649Z" fill="#2F2E41"/>
<path id="Vector_17" d="M337.077 281.199C350.052 274.106 354.82 257.839 347.727 244.864C340.635 231.89 324.367 227.121 311.393 234.214C298.418 241.306 293.65 257.574 300.742 270.548C307.835 283.523 324.103 288.291 337.077 281.199Z" fill="#9E616A"/>
<path id="Vector_18" d="M289.582 253.682H328.242L328.639 248.132L330.621 253.682H336.574L337.36 242.681L341.288 253.682H352.807V253.137C352.798 245.478 349.752 238.136 344.336 232.72C338.921 227.305 331.578 224.259 323.92 224.25H318.469C310.81 224.259 303.468 227.305 298.052 232.72C292.637 238.136 289.591 245.478 289.582 253.137V253.682Z" fill="#2F2E41"/>
<path id="Vector_19" d="M414.132 504.493C412.943 507.917 410.54 510.785 407.377 512.554C404.215 514.324 400.513 514.872 396.973 514.094C393.434 513.317 390.302 511.268 388.172 508.336C386.042 505.404 385.062 501.793 385.417 498.186L373.981 452.064L393.824 433.476L402.663 485.047C404.787 485.399 406.807 486.212 408.583 487.429C410.358 488.647 411.844 490.238 412.938 492.092C414.031 493.946 414.705 496.018 414.911 498.16C415.118 500.303 414.852 502.464 414.132 504.493V504.493Z" fill="#9E616A"/>
<path id="Vector_20" d="M362.573 321.406L404.284 467.203L381.688 480.597L316.217 323.359L362.573 321.406Z" fill="#2F2E41"/>
<path id="tail" d="M435.834 269.763C427.86 264.233 422.902 255.303 419.491 246.219C416.08 237.134 413.933 227.587 410.068 218.686C405.389 207.939 398.326 198.397 389.414 190.783C383.707 185.918 377.067 181.809 369.665 180.604C362.263 179.399 354.015 181.55 349.281 187.366C344.547 193.183 344.557 202.807 350.29 207.641C348.578 205.84 345.26 206.287 343.774 208.278C343.089 209.319 342.753 210.552 342.816 211.797C342.878 213.042 343.335 214.234 344.121 215.202C344.694 215.918 345.397 216.52 346.193 216.974C347.981 220.97 351.04 224.263 354.894 226.34C359.579 228.65 365.824 228.168 369.371 224.333C372.918 220.499 372.411 213.339 367.841 210.81C374.95 209.441 382.305 213.569 386.427 219.521C390.55 225.472 391.936 232.908 392.276 240.14C392.615 247.372 392.011 254.636 392.621 261.85C393.231 269.064 395.204 276.447 399.968 281.898C407.775 290.832 421.501 292.499 432.859 289.069C444.216 285.64 453.78 278.059 463.034 270.635C455.336 276.544 443.808 275.294 435.834 269.763Z" fill="#2F2E41"/>
<path id="Vector_21" d="M121.748 381.289C116.591 385.093 115.28 392.054 117.053 397.959C117.974 401.186 119.792 404.086 122.297 406.321C124.801 408.555 127.888 410.033 131.199 410.583C138.625 411.982 146.573 409.07 152.35 404.458C158.861 399.26 162.636 391.678 166.385 384.434C171.464 374.62 177.038 365.043 182.403 355.384C188.387 344.61 194.369 333.836 200.348 323.06C213.789 298.82 227.166 274.546 240.481 250.237C253.779 225.9 266.925 201.481 279.92 176.979C290.451 157.014 300.879 136.977 310.634 116.619C311.593 114.618 312.543 112.613 313.484 110.604C313.761 109.861 313.735 109.038 313.412 108.313C313.088 107.589 312.494 107.02 311.755 106.729C311.011 106.46 310.192 106.49 309.469 106.812C308.747 107.134 308.177 107.724 307.88 108.457C299.002 127.418 289.396 146.04 279.696 164.589C267.536 187.841 255.157 210.976 242.557 233.995C229.533 257.929 216.411 281.81 203.19 305.636C191.748 326.306 180.285 346.965 168.799 367.611C166.01 372.637 163.181 377.643 160.541 382.75C157.13 389.349 153.583 396.257 147.397 400.688C142.142 404.45 134.694 406.442 128.608 403.534C124.075 401.368 121.763 395.957 122.385 391.28C122.511 390.215 122.859 389.188 123.406 388.265C123.953 387.342 124.687 386.544 125.56 385.922C128.674 383.625 124.849 379.001 121.748 381.289V381.289Z" fill="#2F2E41"/>
<path id="Vector_22" d="M446.268 253.611L445.914 253.568C432.285 251.895 418.782 249.876 405.779 247.568C396.526 245.924 387.492 244.137 378.927 242.254C371.704 240.675 364.565 238.983 357.706 237.226C350.06 235.279 342.472 233.182 335.154 230.993C332.1 230.094 328.991 229.142 325.916 228.165C320.218 226.356 314.725 224.516 309.592 222.697C304.61 220.955 299.586 219.096 294.661 217.173C294.555 217.142 294.452 217.104 294.352 217.06C284.371 213.183 274.572 209 265.235 204.63C263.426 203.79 261.628 202.938 259.84 202.073C205.982 176.046 160.89 140.733 125.817 97.1135L125.618 96.866L125.757 96.5808C144.505 58.1279 176.959 28.0792 216.74 12.3425C256.52 -3.39416 300.748 -3.68029 340.728 11.5404C345.654 13.422 350.504 15.5273 355.143 17.798L367.631 23.9042C374.38 27.2027 380.908 30.9368 387.172 35.0828C421.83 58.0839 446.948 92.8971 457.849 133.04C468.749 173.183 464.689 215.919 446.424 253.291L446.268 253.611Z" fill="#4592AF"/>
<path id="Vector_23" d="M150.803 121.115C197.347 86.6126 248.099 58.1825 301.831 36.5113C316.904 30.4285 332.182 24.891 347.664 19.8987C349.497 19.3075 348.228 16.5867 346.408 17.1741C291.026 35.0468 238.152 59.9149 189.067 91.1755C175.352 99.8996 161.962 109.107 148.896 118.798C147.342 119.95 149.254 122.262 150.803 121.115V121.115Z" fill="#3F3D56"/>
<path id="Vector_24" d="M377.587 29.7523C377.411 30.0068 377.32 30.3109 377.327 30.6206C377.335 30.9303 377.442 31.2295 377.631 31.4746C386.104 43.2227 393.288 55.8482 399.06 69.1331C404.834 82.4177 409.237 96.2575 412.198 110.437C415.191 124.617 416.763 139.061 416.891 153.553C417.025 168.042 415.701 182.509 412.937 196.733C410.573 208.896 407.098 220.817 402.555 232.346C401.795 234.281 401.002 236.204 400.177 238.113C399.464 239.762 398.729 241.398 397.972 243.022C397.158 244.782 399.968 245.839 400.78 244.099C401.773 241.945 402.738 239.778 403.644 237.585C408.401 226.236 412.132 214.484 414.791 202.469C417.963 188.138 419.662 173.521 419.863 158.845C420.077 144.148 418.838 129.465 416.164 115.012C413.497 100.574 409.376 86.4434 403.865 72.835C398.339 59.1734 391.359 46.1466 383.044 33.9797C382.666 33.4206 382.279 32.8605 381.89 32.3103L377.587 29.7523Z" fill="#3F3D56"/>
<path id="Vector_25" d="M228.709 183.958L276.846 125.954L324.983 67.9497L352.08 35.2982C353.316 33.8086 350.876 32.0617 349.648 33.5407L301.511 91.5451L253.374 149.549L226.277 182.201C225.04 183.69 227.481 185.437 228.708 183.958H228.709Z" fill="#3F3D56"/>
<path id="Vector_26" d="M334.051 228.731L347.734 157.702L361.37 86.917L369.06 46.9934C369.425 45.0986 366.437 44.8206 366.074 46.7034L352.392 117.733L338.756 188.518L331.065 228.441C330.7 230.336 333.688 230.614 334.051 228.731V228.731Z" fill="#3F3D56"/>
<path id="Vector_27" d="M386.895 35.4993C383.979 40.707 379.36 44.7528 373.813 46.9574C368.266 49.1621 362.13 49.3913 356.435 47.6067C350.739 45.8221 345.831 42.1323 342.534 37.1567C339.237 32.1811 337.752 26.2228 338.329 20.282C338.601 17.4192 339.352 14.6223 340.55 12.0079C345.384 13.854 350.175 15.9337 354.924 18.247L367.412 24.3531C374.142 27.6406 380.65 31.3639 386.895 35.4993V35.4993Z" fill="#3F3D56"/>
<g id="drops">
<path id="Vector_28" d="M56.3426 92.8404C61.0086 109.147 67.9946 124.698 77.0863 139.016C79.6741 143.085 82.4282 147.041 85.3485 150.884C86.5001 152.403 89.1065 150.91 87.9389 149.37C77.792 136.012 69.6279 121.259 63.6995 105.567C62.0272 101.121 60.5392 96.6135 59.2354 92.0429C59.119 91.6715 58.863 91.3599 58.5213 91.1736C58.1796 90.9873 57.779 90.941 57.4038 91.0445C57.0286 91.1479 56.7083 91.393 56.5103 91.728C56.3123 92.0631 56.2522 92.4619 56.3426 92.8404H56.3426Z" fill="#F2F2F2"/>
<path id="Vector_29" d="M145.188 157.832L163.411 189.534C163.619 189.863 163.946 190.098 164.324 190.19C164.703 190.283 165.102 190.225 165.438 190.028C165.774 189.832 166.02 189.512 166.126 189.138C166.231 188.763 166.186 188.362 166.001 188.019L147.778 156.318C147.57 155.989 147.243 155.754 146.865 155.661C146.486 155.569 146.087 155.627 145.751 155.824C145.415 156.02 145.169 156.339 145.063 156.714C144.958 157.089 145.003 157.49 145.188 157.832V157.832Z" fill="#F2F2F2"/>
<path id="Vector_30" d="M185.848 112.525L200.689 144.225C201.507 145.972 204.094 144.451 203.28 142.711L188.438 111.01C187.62 109.263 185.033 110.785 185.848 112.525Z" fill="#F2F2F2"/>
<path id="Vector_31" d="M11.3426 286.84C16.0086 303.147 22.9946 318.698 32.0863 333.016C34.6741 337.085 37.4282 341.041 40.3485 344.884C41.5001 346.403 44.1065 344.91 42.9389 343.37C32.792 330.012 24.6279 315.259 18.6995 299.567C17.0272 295.121 15.5392 290.614 14.2354 286.043C14.119 285.672 13.863 285.36 13.5213 285.174C13.1796 284.987 12.779 284.941 12.4038 285.044C12.0286 285.148 11.7083 285.393 11.5103 285.728C11.3123 286.063 11.2522 286.462 11.3426 286.84H11.3426Z" fill="#F2F2F2"/>
<path id="Vector_32" d="M100.188 351.832L118.411 383.534C118.619 383.863 118.946 384.098 119.324 384.19C119.703 384.283 120.102 384.225 120.438 384.028C120.774 383.832 121.02 383.512 121.126 383.138C121.231 382.763 121.186 382.362 121.001 382.019L102.778 350.318C102.57 349.989 102.243 349.754 101.865 349.661C101.486 349.569 101.087 349.627 100.751 349.824C100.415 350.02 100.169 350.339 100.063 350.714C99.9582 351.089 100.003 351.49 100.188 351.832V351.832Z" fill="#F2F2F2"/>
<path id="Vector_33" d="M140.848 306.524L155.689 338.225C156.507 339.972 159.094 338.451 158.28 336.711L143.438 305.01C142.62 303.263 140.033 304.785 140.848 306.524Z" fill="#F2F2F2"/>
<path id="Vector_34" d="M257.343 361.84C262.009 378.147 268.995 393.698 278.086 408.016C280.674 412.085 283.428 416.041 286.349 419.884C287.5 421.403 290.107 419.91 288.939 418.37C278.792 405.012 270.628 390.259 264.7 374.567C263.027 370.121 261.539 365.614 260.235 361.043C260.119 360.672 259.863 360.36 259.521 360.174C259.18 359.987 258.779 359.941 258.404 360.044C258.029 360.148 257.708 360.393 257.51 360.728C257.312 361.063 257.252 361.462 257.343 361.84H257.343Z" fill="#F2F2F2"/>
<path id="Vector_35" d="M346.188 426.832L364.411 458.534C364.619 458.863 364.946 459.098 365.325 459.19C365.703 459.283 366.102 459.225 366.438 459.028C366.774 458.832 367.021 458.512 367.126 458.138C367.231 457.763 367.186 457.362 367.001 457.019L348.778 425.318C348.57 424.989 348.243 424.754 347.865 424.661C347.486 424.569 347.087 424.627 346.751 424.824C346.415 425.02 346.169 425.339 346.063 425.714C345.958 426.089 346.003 426.49 346.188 426.832V426.832Z" fill="#F2F2F2"/>
<path id="Vector_36" d="M386.848 381.524L401.69 413.225C402.508 414.972 405.094 413.451 404.28 411.711L389.439 380.01C388.621 378.263 386.033 379.785 386.848 381.524Z" fill="#F2F2F2"/>
<path id="Vector_37" d="M295.343 135.84C300.009 152.147 306.995 167.698 316.086 182.016C318.674 186.085 321.428 190.041 324.349 193.884C325.5 195.403 328.107 193.91 326.939 192.37C316.792 179.012 308.628 164.259 302.7 148.567C301.027 144.121 299.539 139.614 298.235 135.043C298.119 134.672 297.863 134.36 297.521 134.174C297.18 133.987 296.779 133.941 296.404 134.044C296.029 134.148 295.708 134.393 295.51 134.728C295.312 135.063 295.252 135.462 295.343 135.84H295.343Z" fill="#F2F2F2"/>
<path id="Vector_38" d="M384.188 200.832L402.411 232.534C402.619 232.863 402.946 233.098 403.325 233.19C403.703 233.283 404.102 233.225 404.438 233.028C404.774 232.832 405.021 232.512 405.126 232.138C405.231 231.763 405.186 231.362 405.002 231.019L386.778 199.318C386.57 198.989 386.243 198.754 385.865 198.661C385.486 198.569 385.087 198.627 384.751 198.824C384.415 199.02 384.169 199.339 384.064 199.714C383.958 200.089 384.003 200.49 384.188 200.832V200.832Z" fill="#F2F2F2"/>
<path id="Vector_39" d="M424.848 155.525L439.69 187.225C440.508 188.972 443.094 187.451 442.28 185.711L427.439 154.01C426.621 152.263 424.033 153.785 424.848 155.525Z" fill="#F2F2F2"/>
</g>
</g>
</svg>
