<svg id="rain" viewBox="0 0 56 44" fill="none">
<g>
<path id="Vector" d="M46.1638 35H42.1498C41.8846 35 41.6303 34.8946 41.4427 34.7071C41.2552 34.5196 41.1498 34.2652 41.1498 34C41.1498 33.7348 41.2552 33.4804 41.4427 33.2929C41.6303 33.1054 41.8846 33 42.1498 33H46.1638C48.2568 32.9567 50.2496 32.0949 51.7146 30.5993C53.1796 29.1037 54.0001 27.0935 54.0001 25C54.0001 22.9065 53.1796 20.8963 51.7146 19.4007C50.2496 17.9051 48.2568 17.0433 46.1638 17H44.2001C43.9349 17 43.6806 16.8946 43.493 16.7071C43.3055 16.5196 43.2001 16.2652 43.2001 16C43.2318 12.3245 41.8044 8.78642 39.231 6.1619C36.6576 3.53737 33.1483 2.04063 29.4728 2C26.7851 2.01425 24.1608 2.81734 21.9254 4.30963C19.6899 5.80193 17.9419 7.91774 16.8981 10.3945C16.8209 10.5743 16.6928 10.7274 16.5294 10.835C16.3661 10.9426 16.1748 11 15.9792 11H12.7819C9.90272 11.0577 7.16094 12.242 5.14514 14.2986C3.12934 16.3552 2.00024 19.1202 2.00024 22C2.00024 24.8798 3.12934 27.6448 5.14514 29.7014C7.16094 31.758 9.90272 32.9423 12.7819 33H15.882C16.1472 33 16.4016 33.1054 16.5891 33.2929C16.7766 33.4804 16.882 33.7348 16.882 34C16.882 34.2652 16.7766 34.5196 16.5891 34.7071C16.4016 34.8946 16.1472 35 15.882 35H12.7819C9.37219 34.9423 6.12162 33.5473 3.73071 31.1156C1.3398 28.6839 0 25.4102 0 22C0 18.5898 1.3398 15.3161 3.73071 12.8844C6.12162 10.4527 9.37219 9.05768 12.7819 9H15.3349C16.6013 6.31805 18.6012 4.04948 21.1032 2.45676C23.6052 0.864037 26.507 0.0122738 29.4728 0C33.5057 0.0369556 37.3731 1.6083 40.2889 4.39459C43.2046 7.18089 44.9499 10.973 45.1699 15H46.1638C48.7874 15.0433 51.2888 16.1159 53.1289 17.9865C54.969 19.8572 56.0002 22.376 56.0002 25C56.0002 27.624 54.969 30.1428 53.1289 32.0135C51.2888 33.8841 48.7874 34.9567 46.1638 35V35Z" fill="#4592AF"/>
<path id="Vector_2" d="M27.7502 32.5C28.9928 32.5 30.0002 31.4926 30.0002 30.25C30.0002 29.0074 28.9928 28 27.7502 28C26.5075 28 25.5002 29.0074 25.5002 30.25C25.5002 31.4926 26.5075 32.5 27.7502 32.5Z" fill="#4592AF"/>
<path id="Vector_3" d="M35.2502 35.5C36.4928 35.5 37.5002 34.4926 37.5002 33.25C37.5002 32.0074 36.4928 31 35.2502 31C34.0075 31 33.0002 32.0074 33.0002 33.25C33.0002 34.4926 34.0075 35.5 35.2502 35.5Z" fill="#4592AF"/>
<path id="Vector_4" d="M22.7502 39C23.9928 39 25.0002 37.9926 25.0002 36.75C25.0002 35.5074 23.9928 34.5 22.7502 34.5C21.5075 34.5 20.5002 35.5074 20.5002 36.75C20.5002 37.9926 21.5075 39 22.7502 39Z" fill="#4592AF"/>
<path id="Vector_5" d="M30.7502 44C31.9928 44 33.0002 42.9926 33.0002 41.75C33.0002 40.5074 31.9928 39.5 30.7502 39.5C29.5075 39.5 28.5002 40.5074 28.5002 41.75C28.5002 42.9926 29.5075 44 30.7502 44Z" fill="#4592AF"/>
</g>
</svg>
