<svg id="shower" viewBox="0 0 56 49" fill="none">
<g>
<path id="Vector" d="M46.1638 35H42.1498C41.8846 35 41.6303 34.8946 41.4427 34.7071C41.2552 34.5196 41.1498 34.2652 41.1498 34C41.1498 33.7348 41.2552 33.4804 41.4427 33.2929C41.6303 33.1054 41.8846 33 42.1498 33H46.1638C48.2568 32.9567 50.2496 32.0949 51.7146 30.5993C53.1796 29.1037 54.0001 27.0935 54.0001 25C54.0001 22.9065 53.1796 20.8963 51.7146 19.4007C50.2496 17.9051 48.2568 17.0433 46.1638 17H44.2001C43.9349 17 43.6806 16.8946 43.493 16.7071C43.3055 16.5196 43.2001 16.2652 43.2001 16C43.2318 12.3245 41.8044 8.78642 39.231 6.1619C36.6576 3.53737 33.1483 2.04063 29.4728 2C26.7851 2.01425 24.1608 2.81734 21.9254 4.30963C19.6899 5.80193 17.9419 7.91774 16.8981 10.3945C16.8209 10.5743 16.6928 10.7274 16.5294 10.835C16.3661 10.9426 16.1748 11 15.9792 11H12.7819C9.90272 11.0577 7.16094 12.242 5.14514 14.2986C3.12934 16.3552 2.00024 19.1202 2.00024 22C2.00024 24.8798 3.12934 27.6448 5.14514 29.7014C7.16094 31.758 9.90272 32.9423 12.7819 33H15.882C16.1472 33 16.4016 33.1054 16.5891 33.2929C16.7766 33.4804 16.882 33.7348 16.882 34C16.882 34.2652 16.7766 34.5196 16.5891 34.7071C16.4016 34.8946 16.1472 35 15.882 35H12.7819C9.37219 34.9423 6.12162 33.5473 3.73071 31.1156C1.3398 28.6839 0 25.4102 0 22C0 18.5898 1.3398 15.3161 3.73071 12.8844C6.12162 10.4527 9.37219 9.05768 12.7819 9H15.3349C16.6013 6.31805 18.6012 4.04948 21.1032 2.45676C23.6052 0.864037 26.507 0.0122738 29.4728 0C33.5057 0.0369556 37.3731 1.6083 40.2889 4.39459C43.2046 7.18089 44.9499 10.973 45.1699 15H46.1638C48.7874 15.0433 51.2888 16.1159 53.1289 17.9865C54.969 19.8572 56.0002 22.376 56.0002 25C56.0002 27.624 54.969 30.1428 53.1289 32.0135C51.2888 33.8841 48.7874 34.9567 46.1638 35V35Z" fill="#4592AF"/>
<path id="Vector_2" d="M29.3073 39.3169C29.0421 39.3169 28.7878 39.2115 28.6002 39.024C28.4127 38.8365 28.3073 38.5821 28.3073 38.3169V26.8169C28.3073 26.5517 28.4127 26.2973 28.6002 26.1098C28.7878 25.9222 29.0421 25.8169 29.3073 25.8169C29.5725 25.8169 29.8269 25.9222 30.0144 26.1098C30.2019 26.2973 30.3073 26.5517 30.3073 26.8169V38.3169C30.3073 38.5821 30.2019 38.8365 30.0144 39.024C29.8269 39.2115 29.5725 39.3169 29.3073 39.3169V39.3169Z" fill="#4592AF"/>
<path id="Vector_3" d="M22.3073 45.3169C22.0421 45.3169 21.7878 45.2115 21.6002 45.024C21.4127 44.8365 21.3073 44.5821 21.3073 44.3169V32.8169C21.3073 32.5517 21.4127 32.2973 21.6002 32.1098C21.7878 31.9222 22.0421 31.8169 22.3073 31.8169C22.5725 31.8169 22.8269 31.9222 23.0144 32.1098C23.2019 32.2973 23.3073 32.5517 23.3073 32.8169V44.3169C23.3073 44.5821 23.2019 44.8365 23.0144 45.024C22.8269 45.2115 22.5725 45.3169 22.3073 45.3169Z" fill="#4592AF"/>
<path id="Vector_4" d="M36.3073 48.3169C36.0421 48.3169 35.7878 48.2115 35.6002 48.024C35.4127 47.8365 35.3073 47.5821 35.3073 47.3169V35.8169C35.3073 35.5517 35.4127 35.2973 35.6002 35.1098C35.7878 34.9222 36.0421 34.8169 36.3073 34.8169C36.5725 34.8169 36.8269 34.9222 37.0144 35.1098C37.2019 35.2973 37.3073 35.5517 37.3073 35.8169V47.3169C37.3073 47.5821 37.2019 47.8365 37.0144 48.024C36.8269 48.2115 36.5725 48.3169 36.3073 48.3169V48.3169Z" fill="#4592AF"/>
</g>
</svg>
