<svg id="sun" viewBox="0 0 56 57" fill="none">
<g>
<path id="Vector" d="M28.5 40.5C26.1266 40.5 23.8066 39.7962 21.8332 38.4776C19.8598 37.159 18.3217 35.2849 17.4135 33.0922C16.5052 30.8995 16.2676 28.4867 16.7306 26.1589C17.1936 23.8311 18.3365 21.6929 20.0147 20.0147C21.693 18.3365 23.8312 17.1936 26.1589 16.7306C28.4867 16.2676 30.8995 16.5052 33.0922 17.4134C35.2849 18.3217 37.1591 19.8598 38.4776 21.8332C39.7962 23.8065 40.5 26.1266 40.5 28.5C40.4964 31.6815 39.2309 34.7316 36.9813 36.9813C34.7316 39.2309 31.6815 40.4964 28.5 40.5V40.5ZM28.5 18.5C26.5222 18.5 24.5888 19.0865 22.9443 20.1853C21.2998 21.2841 20.0181 22.8459 19.2612 24.6732C18.5043 26.5004 18.3063 28.5111 18.6922 30.4509C19.078 32.3907 20.0304 34.1725 21.4289 35.5711C22.8275 36.9696 24.6093 37.922 26.5491 38.3079C28.4889 38.6937 30.4996 38.4957 32.3268 37.7388C34.1541 36.9819 35.7159 35.7002 36.8147 34.0557C37.9135 32.4112 38.5 30.4778 38.5 28.5C38.497 25.8487 37.4425 23.3069 35.5678 21.4322C33.6931 19.5575 31.1513 18.503 28.5 18.5V18.5Z" fill="#4592AF"/>
<path id="Vector_2" d="M28.1062 13.5C27.841 13.5 27.5866 13.3946 27.3991 13.2071C27.2116 13.0196 27.1062 12.7652 27.1062 12.5V1C27.1062 0.734784 27.2116 0.480444 27.3991 0.292908C27.5866 0.105371 27.841 0 28.1062 0C28.3714 0 28.6258 0.105371 28.8133 0.292908C29.0008 0.480444 29.1062 0.734784 29.1062 1V12.5C29.1062 12.7652 29.0008 13.0196 28.8133 13.2071C28.6258 13.3946 28.3714 13.5 28.1062 13.5Z" fill="#4592AF"/>
<path id="Vector_3" d="M12.5 29.1064H1C0.734784 29.1064 0.480429 29.0011 0.292892 28.8136C0.105356 28.626 0 28.3717 0 28.1064C0 27.8412 0.105356 27.5869 0.292892 27.3994C0.480429 27.2118 0.734784 27.1064 1 27.1064H12.5C12.7652 27.1064 13.0196 27.2118 13.2071 27.3994C13.3946 27.5869 13.5 27.8412 13.5 28.1064C13.5 28.3717 13.3946 28.626 13.2071 28.8136C13.0196 29.0011 12.7652 29.1064 12.5 29.1064Z" fill="#4592AF"/>
<path id="Vector_4" d="M54.5 29.1064H43C42.7348 29.1064 42.4804 29.0011 42.2929 28.8136C42.1054 28.626 42 28.3717 42 28.1064C42 27.8412 42.1054 27.5869 42.2929 27.3994C42.4804 27.2118 42.7348 27.1064 43 27.1064H54.5C54.7652 27.1064 55.0196 27.2118 55.2071 27.3994C55.3946 27.5869 55.5 27.8412 55.5 28.1064C55.5 28.3717 55.3946 28.626 55.2071 28.8136C55.0196 29.0011 54.7652 29.1064 54.5 29.1064Z" fill="#4592AF"/>
<path id="Vector_5" d="M42.6841 18.1724C42.485 18.1724 42.2905 18.1129 42.1254 18.0017C41.9602 17.8905 41.8321 17.7325 41.7573 17.548C41.6825 17.3635 41.6645 17.1609 41.7056 16.9661C41.7466 16.7713 41.8449 16.5932 41.9878 16.4546L46.8037 11.7822C46.9941 11.5976 47.25 11.4961 47.5152 11.5001C47.7804 11.5041 48.0331 11.6133 48.2178 11.8037C48.4025 11.9941 48.5039 12.25 48.4999 12.5152C48.4959 12.7804 48.3867 13.0331 48.1963 13.2178L43.3804 17.8901C43.194 18.0715 42.9441 18.1728 42.6841 18.1724V18.1724Z" fill="#4592AF"/>
<path id="Vector_6" d="M13.3159 18.1724C13.0559 18.1727 12.806 18.0714 12.6196 17.8901L7.80369 13.2178C7.70943 13.1263 7.63412 13.0172 7.58202 12.8967C7.52993 12.7761 7.50208 12.6465 7.50008 12.5152C7.49809 12.3839 7.52199 12.2534 7.5704 12.1314C7.6188 12.0093 7.69078 11.898 7.78222 11.8037C7.87366 11.7094 7.98276 11.6341 8.10331 11.582C8.22386 11.5299 8.35349 11.5021 8.4848 11.5001C8.6161 11.4981 8.74652 11.522 8.8686 11.5704C8.99068 11.6188 9.10201 11.6908 9.19627 11.7822L14.0122 16.4546C14.1551 16.5932 14.2534 16.7713 14.2944 16.9661C14.3355 17.1609 14.3175 17.3635 14.2427 17.548C14.1679 17.7325 14.0397 17.8905 13.8746 18.0017C13.7095 18.1129 13.515 18.1724 13.3159 18.1724Z" fill="#4592AF"/>
<path id="Vector_7" d="M9.49999 45.5C9.30347 45.4999 9.11134 45.442 8.94756 45.3334C8.78378 45.2248 8.65561 45.0703 8.57907 44.8893C8.50253 44.7083 8.48101 44.5088 8.51718 44.3156C8.55335 44.1225 8.64561 43.9442 8.78246 43.8032L13.5984 38.8437C13.7832 38.6534 14.036 38.5443 14.3012 38.5405C14.5665 38.5366 14.8224 38.6382 15.0127 38.823C15.203 39.0078 15.3121 39.2606 15.316 39.5258C15.3199 39.7911 15.2182 40.047 15.0334 40.2373L10.2175 45.1968C10.1243 45.2928 10.0128 45.3691 9.88954 45.4212C9.76628 45.4733 9.6338 45.5001 9.49999 45.5V45.5Z" fill="#4592AF"/>
<path id="Vector_8" d="M48.5 46.5C48.3666 46.5003 48.2345 46.4737 48.1116 46.4218C47.9886 46.37 47.8774 46.294 47.7844 46.1983L41.9685 40.2388C41.8768 40.1448 41.8045 40.0337 41.7558 39.9118C41.707 39.7899 41.6828 39.6596 41.6844 39.5283C41.686 39.397 41.7134 39.2673 41.7652 39.1467C41.8169 39.026 41.8919 38.9167 41.9859 38.825C42.0798 38.7333 42.1909 38.661 42.3128 38.6122C42.4347 38.5635 42.5651 38.5392 42.6963 38.5408C42.8276 38.5424 42.9573 38.5699 43.078 38.6216C43.1987 38.6734 43.308 38.7483 43.3997 38.8423L49.2156 44.8018C49.3531 44.9425 49.4459 45.1207 49.4826 45.314C49.5192 45.5073 49.498 45.7072 49.4216 45.8885C49.3452 46.0698 49.217 46.2245 49.0531 46.3333C48.8891 46.4421 48.6968 46.5001 48.5 46.5Z" fill="#4592AF"/>
<path id="Vector_9" d="M28.1062 56.5C27.841 56.5 27.5866 56.3946 27.3991 56.2071C27.2116 56.0196 27.1062 55.7652 27.1062 55.5V44C27.1062 43.7348 27.2116 43.4804 27.3991 43.2929C27.5866 43.1054 27.841 43 28.1062 43C28.3714 43 28.6258 43.1054 28.8133 43.2929C29.0008 43.4804 29.1062 43.7348 29.1062 44V55.5C29.1062 55.7652 29.0008 56.0196 28.8133 56.2071C28.6258 56.3946 28.3714 56.5 28.1062 56.5Z" fill="#4592AF"/>
</g>
</svg>
