<svg width="464" height="781" viewBox="0 0 464 781" fill="none" xmlns="http://www.w3.org/2000/svg">
<g id="sunny">
<path id="Vector" d="M15.381 493.14C20.6478 451.574 46.8945 410.62 87.2844 397.093C71.3558 439.876 71.3592 486.81 87.2941 529.59C93.5005 546.067 102.151 563.759 96.3136 580.365C92.6813 590.697 83.7954 598.603 73.8628 603.546C63.9296 608.489 52.9058 610.845 42.0199 613.154L39.8775 614.893C22.5964 576.595 10.1142 534.705 15.381 493.14Z" fill="#F0F0F0"/>
<path id="Vector_2" d="M87.6852 397.879C64.1641 423.745 49.545 456.228 45.9044 490.713C45.1703 498.105 45.0811 505.667 46.7277 512.954C48.3882 520.045 51.953 526.569 57.0518 531.85C61.7051 536.868 67.0569 541.472 70.3864 547.513C73.8959 553.88 74.0307 561.114 71.6281 567.877C68.6885 576.152 62.8948 582.897 56.9955 589.299C50.4454 596.408 43.5271 603.69 40.7428 613.115C40.4055 614.257 38.6199 613.676 38.9568 612.536C43.801 596.139 60.0186 586.825 67.7529 572.057C71.3618 565.166 72.8766 557.165 69.4933 549.891C66.5347 543.53 61.02 538.777 56.2637 533.737C51.2695 528.444 47.4402 522.637 45.4675 515.629C43.4496 508.461 43.2377 500.88 43.776 493.501C45.1239 476.778 49.1425 460.367 55.6845 444.869C63.0509 427.141 73.453 410.78 86.4407 396.495C87.2449 395.611 88.4842 397.001 87.6853 397.879L87.6852 397.879Z" fill="white"/>
<path id="Vector_3" d="M46.4108 479.541C40.5986 478.156 35.4772 474.789 31.9613 470.04C28.4454 465.291 26.7639 459.47 27.217 453.617C27.3129 452.433 29.1921 452.524 29.0961 453.709C28.6639 459.159 30.2308 464.581 33.514 468.996C36.7972 473.412 41.5805 476.53 47.0005 477.788C48.178 478.063 47.5816 479.814 46.4108 479.541V479.541Z" fill="white"/>
<path id="Vector_4" d="M54.351 529.611C64.8485 523.459 72.5979 513.65 76.0539 502.14C76.3954 500.999 78.181 501.579 77.84 502.719C74.2208 514.69 66.1353 524.882 55.197 531.26C54.154 531.867 53.3137 530.215 54.351 529.611H54.351Z" fill="white"/>
<path id="Vector_5" d="M64.7959 428.89C66.931 429.886 69.2846 430.345 71.6455 430.228C74.0064 430.11 76.3005 429.419 78.3219 428.216C79.3565 427.596 80.1958 429.249 79.1678 429.865C76.9282 431.184 74.3937 431.944 71.7856 432.08C69.1775 432.215 66.5752 431.722 64.2062 430.643C63.9742 430.56 63.7832 430.393 63.6721 430.176C63.561 429.96 63.5381 429.71 63.608 429.477C63.6872 429.245 63.8565 429.054 64.0789 428.944C64.3014 428.834 64.559 428.815 64.7959 428.89V428.89Z" fill="white"/>
<path id="Vector_6" d="M210.399 471.335C209.764 471.74 209.129 472.145 208.493 472.566C199.987 478.055 191.949 484.214 184.46 490.982C183.872 491.496 183.284 492.026 182.713 492.555C164.845 509.048 150.253 528.653 139.677 550.374C135.477 559.021 131.953 567.97 129.136 577.141C125.246 589.808 122.056 603.846 114.356 614.207C113.566 615.297 112.707 616.338 111.785 617.323H42.2054C42.0473 617.245 41.8884 617.183 41.7295 617.105L38.9514 617.23C39.063 616.747 39.1894 616.248 39.301 615.765C39.3646 615.485 39.4436 615.204 39.5072 614.924C39.5545 614.737 39.6025 614.55 39.6343 614.379C39.6498 614.316 39.6661 614.254 39.6816 614.207C39.7134 614.036 39.7614 613.88 39.7932 613.724C40.4916 610.935 41.2112 608.146 41.9519 605.358C41.9519 605.342 41.9519 605.342 41.9674 605.326C47.667 584.09 55.223 563.135 65.7795 543.971C66.0973 543.394 66.4144 542.802 66.764 542.226C71.5712 533.613 77.0876 525.401 83.258 517.671C86.6507 513.449 90.2588 509.398 94.0688 505.534C103.933 495.568 115.332 487.187 127.85 480.699C152.805 467.767 181.697 462.812 208.367 470.712C209.049 470.914 209.716 471.117 210.399 471.335Z" fill="#F0F0F0"/>
<path id="Vector_7" d="M210.242 472.201C175.594 478.955 143.996 496.252 119.934 521.635C114.813 527.104 110.103 533.089 106.948 539.88C103.924 546.523 102.768 553.839 103.599 561.068C104.237 567.824 105.686 574.663 104.639 581.453C103.535 588.611 99.2046 594.467 93.1375 598.447C85.7142 603.317 76.9507 605.279 68.3128 606.905C58.7221 608.71 48.7312 610.437 40.7268 616.316C39.7569 617.029 38.6873 615.51 39.6557 614.799C53.582 604.569 72.2444 606.716 87.4793 599.494C94.5882 596.124 100.705 590.632 102.466 582.824C104.006 575.997 102.518 568.944 101.813 562.109C101.072 554.932 101.577 548.032 104.301 541.272C107.087 534.356 111.568 528.177 116.524 522.604C127.859 510.048 141.135 499.319 155.865 490.811C172.622 481.009 190.964 474.092 210.098 470.36C211.282 470.13 211.419 471.972 210.242 472.201V472.201Z" fill="white"/>
<path id="Vector_8" d="M127.192 513.014C123.401 508.474 121.377 502.759 121.483 496.89C121.589 491.021 123.817 485.379 127.77 480.974C128.573 480.085 130.018 481.268 129.214 482.158C125.525 486.254 123.45 491.509 123.363 496.974C123.276 502.44 125.182 507.756 128.738 511.963C129.51 512.878 127.959 513.924 127.192 513.014V513.014Z" fill="white"/>
<path id="Vector_9" d="M102.817 557.684C114.972 558.976 127.177 555.723 136.997 548.575C137.969 547.866 139.039 549.384 138.068 550.092C127.835 557.512 115.127 560.872 102.481 559.501C101.275 559.369 101.618 557.554 102.817 557.684Z" fill="white"/>
<path id="Vector_10" d="M172.943 483.436C174.037 485.493 175.634 487.251 177.591 488.552C179.548 489.853 181.804 490.657 184.156 490.891C185.362 491.007 185.018 492.823 183.82 492.707C181.223 492.437 178.733 491.546 176.567 490.113C174.401 488.68 172.626 486.749 171.397 484.487C171.263 484.284 171.212 484.038 171.257 483.799C171.301 483.561 171.436 483.347 171.634 483.203C171.84 483.065 172.092 483.012 172.337 483.056C172.582 483.099 172.8 483.236 172.943 483.436V483.436Z" fill="white"/>
<path id="Vector_11" d="M217.187 462.711C223.744 410.96 256.423 359.97 306.709 343.129C286.878 396.395 286.882 454.829 306.721 508.092C314.449 528.606 325.219 550.633 317.951 571.309C313.429 584.173 302.365 594.016 289.999 600.17C277.632 606.324 263.907 609.258 250.353 612.132L247.686 614.297C226.171 566.615 210.63 514.461 217.187 462.711Z" fill="#F0F0F0"/>
<path id="Vector_12" d="M307.208 344.108C278.222 375.965 259.417 417.116 255.19 459.689C254.276 468.893 254.165 478.308 256.215 487.38C258.282 496.208 262.72 504.332 269.069 510.907C274.862 517.154 281.525 522.886 285.671 530.407C290.04 538.334 290.208 547.341 287.217 555.761C283.557 566.064 276.343 574.461 268.998 582.433C260.843 591.283 252.23 600.35 248.763 612.083C248.343 613.505 246.12 612.782 246.54 611.363C252.571 590.948 272.762 579.352 282.392 560.965C286.885 552.385 288.771 542.424 284.559 533.367C280.875 525.448 274.009 519.531 268.087 513.255C261.869 506.666 257.102 499.436 254.646 490.711C252.133 481.786 251.869 472.347 252.54 463.161C254.218 442.34 259.221 421.908 267.366 402.612C276.538 380.54 289.489 360.17 305.659 342.384C306.66 341.284 308.203 343.015 307.208 344.108V344.108Z" fill="white"/>
<path id="Vector_13" d="M255.82 445.78C248.584 444.055 242.207 439.863 237.83 433.95C233.453 428.038 231.359 420.791 231.923 413.503C232.043 412.029 234.382 412.142 234.263 413.618C233.725 420.403 235.675 427.154 239.763 432.651C243.851 438.148 249.806 442.031 256.554 443.597C258.02 443.939 257.278 446.12 255.82 445.78V445.78Z" fill="white"/>
<path id="Vector_14" d="M265.706 508.119C278.776 500.459 288.424 488.247 292.727 473.916C293.152 472.496 295.375 473.218 294.951 474.637C290.445 489.541 280.378 502.23 266.759 510.171C265.461 510.927 264.415 508.87 265.706 508.119Z" fill="white"/>
<path id="Vector_15" d="M278.71 382.717C281.369 383.957 284.299 384.529 287.238 384.383C290.178 384.236 293.034 383.376 295.551 381.878C296.839 381.106 297.884 383.164 296.604 383.931C293.816 385.573 290.66 386.52 287.413 386.688C284.166 386.857 280.926 386.243 277.976 384.9C277.687 384.796 277.45 384.588 277.311 384.318C277.173 384.049 277.144 383.738 277.231 383.448C277.33 383.16 277.541 382.921 277.818 382.784C278.095 382.647 278.415 382.623 278.71 382.717V382.717Z" fill="white"/>
<path id="Vector_16" d="M138.589 345.616C140.119 345.153 141.527 344.367 142.714 343.312C143.901 342.258 144.837 340.961 145.458 339.512C146.079 338.064 146.368 336.499 146.307 334.929C146.245 333.359 145.833 331.821 145.1 330.424L178.919 238.329L155.471 234.238L129.601 326.051C127.292 327.415 125.572 329.563 124.768 332.088C123.965 334.613 124.133 337.34 125.241 339.752C126.349 342.163 128.319 344.092 130.78 345.173C133.24 346.254 136.018 346.412 138.589 345.616V345.616Z" fill="#9E616A"/>
<path id="Vector_17" d="M186.195 217.232C185.396 215.521 184.238 213.995 182.797 212.754C181.355 211.512 179.663 210.584 177.831 210.028C175.999 209.473 174.068 209.304 172.165 209.531C170.261 209.759 168.428 210.378 166.785 211.349C164.19 212.854 162.192 215.178 161.117 217.942L148.956 239.073C148.609 239.676 148.398 240.346 148.338 241.037C148.278 241.728 148.371 242.423 148.61 243.076C148.849 243.728 149.229 244.322 149.723 244.818C150.217 245.313 150.814 245.698 151.474 245.946L152.106 246.186L156.806 247.957L173.126 254.11L174.625 254.681C175.284 254.929 175.989 255.035 176.694 254.991C177.399 254.947 178.085 254.755 178.707 254.428C179.329 254.1 179.872 253.645 180.299 253.093C180.725 252.541 181.026 251.905 181.179 251.229L183.106 242.735L186.542 227.627C187.198 225.96 187.505 224.181 187.446 222.395C187.386 220.609 186.961 218.853 186.195 217.232V217.232Z" fill="#4592AF"/>
<path id="Vector_18" d="M224.18 269.821H168.245V324.719H224.18V269.821Z" fill="#9E616A"/>
<path id="Vector_19" d="M137.439 597.931L148.46 597.93L153.702 556.21L137.437 556.211L137.439 597.931Z" fill="#9E616A"/>
<path id="Vector_20" d="M167.693 610.12L151.128 598.894V591.57L149.252 591.68H149.242L137.447 592.381H137.437L133.706 592.591L131.576 617.633L131.515 618.464H139.333L139.486 617.633L140.729 611.22L143.9 617.633L144.308 618.464H165.042C166 618.471 166.935 618.18 167.713 617.633C168.329 617.217 168.831 616.659 169.178 616.009C169.524 615.359 169.704 614.635 169.701 613.902C169.702 613.159 169.52 612.427 169.17 611.769C168.82 611.11 168.314 610.544 167.693 610.12V610.12Z" fill="#2F2E41"/>
<path id="Vector_21" d="M201.892 591.064L212.483 594.053L229.272 555.381L213.64 550.969L201.892 591.064Z" fill="#9E616A"/>
<path id="Vector_22" d="M227.532 611L214.769 595.712L216.838 588.669L215.003 588.269H214.993L204.769 586.017L203.454 585.727L199.815 584.927L190.415 609.189L197.918 611.32L201.313 604.727L202.699 612.661L207.429 613.992L220.304 617.633L222.639 618.294C223.308 618.479 224.011 618.515 224.697 618.401C225.383 618.287 226.034 618.025 226.604 617.633C227.477 617.038 228.115 616.165 228.408 615.162C228.616 614.451 228.644 613.7 228.491 612.975C228.339 612.251 228.01 611.573 227.532 611V611Z" fill="#2F2E41"/>
<path id="Vector_23" d="M219.173 166.456C217.111 170.169 214.249 173.397 210.786 175.912C207.323 178.428 203.342 180.173 199.121 181.023C198.652 181.123 198.183 181.203 197.704 181.273C191.081 182.289 184.303 181.076 178.473 177.831C172.642 174.585 168.102 169.499 165.591 163.399C163.08 157.3 162.745 150.546 164.643 144.236C166.54 137.926 170.557 132.432 176.04 128.648C181.523 124.863 188.149 123.011 194.841 123.393C201.533 123.775 207.896 126.368 212.896 130.75C217.895 135.132 221.236 141.046 222.376 147.529C223.516 154.012 222.387 160.683 219.173 166.456V166.456Z" fill="#9E616A"/>
<path id="Vector_24" d="M266.204 490.335C267.136 487.921 267.481 485.325 267.208 482.757C266.936 480.188 266.055 477.718 264.635 475.544L239.245 346.287L229.257 297.27H169.326C169.326 297.27 131.869 337.954 139.86 389.911L137.623 463.083C135.502 468.102 134.978 473.634 136.122 478.951L137.012 483.09L136.668 483.713C135.033 486.683 134.155 489.997 134.108 493.372C134.061 496.748 134.848 500.084 136.4 503.096L133.867 585.977L151.846 584.997L178.316 488.434L195.796 401.675L225.261 468.828L226.26 484.513L225.776 498.339L202.787 579.115L222.265 586.467L266.204 490.335Z" fill="#2F2E41"/>
<path id="Vector_25" d="M219.672 220.573L205.615 206.696L206.308 203.074C206.652 201.234 206.376 199.334 205.521 197.662C204.665 195.99 203.277 194.638 201.568 193.81L183.27 184.985C182.024 184.385 180.65 184.085 179.262 184.109C177.875 184.133 176.513 184.481 175.289 185.125C174.066 185.768 173.016 186.688 172.227 187.809C171.438 188.929 170.932 190.218 170.751 191.569L168.651 207.487C168.468 207.827 167.775 209.178 166.785 211.349C163.404 218.915 160.779 226.786 158.946 234.85C157.961 239.172 157.246 243.549 156.806 247.957C155.715 257.788 156.475 267.731 159.048 277.292C159.945 280.433 160.435 281.284 160.72 281.604C160.5 283.01 160.358 284.426 160.292 285.846L160.261 286.356L161.271 286.396L168.243 286.677L218.011 288.698L224.178 288.948L225.738 289.008L229.336 269.648L230.376 264.055C231.161 262.484 244.281 235.141 219.672 220.573Z" fill="#4592AF"/>
<path id="Vector_26" d="M267.919 332.922C268.506 331.459 268.758 329.889 268.659 328.321C268.56 326.752 268.112 325.224 267.346 323.844C266.581 322.465 265.516 321.266 264.227 320.334C262.939 319.401 261.457 318.758 259.888 318.448L207.673 235.039L189.783 250.468L246.734 327.604C246.378 330.227 247.015 332.886 248.524 335.078C250.033 337.27 252.309 338.843 254.92 339.498C257.532 340.154 260.297 339.846 262.693 338.634C265.089 337.422 266.948 335.389 267.919 332.922V332.922Z" fill="#9E616A"/>
<path id="Vector_27" d="M219.356 241.364L203.912 222.514C202.175 219.61 199.388 217.454 196.105 216.475C192.822 215.497 189.284 215.766 186.195 217.232C185.871 217.379 185.554 217.543 185.247 217.722C182.137 219.508 179.874 222.431 178.953 225.851C178.032 229.271 178.528 232.909 180.333 235.971L183.106 242.734L189.569 258.482C189.832 259.125 190.234 259.704 190.745 260.18C191.257 260.657 191.868 261.019 192.535 261.244C193.203 261.468 193.911 261.548 194.613 261.479C195.315 261.41 195.994 261.193 196.603 260.844L197.194 260.503L216.624 249.338L218.01 248.537C218.619 248.189 219.145 247.715 219.549 247.149C219.954 246.582 220.229 245.936 220.355 245.256C220.481 244.575 220.457 243.875 220.284 243.204C220.112 242.532 219.796 241.905 219.356 241.364Z" fill="#4592AF"/>
<g id="sun_clouds">
<path id="cloud_2" d="M308.812 67.1665C304.348 64.0741 299.465 60.8493 294.003 60.9782C280.782 61.2902 273.655 80.311 260.448 79.6421C252.026 79.2155 246.435 70.8184 238.593 67.7737C228.384 63.8099 215.392 71.5621 214.278 82.282L215.589 81.1042C255.275 90.5996 296.459 92.467 336.868 86.6031C327.516 80.1242 318.164 73.6454 308.812 67.1665Z" fill="#F0F0F0"/>
<path id="sun" d="M333.548 90.0454C358.883 90.0454 379.421 69.888 379.421 45.0227C379.421 20.1573 358.883 0 333.548 0C308.213 0 287.675 20.1573 287.675 45.0227C287.675 69.888 308.213 90.0454 333.548 90.0454Z" fill="#FF6584"/>
<path id="cloud_1" d="M120.931 25.8979C115.242 21.9569 109.018 17.8472 102.057 18.0115C85.2096 18.4091 76.126 42.6495 59.2954 41.797C48.5621 41.2534 41.437 30.5519 31.4431 26.6717C18.4321 21.6202 1.87452 31.4997 0.455078 45.1613L2.12601 43.6603C52.7025 55.7615 105.187 58.1412 156.685 50.6682C144.767 42.4115 132.849 34.1547 120.931 25.8979Z" fill="#F0F0F0"/>
</g>
<path id="hair" d="M207.368 126.906C197.653 120.349 189.098 119.35 182.071 121.21C181.16 119.827 179.883 118.713 178.376 117.989C172.895 104.435 156.216 96.2952 141.902 100.252C127.495 104.235 117.555 119.897 120.266 134.344C121.946 143.299 127.688 151.053 129.997 159.871C134.468 176.943 123.562 196.498 106.5 202.001C122.654 205.184 140.436 195.5 146.232 180.362C149.046 173.009 149.216 164.981 149.574 157.135C149.931 149.288 150.576 141.205 154.199 134.202C156.628 129.398 160.662 125.557 165.627 123.32C165.183 124.67 165.071 126.104 165.303 127.504C165.534 128.904 166.102 130.231 166.958 131.373C163.17 136.031 161.108 141.068 161.108 144.085C153.238 158.202 164.492 170.328 178.876 178.052C184.613 181.149 191.238 182.282 197.704 181.274L198.306 178.752L199.121 181.023L201.843 188.637C204.983 190.128 208.095 191.762 211.181 193.54C210.009 188.137 209.06 182.744 208.408 177.472C207.504 170.295 210.654 159.611 212.925 153.114C214.334 149.11 215.057 144.904 215.065 140.668V140.483L217.277 147.457L225.33 144.085C223.832 135.651 225.33 126.076 207.368 126.906Z" fill="#2F2E41"/>
</g>
</svg>
