<svg width="761" height="1064" viewBox="0 0 761 1064" fill="none" xmlns="http://www.w3.org/2000/svg">
<g id="windy_day">
<path id="Vector" d="M760.482 1008.23C672.462 1028.69 557.276 1024.82 433.675 1008.38C332.576 994.931 218.562 961.295 126.026 922.137C135.579 911.978 148.084 905.461 161.559 903.619C161.937 903.559 162.326 903.5 162.714 903.455C169.537 902.597 176.433 902.598 183.255 903.459C269.672 913.658 253.812 963.392 370.388 907.614C442.888 872.925 520.875 868.044 572.365 879.824C573.314 880.041 574.25 880.263 575.185 880.491C604.97 887.797 625.34 900.811 629.743 916.839C641.765 960.562 587.959 987.103 680.311 989.019C705.936 989.55 734.644 1001.58 760.482 1008.23Z" fill="#3F3D56"/>
<path id="Vector_2" d="M272.782 518.932C272.782 518.932 255.354 603.892 279.12 602.226C302.886 600.56 291.795 523.93 291.795 523.93L272.782 518.932Z" fill="#A0616A"/>
<path id="Vector_3" d="M367.846 923.74L378.937 985.378L404.288 982.046L396.365 915.411L367.846 923.74Z" fill="#A0616A"/>
<path id="Vector_4" d="M496.183 863.768L502.521 908.747H535.793L529.455 867.101L496.183 863.768Z" fill="#A0616A"/>
<path id="Vector_5" d="M342.496 477.285C342.496 477.285 315.561 532.259 325.067 668.861C334.574 805.463 334.574 935.402 334.574 935.402L402.703 930.404L421.716 590.565L496.183 885.425L545.299 880.428L532.624 592.231L493.014 453.963L342.496 477.285Z" fill="#2F2E41"/>
<path id="Vector_6" d="M388.443 957.058C388.443 957.058 393.197 942.065 385.275 942.065H367.846C367.846 942.065 348.833 978.714 337.743 982.046C326.652 985.378 291.795 1017.03 325.067 1020.36C358.34 1023.69 409.041 1005.37 409.041 998.705C409.041 992.041 404.287 963.722 404.287 963.722L388.443 957.058Z" fill="#2F2E41"/>
<path id="Vector_7" d="M527.871 898.752C527.871 898.752 498.745 890.282 500.633 895.35C502.52 900.418 496.183 915.411 496.183 915.411C496.183 915.411 480.339 1010.37 527.871 1002.04C575.403 993.707 540.546 922.075 540.546 922.075L533.508 893.734L527.871 898.752Z" fill="#2F2E41"/>
<path id="Vector_8" d="M394.781 117.455C421.032 117.455 442.313 95.0801 442.313 67.4789C442.313 39.8777 421.032 17.5025 394.781 17.5025C368.53 17.5025 347.249 39.8777 347.249 67.4789C347.249 95.0801 368.53 117.455 394.781 117.455Z" fill="#A0616A"/>
<path id="Vector_9" d="M363.093 94.1329C363.093 94.1329 371.015 142.443 366.262 152.439C361.509 162.434 404.287 182.424 404.287 182.424L426.469 125.785V94.133L363.093 94.1329Z" fill="#A0616A"/>
<path id="Vector_10" d="M388.443 150.773C388.443 150.773 374.02 153.003 367.764 141.893C361.509 130.782 347.249 219.074 347.249 219.074C347.249 219.074 353.587 335.685 345.665 362.339C337.743 388.993 339.327 398.989 342.496 403.986C345.665 408.984 355.171 402.32 347.249 415.647C339.327 428.974 339.327 420.645 339.327 433.972C339.327 447.299 336.158 495.61 336.158 495.61L507.273 482.283L426.469 117.455C426.469 117.455 399.534 152.439 388.443 150.773Z" fill="#3F3D56"/>
<path id="Vector_11" d="M454.988 135.78C454.988 135.78 519.949 145.775 523.117 160.768C526.286 175.761 589.662 592.231 556.39 613.887C523.118 635.543 415.378 652.202 410.625 630.546C405.872 608.889 380.521 167.432 426.469 117.455L454.988 135.78Z" fill="#D0CDE1"/>
<path id="Vector_12" d="M546.492 574.604H533.188C533.188 574.604 537.281 524.032 533.188 519.369C533.188 519.369 496.005 515.065 458.48 558.106C458.48 558.106 464.962 511.12 513.402 508.609C528.93 507.806 537.905 514.297 542.927 523.494C553.577 542.984 546.492 574.604 546.492 574.604Z" fill="#3F3D56"/>
<path id="Vector_13" opacity="0.15" d="M546.492 574.604H533.188C533.188 574.604 537.281 524.032 533.188 519.369L542.927 523.494C553.577 542.984 546.492 574.604 546.492 574.604Z" fill="black"/>
<path id="Vector_14" d="M468.373 541.607L449.952 574.604H458.48C458.48 574.604 459.845 550.215 468.373 541.607Z" fill="#3F3D56"/>
<path id="Vector_15" opacity="0.15" d="M468.373 541.607L449.952 574.604H458.48C458.48 574.604 459.845 550.215 468.373 541.607Z" fill="black"/>
<path id="Vector_16" d="M625.633 714.127C625.885 719.67 624.852 725.193 622.623 730.222C620.395 735.252 617.038 739.637 612.841 743C612.841 743 443.3 785.324 424.538 781.737C422.231 781.283 419.991 780.511 417.876 779.441C402.921 771.981 393.496 751.609 393.496 751.609C393.496 751.609 393.212 746.343 392.793 737.764C391.988 721.172 390.685 692.18 389.965 664.889C389.255 637.924 389.115 612.624 390.596 602.581C394.348 577.115 420.274 574.963 420.274 574.963L592.885 567.072C598.555 567.012 604.205 567.79 609.669 569.382C628.328 575.275 625.633 590.386 625.633 590.386C625.633 590.386 624.951 694.759 625.633 714.127Z" fill="#575A89"/>
<path id="Vector_17" d="M609.669 569.382C599.09 572.847 573.659 580.487 564.571 577.115C552.973 572.811 463.256 575.681 430.508 579.626C397.76 583.571 409.358 676.826 409.358 676.826L389.965 664.889C389.255 637.924 389.115 612.624 390.596 602.581C394.348 577.115 420.274 574.963 420.274 574.963L592.885 567.072C598.555 567.012 604.205 567.79 609.669 569.382V569.382Z" fill="#3F3D56"/>
<path id="Vector_18" d="M485.771 636.296C485.771 636.296 469.341 539.736 499.559 526.504L503.509 526.543C503.509 526.543 493.958 539.813 497.71 564.203C501.463 588.593 499.416 644.187 499.416 644.187C499.416 644.187 487.818 651.36 485.771 636.296Z" fill="#2F2E41"/>
<path id="Vector_19" d="M497.71 529.771C497.71 529.771 515.79 499.284 548.88 516.141C581.969 532.999 585.039 571.376 585.039 571.376C585.039 571.376 562.184 501.077 497.71 529.771Z" fill="#2F2E41"/>
<path id="Vector_20" d="M587.427 640.242L581.969 603.298L584.699 568.708L591.52 604.374L594.59 640.242H587.427Z" fill="#2F2E41"/>
<path id="Vector_21" d="M526.023 635.937L545.127 630.915L564.571 633.426V642.393L546.833 648.132L526.023 645.979V635.937Z" fill="#2F2E41"/>
<path id="Vector_22" d="M414.816 765.776C415.287 770.448 416.315 775.039 417.876 779.441C402.921 771.981 393.495 751.609 393.495 751.609C393.495 751.609 393.212 746.343 392.793 737.764L405.264 743.18L414.816 765.776Z" fill="#3F3D56"/>
<path id="Vector_23" d="M423.003 785.503C422.128 785.287 421.328 784.817 420.694 784.147C423.252 785.23 424.33 785.797 423.003 785.503Z" fill="#2F2E41"/>
<path id="Vector_24" d="M367.754 138.279L306.054 202.415L328.236 410.65C328.236 410.65 283.873 657.2 309.223 657.2C334.574 657.2 331.405 660.532 336.158 642.207C340.911 623.882 367.754 138.279 367.754 138.279Z" fill="#D0CDE1"/>
<path id="Vector_25" d="M321.898 197.417L306.054 202.415C306.054 202.415 291.795 214.076 293.379 239.064C294.964 264.052 291.795 335.685 291.795 335.685C291.795 335.685 282.288 350.678 287.042 369.003L264.86 528.927L313.977 537.257L331.405 453.963L321.898 197.417Z" fill="#D0CDE1"/>
<path id="Vector_26" d="M518.364 462.292C518.364 462.292 499.351 567.242 518.364 560.579C537.377 553.915 561.143 480.617 545.299 468.956C529.455 457.294 518.364 462.292 518.364 462.292Z" fill="#A0616A"/>
<path id="Vector_27" d="M347.136 73.3395C347.136 73.3395 342.284 65.6863 344.15 57.4443C345.265 52.7649 345.706 47.936 345.457 43.119C345.457 43.119 349.376 29.7749 353.295 22.3179C357.215 14.8608 355.349 11.7211 367.667 9.3662C379.985 7.01135 374.946 -9.86505 407.421 8.38501C408.517 9.99347 410.041 11.2246 411.801 11.9231C413.562 12.6216 415.48 12.7562 417.313 12.3098C424.032 10.9361 426.458 20.748 426.458 20.748C426.458 20.748 430.937 18.0006 432.617 21.9254C434.297 25.8501 446.274 19.5698 446.274 46.0619C446.274 72.5539 432.645 96.2181 432.645 96.2181C432.645 96.2181 433.644 51.6553 411.434 47.1419C389.224 42.6284 365.334 29.4805 359.548 46.3569C356.425 55.8289 352.259 64.8845 347.136 73.3395V73.3395Z" fill="#2F2E41"/>
<path id="Vector_28" d="M59.1541 975.919C46.6732 972.316 0.143555 977.181 0.143555 977.181C2.27348 981.543 4.77706 985.692 7.62322 989.577L16.8452 983.512L10.5619 993.251C12.2521 995.227 14.1284 997.017 16.162 998.594L30.355 989.26L22.2311 1001.85C22.3168 1001.88 22.402 1001.91 22.4879 1001.93C34.9687 1005.54 53.2945 1002.63 63.4195 995.451C73.5446 988.267 71.6349 979.523 59.1541 975.919Z" fill="#3F3D56"/>
<path id="Vector_29" d="M93.4449 955.317C80.964 951.713 34.4343 956.579 34.4343 956.579C36.5643 960.941 39.0678 965.09 41.914 968.974L51.1359 962.909L44.8527 972.649C46.5429 974.624 48.4192 976.414 50.4528 977.992L64.6458 968.658L56.5219 981.25C56.6076 981.277 56.6928 981.305 56.7787 981.33C69.2595 984.934 87.5853 982.032 97.7104 974.848C107.835 967.665 105.926 958.92 93.4449 955.317Z" fill="#3F3D56"/>
<path id="Vector_30" d="M458.396 1036.44C445.915 1032.83 399.386 1037.7 399.386 1037.7C401.516 1042.06 404.019 1046.21 406.866 1050.1L416.088 1044.03L409.804 1053.77C411.494 1055.75 413.371 1057.54 415.404 1059.11L429.597 1049.78L421.473 1062.37C421.559 1062.4 421.644 1062.43 421.73 1062.45C434.211 1066.06 452.537 1063.15 462.662 1055.97C472.787 1048.79 470.877 1040.04 458.396 1036.44Z" fill="#3F3D56"/>
<path id="Vector_31" d="M93.4449 1008.11C80.964 1004.51 34.4343 1009.37 34.4343 1009.37C36.5643 1013.73 39.0678 1017.88 41.914 1021.77L51.1359 1015.7L44.8527 1025.44C46.5429 1027.42 48.4192 1029.21 50.4528 1030.79L64.6458 1021.45L56.5219 1034.04C56.6076 1034.07 56.6928 1034.1 56.7787 1034.12C69.2595 1037.73 87.5853 1034.83 97.7104 1027.64C107.835 1020.46 105.926 1011.71 93.4449 1008.11Z" fill="#3F3D56"/>
<path id="Vector_32" d="M496.183 150.773C496.183 150.773 532.624 144.109 540.546 194.086C548.468 244.062 569.065 342.349 569.065 342.349L563.408 492.319L510.442 473.953L512.027 359.008L485.092 187.422L496.183 150.773Z" fill="#D0CDE1"/>
<path id="Vector_33" opacity="0.15" d="M482.715 218.241L503.312 359.841L498.559 479.784L520.741 363.172L482.715 218.241Z" fill="black"/>
<g id="leaves">
<path id="Vector_34" d="M44.9328 622.917C34.4093 632.102 15.8581 677.25 15.8581 677.25C21.7944 677.909 27.7687 678.108 33.7328 677.844L31.6451 665.857L39.4046 677.365C42.4319 677.025 45.4225 676.388 48.3375 675.464L45.1245 657.015L55.157 671.895C55.2311 671.833 55.3077 671.773 55.3801 671.71C65.9037 662.524 72.0961 644.156 69.2111 630.682C66.3262 617.208 55.4564 613.731 44.9328 622.917Z" fill="#4592AF"/>
<path id="Vector_35" d="M325.382 823.79C314.859 832.975 296.307 878.123 296.307 878.123C302.244 878.782 308.218 878.981 314.182 878.717L312.094 866.73L319.854 878.239C322.881 877.898 325.872 877.261 328.787 876.337L325.574 857.888L335.606 872.768C335.681 872.706 335.757 872.646 335.829 872.583C346.353 863.397 352.545 845.029 349.66 831.555C346.775 818.081 335.906 814.604 325.382 823.79Z" fill="#4592AF"/>
<path id="Vector_36" d="M284.194 401.919C275.232 411.737 257.118 457.062 257.118 457.062C261.78 457.173 266.443 456.837 271.047 456.058L270.373 444.643L275.52 455.094C277.977 454.473 280.369 453.592 282.657 452.465L281.619 434.897L288.274 448.409C288.337 448.342 288.402 448.277 288.464 448.209C297.426 438.392 303.736 420.071 302.557 407.288C301.378 394.505 293.157 392.102 284.194 401.919Z" fill="#4592AF"/>
<path id="Vector_37" d="M619.276 550.711C615.454 556.888 613.026 572.453 611.575 585.973L618.779 594.047L611.053 591.171C610.103 601.29 609.73 609.189 609.73 609.189C609.73 609.189 640.743 602.126 648.092 590.249C655.442 578.372 654.949 559.893 646.992 548.975C639.034 538.057 626.626 538.835 619.276 550.711Z" fill="#4592AF"/>
<path id="Vector_38" d="M651.547 778.636C648.046 784.813 645.819 800.379 644.488 813.899L651.08 821.971L644.008 819.097C643.135 829.218 642.792 837.116 642.792 837.116C642.792 837.116 671.187 830.044 677.919 818.165C684.651 806.286 684.205 787.807 676.922 776.892C669.64 765.976 658.279 766.757 651.547 778.636Z" fill="#4592AF"/>
<path id="Vector_39" d="M645.021 101.419C634.497 110.605 615.946 155.752 615.946 155.752C621.882 156.411 627.857 156.61 633.821 156.347L631.733 144.359L639.493 155.868C642.52 155.527 645.511 154.891 648.426 153.967L645.213 135.518L655.245 150.398C655.319 150.336 655.396 150.276 655.468 150.212C665.992 141.027 672.184 122.658 669.299 109.184C666.414 95.7105 655.545 92.234 645.021 101.419Z" fill="#4592AF"/>
</g>
</g>
</svg>
