<svg width="363" height="600" viewBox="0 0 363 600" fill="none" xmlns="http://www.w3.org/2000/svg">
<g id="winter">
<path id="Vector" d="M46.7228 317.852C47.7792 316.822 48.599 315.574 49.1257 314.196C49.6524 312.817 49.8733 311.34 49.7732 309.868C49.6731 308.396 49.2544 306.963 48.546 305.668C47.8376 304.373 46.8565 303.248 45.6704 302.37L57.4539 252.97L44.5911 246.351L31.0247 305.127C29.6951 307.233 29.1843 309.754 29.5891 312.212C29.994 314.67 31.2864 316.894 33.2214 318.462C35.1564 320.031 37.5996 320.835 40.088 320.723C42.5764 320.61 44.9372 319.589 46.7228 317.852Z" fill="#FFB6B6"/>
<path id="Vector_2" d="M72.9423 164.184C72.9423 164.184 49.6449 172.025 47.94 184.582C46.2351 197.139 42.9427 208.269 44.0249 213.354C45.1072 218.439 39.3128 223.97 41.6996 227.839C44.0865 231.709 37.9986 232.738 40.2965 239.128C42.5944 245.518 43.8101 246.823 42.5055 248.038C41.2009 249.254 36.1688 275.004 36.1688 275.004L53.9275 279.608L79.1553 227.321L72.9423 164.184Z" fill="#3F3D56"/>
<path id="Vector_3" d="M49.302 303.13C49.5146 303.448 49.721 303.772 49.9085 304.113C50.8949 305.899 51.4779 307.879 51.6166 309.914C52.4457 310.244 53.2277 310.682 53.9421 311.217C55.1502 312.148 56.1408 313.331 56.8447 314.684C57.5485 316.037 57.9488 317.527 58.0175 319.051C58.0908 320.07 57.9056 321.092 57.4792 322.02C57.2622 322.482 56.943 322.888 56.5456 323.207C56.1482 323.527 55.6832 323.752 55.1859 323.865C53.8055 324.115 52.4787 323.278 51.3706 322.418C50.7023 321.899 50.0546 321.354 49.4241 320.79C49.0473 321.752 48.6458 322.714 48.2284 323.677C41.2104 339.864 29.7525 336.273 26.9973 316.699C26.1285 310.528 25.9022 304.379 29.9259 300.576C28.5577 294.051 30.5773 287.759 36.3679 281.727L50.7281 287.508C52.6846 292.538 52.2808 297.74 49.302 303.13Z" fill="#4592AF"/>
<path id="Vector_4" d="M265.985 165.63L243.57 175.887C244.092 191.957 261.49 224.438 261.49 224.438L272.1 285.095C271.351 286.854 271.078 288.779 271.309 290.677C271.54 292.574 272.267 294.378 273.417 295.905C274.567 297.433 276.099 298.63 277.859 299.377C279.618 300.125 281.544 300.395 283.441 300.161C285.339 299.928 287.141 299.199 288.667 298.047C290.193 296.895 291.389 295.362 292.134 293.602C292.879 291.841 293.148 289.915 292.912 288.018C292.676 286.121 291.945 284.319 290.791 282.794L288.041 206.02L265.985 165.63Z" fill="#FFB8B8"/>
<path id="Vector_5" d="M226.081 110.75C229.574 109.199 233.366 108.438 237.187 108.519C241.008 108.6 244.764 109.523 248.188 111.221C251.612 112.919 254.619 115.351 256.996 118.343C259.374 121.336 261.062 124.815 261.942 128.535L265.524 143.68C265.524 143.68 291.454 189.676 289.159 205.982L290.571 251.377L266.286 259.797L255.398 214.011C255.398 214.011 248.413 191.995 238.684 185.426C232.726 181.402 220.518 162.125 212.829 145.001C211.447 141.882 210.693 138.522 210.611 135.111C210.529 131.701 211.12 128.308 212.351 125.127C213.582 121.945 215.428 119.038 217.784 116.571C220.14 114.104 222.959 112.126 226.081 110.75V110.75Z" fill="#2F2E41"/>
<path id="Vector_6" d="M269.936 281.745C269.617 282.21 269.307 282.684 269.026 283.184C267.542 285.803 266.656 288.717 266.431 291.718C265.197 292.186 264.031 292.816 262.963 293.591C261.16 294.938 259.676 296.665 258.616 298.65C257.557 300.635 256.947 302.83 256.832 305.077C256.713 306.586 256.979 308.099 257.602 309.478C257.922 310.166 258.393 310.773 258.98 311.254C259.566 311.735 260.254 312.077 260.992 312.255C263.041 312.657 265.02 311.45 266.675 310.203C267.673 309.451 268.641 308.66 269.583 307.841C270.133 309.271 270.721 310.702 271.331 312.135C281.601 336.215 298.66 331.166 302.945 302.301C304.296 293.199 304.692 284.117 298.75 278.406C296.295 269.599 292.582 260.392 289.362 250.404L267.969 258.625C268.264 264.807 269.63 272.201 269.936 281.745Z" fill="#4592AF"/>
<path id="Vector_7" d="M216.139 566.874L198.983 566.873L190.82 500.694L216.143 500.695L216.139 566.874Z" fill="#FFB6B6"/>
<path id="Vector_8" d="M216.744 584.772L163.983 584.77V584.103C163.983 578.657 166.147 573.434 169.998 569.583C173.849 565.731 179.073 563.568 184.519 563.568H184.52L194.158 556.256L212.139 563.569L216.744 563.569L216.744 584.772Z" fill="#2F2E41"/>
<path id="Vector_9" d="M346.868 476.569L338.743 491.68L276.589 467.531L288.581 445.228L346.868 476.569Z" fill="#FFB6B6"/>
<path id="Vector_10" d="M362.919 484.512L337.933 530.982L337.345 530.666C332.549 528.086 328.973 523.707 327.404 518.492C325.836 513.276 326.404 507.651 328.982 502.854L328.983 502.853L327.107 490.902L342.062 478.527L344.243 474.471L362.919 484.512Z" fill="#2F2E41"/>
<path id="Vector_11" d="M183.701 263.812L168.559 384.955L176.13 425.569L312.416 485.277L319.988 460.669C285.151 439.353 247.911 407.091 224.447 404.72C224.447 404.72 275.505 287.472 273.612 278.008C271.72 268.544 183.701 263.812 183.701 263.812Z" fill="#2F2E41"/>
<path id="Vector_12" d="M181.093 384.605L173.171 435.764L193.166 540.17H219.666C229.186 505.089 229.677 458.982 220.612 419.973L181.093 384.605Z" fill="#2F2E41"/>
<path id="Vector_13" d="M198.119 115.799L210.335 94.5119L223.452 83.9897L248.059 80.204L254.895 85.4607V85.4608C279.499 123.064 288.674 168.698 280.515 212.888L273.797 249.275L280.789 286.419C281.278 288.74 281.244 291.14 280.689 293.446C280.135 295.751 279.074 297.904 277.583 299.749C276.093 301.594 274.211 303.083 272.073 304.11C269.936 305.136 267.596 305.674 265.225 305.684L166.631 299.797C149.704 299.867 173.035 281.259 175.572 264.523L198.119 115.799Z" fill="#2F2E41"/>
<path id="Vector_14" d="M246.044 189.1L221.643 185.605C213.391 199.405 210.458 236.134 210.458 236.134L186.578 292.893C184.996 293.967 183.726 295.439 182.894 297.161C182.062 298.882 181.698 300.792 181.839 302.699C181.98 304.605 182.621 306.441 183.697 308.021C184.773 309.601 186.247 310.87 187.969 311.7C189.691 312.53 191.602 312.891 193.508 312.748C195.415 312.605 197.25 311.962 198.829 310.884C200.408 309.806 201.675 308.331 202.502 306.608C203.33 304.884 203.689 302.973 203.544 301.067L242.753 235.002L246.044 189.1Z" fill="#FFB8B8"/>
<path id="Vector_15" d="M242.16 121.358C245.937 121.943 249.539 123.353 252.709 125.488C255.879 127.623 258.539 130.43 260.5 133.71C262.462 136.99 263.677 140.662 264.058 144.465C264.439 148.267 263.977 152.108 262.706 155.712L257.528 170.388C257.528 170.388 254.927 223.105 244.177 235.58L217.521 281.622L192.076 270.717L206.616 224.675C206.616 224.675 217.005 201.773 212.375 190.986C209.539 184.38 209.696 161.562 212.49 143C213.014 139.629 214.197 136.395 215.973 133.482C217.748 130.569 220.08 128.035 222.836 126.025C225.592 124.015 228.718 122.568 232.034 121.767C235.349 120.966 238.791 120.827 242.16 121.358V121.358Z" fill="#2F2E41"/>
<path id="Vector_16" d="M229.308 74.2738C247.177 74.2738 261.664 59.7875 261.664 41.9178C261.664 24.0481 247.177 9.56189 229.308 9.56189C211.438 9.56189 196.952 24.0481 196.952 41.9178C196.952 59.7875 211.438 74.2738 229.308 74.2738Z" fill="#FFB8B8"/>
<path id="Vector_17" d="M229.856 73.3547C234.59 73.4285 239.322 73.0978 244 72.3662C248.637 71.4233 259.01 63.8218 261.902 59.2476C264.05 55.849 265.424 50.5418 266.198 46.6884C267.241 41.5891 267.201 36.3276 266.081 31.2446C264.962 26.1616 262.787 21.3705 259.698 17.1815C258.51 15.4294 256.871 14.0307 254.955 13.1334C254.785 13.067 254.61 13.0081 254.433 12.9578C251.64 12.2228 249.13 10.6698 247.226 8.49807C246.857 8.05882 246.456 7.64673 246.028 7.265C243.876 5.44875 241.324 4.16761 238.582 3.52629C234.156 2.34169 227.75 3.51756 219.543 7.02462C215.42 8.78662 210.911 8.14897 207.442 7.3965C207.248 7.35892 207.047 7.37294 206.859 7.43717C206.672 7.5014 206.504 7.61361 206.374 7.76262C204.898 9.14815 202.952 9.92371 200.928 9.93342C199.688 9.98786 198.387 11.7046 196.815 13.9433C196.458 14.4515 196.042 15.0446 195.741 15.4053L195.701 14.7123L195 15.4854C193.897 16.7006 193.12 18.175 192.741 19.7713C192.362 21.3676 192.393 23.0339 192.831 24.615C193.269 26.1962 194.1 27.6407 195.247 28.8142C196.394 29.9876 197.819 30.8518 199.39 31.3262C200.637 31.658 201.915 31.8617 203.203 31.9339C203.984 32.0041 204.791 32.0768 205.565 32.211C208.048 32.7195 210.357 33.8632 212.266 35.5305C214.176 37.1978 215.62 39.3316 216.458 41.7237C216.656 42.2767 216.979 42.7766 217.401 43.1851C217.823 43.5935 218.334 43.8995 218.893 44.0793C219.452 44.2592 220.045 44.3082 220.626 44.2225C221.207 44.1367 221.761 43.9186 222.244 43.585C223.05 42.9573 223.996 42.534 225.001 42.351C226.006 42.168 227.041 42.2308 228.016 42.534C228.859 43.0027 229.515 43.747 229.875 44.6421C230.311 45.6393 231.035 46.4839 231.954 47.068C235.096 48.688 235.313 55.8649 234.184 61.8477C233.096 67.6146 230.946 71.7865 228.955 71.9927C227.422 72.1513 227.247 72.2602 227.136 72.5313L227.037 72.7739L227.209 73.0009C228.056 73.3078 228.958 73.4285 229.856 73.3547V73.3547Z" fill="#2F2E41"/>
<path id="Vector_18" d="M273.263 89.896C271.61 96.4643 263.588 98.7124 256.903 99.8008C245.76 101.615 222.213 103.357 222.213 103.357C217.083 106.723 211.549 110.213 205.414 110.16C199.279 110.106 192.825 104.749 194.081 98.743C194.653 96.0064 196.63 93.7952 198.674 91.8879C213.044 78.4794 233.775 73.7498 253.414 74.5321C258.228 74.7239 263.218 75.2725 267.336 77.7736C271.453 80.2747 274.439 85.2239 273.263 89.896Z" fill="#4592AF"/>
<path id="Vector_19" d="M172.578 189.476C172.688 184.836 174.467 180.419 176.22 176.122L190.765 140.466C195.538 128.764 200.312 117.062 205.085 105.36C206.333 102.302 207.673 99.1148 210.215 97.0063C214.679 93.3043 221.216 94.0835 226.932 95.0642L223.343 94.9909C229.415 99.2998 228.973 108.798 225.216 115.227C221.459 121.655 215.335 126.351 210.981 132.392C196.573 152.38 204.164 182.38 189.74 202.357C187.978 204.799 185.573 207.196 182.564 207.3C179.554 207.404 176.65 203.747 178.457 201.338C174.391 199.099 172.469 194.116 172.578 189.476Z" fill="#4592AF"/>
<path id="Vector_20" d="M183.036 291.815C182.502 291.998 181.97 292.193 181.445 292.425C178.691 293.639 176.239 295.446 174.266 297.718C172.997 297.357 171.685 297.165 170.366 297.148C168.116 297.151 165.894 297.649 163.858 298.608C161.822 299.566 160.022 300.962 158.586 302.695C157.59 303.834 156.898 305.206 156.575 306.684C156.42 307.427 156.435 308.195 156.618 308.931C156.801 309.668 157.148 310.353 157.634 310.936C159.036 312.483 161.345 312.697 163.417 312.686C164.666 312.68 165.914 312.624 167.16 312.53C166.747 314.005 166.362 315.504 165.996 317.017C159.843 342.463 176.539 348.607 197.222 328.021C203.743 321.53 209.487 314.484 208.136 306.354C211.934 298.2 213.306 288.083 217.339 278.292L195.273 272.101C190.808 278.425 186.722 285.008 183.036 291.815V291.815Z" fill="#4592AF"/>
<path id="Vector_21" d="M173.37 316.14C172.219 315.216 171.282 314.054 170.625 312.732C169.968 311.411 169.605 309.963 169.563 308.488C169.52 307.013 169.799 305.546 170.379 304.189C170.959 302.832 171.827 301.617 172.923 300.629L156.426 252.596L168.59 244.767L187.766 301.959C189.293 303.927 190.045 306.387 189.879 308.872C189.713 311.358 188.642 313.696 186.867 315.444C185.092 317.192 182.738 318.229 180.251 318.357C177.763 318.485 175.315 317.696 173.37 316.14V316.14Z" fill="#FFB6B6"/>
<path id="Vector_22" d="M159.291 183.612C162.205 195.937 166.554 206.703 165.965 211.874C165.382 217.03 171.683 221.985 169.68 226.06C167.682 230.146 173.834 230.583 172.17 237.159C170.501 243.749 169.416 245.158 170.826 246.243C172.245 247.323 179.744 272.475 179.744 272.475L175.345 274.087L162.51 278.769L132.349 229.16L132.44 168.268L139.929 168.028C141.727 168.702 143.719 169.511 145.705 170.485C151.771 173.414 157.909 177.743 159.291 183.612Z" fill="#3F3D56"/>
<path id="Vector_23" d="M48.225 569.987L32.541 569.986L25.079 509.488L48.228 509.489L48.225 569.987Z" fill="#FFB6B6"/>
<path id="Vector_24" d="M0.884401 593.129C0.892012 594.886 1.59244 596.569 2.83362 597.813C4.0748 599.057 5.75648 599.76 7.51349 599.772H37.0396L37.9545 597.876L42.1308 589.258L43.7483 597.876L44.1063 599.772H55.2432L55.084 597.862L52.1143 562.251L48.2296 562.012L31.4447 561.018L27.3213 560.766V571.399C24.1924 574.727 -0.361879 587.309 0.884401 593.129Z" fill="#2F2E41"/>
<path id="Vector_25" d="M231.979 552.914L218.337 560.654L181.992 511.718L202.126 500.295L231.979 552.914Z" fill="#FFB6B6"/>
<path id="Vector_26" d="M202.224 596.404C203.092 597.934 204.531 599.058 206.227 599.527C207.922 599.997 209.734 599.775 211.266 598.91L212.817 598.035H212.831L236.947 584.339L236.178 572.685L243.099 580.852L248.204 577.948L252.778 575.35L248.734 569.437L231.538 544.259L228.038 545.983L212.937 553.394L209.251 555.211L214.488 564.451C213.414 568.906 198.273 591.949 202.224 596.404Z" fill="#2F2E41"/>
<path id="Vector_27" d="M126.062 273.015C147.08 286.943 167.887 420.753 162.427 418.569L211.966 510.894L141.454 542.502L95.0901 381.517L87.3629 440.76L97.6658 534.774L52.0875 545.797L20.562 543.545C28.7538 431.481 49.2069 313.288 66.1571 267.569L126.062 273.015Z" fill="#2F2E41"/>
<path id="Vector_28" d="M142.021 282.953L221.551 472.27C199.331 484.632 20.0505 414.543 20.0505 414.543L62.5289 271.859L55.7786 180.101C55.7963 177.29 56.3916 174.512 57.5276 171.941C58.6637 169.37 60.3161 167.06 62.3823 165.154C64.4486 163.248 66.8845 161.787 69.5389 160.862C72.1934 159.937 75.0096 159.567 77.8128 159.776L93.7804 147.948L116.512 148.732L131.717 165.527L140.801 168.773L147.859 171.289C149.285 172.574 150.843 174.056 152.335 175.689L141.171 242.13L136.422 261.997L142.021 282.953Z" fill="#3F3D56"/>
<path id="Vector_29" d="M142.78 151.863C140.474 146.228 133.05 145.247 126.963 145.128C116.816 144.93 106.669 144.733 96.5217 144.535L95.6397 146.374C90.6467 144.031 85.2785 141.628 79.8255 142.456C74.3724 143.283 69.3101 148.871 71.1914 154.056C72.0485 156.419 74.0886 158.135 76.1501 159.573C90.6426 169.678 109.693 171.251 127.07 168.058C131.329 167.276 135.7 166.153 139.046 163.404C142.393 160.655 144.42 155.871 142.78 151.863Z" fill="#4592AF"/>
<path id="Vector_30" d="M119.178 141.703C133.293 133.941 138.443 116.207 130.681 102.092C122.919 87.9778 105.184 82.8281 91.0696 90.5902C76.9551 98.3522 71.8054 116.087 79.5675 130.201C87.3295 144.316 105.064 149.465 119.178 141.703Z" fill="#FFB6B6"/>
<path id="Vector_31" d="M140.79 121.427C139.182 127.563 136.213 133.55 131.289 137.538C126.354 141.526 103.146 150.974 101.186 142.886C102.497 148.536 101.707 150.694 99.5991 152.715C99.2384 152.225 98.8561 151.758 98.4628 151.302C97.0143 149.633 95.2766 148.239 93.3332 147.187C93.2828 150.599 93.5283 154.009 94.0669 157.38C93.1983 158.181 92.3716 159.026 91.5899 159.913C87.8366 148.725 79.6094 135.326 85.5659 125.139C87.9299 121.096 85.9587 120.543 83.8649 120.079C80.2096 119.269 78.1937 104.267 77.3241 100.621C76.2451 96.0486 75.8179 90.7889 78.6512 87.0349C81.4845 83.2809 88.651 83.1212 90.1001 87.5941L93.1176 83.4911C97.017 74.9093 107.369 76.6258 116.728 77.7349C126.087 78.8331 134.348 85.4127 138.563 93.8433C142.767 102.274 143.174 112.304 140.79 121.427Z" fill="#2F2E41"/>
<path id="Vector_32" d="M169.284 301.602C169.062 301.913 168.846 302.231 168.649 302.567C167.611 304.323 166.971 306.285 166.773 308.316C165.935 308.621 165.14 309.037 164.411 309.551C163.176 310.446 162.152 311.6 161.409 312.932C160.666 314.264 160.223 315.742 160.11 317.263C160.007 318.28 160.163 319.306 160.562 320.247C160.765 320.715 161.073 321.13 161.461 321.461C161.849 321.791 162.307 322.03 162.801 322.157C164.173 322.448 165.524 321.649 166.656 320.821C167.339 320.322 168.003 319.796 168.649 319.251C168.998 320.223 169.371 321.197 169.761 322.171C176.306 338.555 187.863 335.298 191.185 315.812C192.233 309.668 192.637 303.529 188.726 299.61C190.282 293.128 188.446 286.78 182.833 280.582L168.311 285.945C166.21 290.916 166.462 296.128 169.284 301.602Z" fill="#4592AF"/>
<path id="Vector_33" d="M273.105 20.7589C276.668 20.7589 279.556 17.8709 279.556 14.3083C279.556 10.7457 276.668 7.85767 273.105 7.85767C269.543 7.85767 266.655 10.7457 266.655 14.3083C266.655 17.8709 269.543 20.7589 273.105 20.7589Z" fill="#4592AF"/>
<path id="Vector_34" d="M218.492 6.06735C216.144 1.96043 209.685 1.4465 206.222 4.66969C205.877 4.95457 205.611 5.32411 205.451 5.7423C205.321 6.52304 205.502 7.32335 205.953 7.97331C217.32 29.6154 231.422 49.7066 247.911 67.753C249.424 69.4074 251.058 71.1099 253.2 71.7693C254.601 72.2008 256.107 72.1432 257.472 71.6062C258.836 71.0692 259.977 70.0845 260.709 68.8137C261.44 67.5429 261.718 66.0613 261.497 64.6118C261.275 63.1624 260.568 61.8311 259.491 60.8363C264.087 61.6347 268.693 59.0747 271.878 55.6658C277.606 49.535 279.864 40.5876 278.618 32.2905C277.372 23.9933 272.861 16.3826 266.8 10.5817C263.479 7.30243 259.542 4.71268 255.216 2.96169C243.8 -1.43406 231.03 1.93835 219.279 5.33875L222.3 5.73475" fill="#4592AF"/>
<path id="Vector_35" d="M158.831 106.286C162.394 106.286 165.282 103.398 165.282 99.8353C165.282 96.2727 162.394 93.3846 158.831 93.3846C155.268 93.3846 152.38 96.2727 152.38 99.8353C152.38 103.398 155.268 106.286 158.831 106.286Z" fill="#4592AF"/>
<path id="Vector_36" d="M90.0515 83.889C86.6671 80.5835 80.3149 81.8607 77.869 85.91C77.6148 86.2787 77.4606 86.707 77.4213 87.1531C77.5113 87.9393 77.9042 88.6594 78.5165 89.1607C95.357 106.834 91.4804 134.33 112.261 147.14C114.169 148.317 116.207 149.506 118.448 149.552C119.906 149.548 121.321 149.066 122.479 148.181C123.637 147.296 124.473 146.056 124.859 144.651C125.561 141.832 133.511 142.021 130.919 140.711C135.558 140.218 152.866 121.095 154.994 116.944C158.821 109.477 158.538 100.253 155.065 92.616C151.591 84.9788 145.165 78.8971 137.745 74.9811C133.652 72.7384 129.156 71.3276 124.516 70.8303C112.332 69.734 106.286 71.2179 95.9186 77.7107" fill="#4592AF"/>
<g id="snowflakes">
<path id="Vector_37" d="M107.55 260.294C110.668 260.294 113.197 257.766 113.197 254.647C113.197 251.528 110.668 249 107.55 249C104.431 249 101.903 251.528 101.903 254.647C101.903 257.766 104.431 260.294 107.55 260.294Z" fill="#E6E7E8"/>
<path id="Vector_38" d="M211.55 227.294C214.668 227.294 217.197 224.766 217.197 221.647C217.197 218.528 214.668 216 211.55 216C208.431 216 205.903 218.528 205.903 221.647C205.903 224.766 208.431 227.294 211.55 227.294Z" fill="#E6E7E8"/>
<path id="Vector_39" d="M245.55 153.294C248.668 153.294 251.197 150.766 251.197 147.647C251.197 144.528 248.668 142 245.55 142C242.431 142 239.903 144.528 239.903 147.647C239.903 150.766 242.431 153.294 245.55 153.294Z" fill="#E6E7E8"/>
<path id="Vector_40" d="M138.55 425.294C141.668 425.294 144.197 422.766 144.197 419.647C144.197 416.528 141.668 414 138.55 414C135.431 414 132.903 416.528 132.903 419.647C132.903 422.766 135.431 425.294 138.55 425.294Z" fill="#E6E7E8"/>
<path id="Vector_41" d="M290.55 294.294C293.668 294.294 296.197 291.766 296.197 288.647C296.197 285.528 293.668 283 290.55 283C287.431 283 284.903 285.528 284.903 288.647C284.903 291.766 287.431 294.294 290.55 294.294Z" fill="#E6E7E8"/>
<path id="Vector_42" d="M122.55 355.294C125.668 355.294 128.197 352.766 128.197 349.647C128.197 346.528 125.668 344 122.55 344C119.431 344 116.903 346.528 116.903 349.647C116.903 352.766 119.431 355.294 122.55 355.294Z" fill="#E6E7E8"/>
<path id="Vector_43" d="M61.5496 371.294C64.6684 371.294 67.1967 368.766 67.1967 365.647C67.1967 362.528 64.6684 360 61.5496 360C58.4308 360 55.9026 362.528 55.9026 365.647C55.9026 368.766 58.4308 371.294 61.5496 371.294Z" fill="#E6E7E8"/>
<path id="Vector_44" d="M48.5496 506.294C51.6684 506.294 54.1967 503.766 54.1967 500.647C54.1967 497.528 51.6684 495 48.5496 495C45.4308 495 42.9026 497.528 42.9026 500.647C42.9026 503.766 45.4308 506.294 48.5496 506.294Z" fill="#E6E7E8"/>
<path id="Vector_45" d="M221.55 340.294C224.668 340.294 227.197 337.766 227.197 334.647C227.197 331.528 224.668 329 221.55 329C218.431 329 215.903 331.528 215.903 334.647C215.903 337.766 218.431 340.294 221.55 340.294Z" fill="#E6E7E8"/>
<path id="Vector_46" d="M67.5496 193.294C70.6684 193.294 73.1967 190.766 73.1967 187.647C73.1967 184.528 70.6684 182 67.5496 182C64.4308 182 61.9026 184.528 61.9026 187.647C61.9026 190.766 64.4308 193.294 67.5496 193.294Z" fill="#E6E7E8"/>
<path id="Vector_47" d="M231.55 24.2941C234.668 24.2941 237.197 21.7658 237.197 18.647C237.197 15.5283 234.668 13 231.55 13C228.431 13 225.903 15.5283 225.903 18.647C225.903 21.7658 228.431 24.2941 231.55 24.2941Z" fill="#E6E7E8"/>
<path id="Vector_48" d="M105.55 105.294C108.668 105.294 111.197 102.766 111.197 99.647C111.197 96.5283 108.668 94 105.55 94C102.431 94 99.9026 96.5283 99.9026 99.647C99.9026 102.766 102.431 105.294 105.55 105.294Z" fill="#E6E7E8"/>
</g>
</g>
</svg>
